<svg width="27" height="27" viewBox="0 0 27 27" fill="none" xmlns="http://www.w3.org/2000/svg">
<path d="M9.59163 17V9.78796H9.44877L6.84277 10.7732V11.5959L8.68027 10.9259V17H9.59163Z" fill="white"/>
<path fill-rule="evenodd" clip-rule="evenodd" d="M14.3567 9.81752H14.4355V10.5909H14.3567C13.8739 10.5909 13.47 10.6698 13.1449 10.8274C12.8197 10.9818 12.5619 11.1903 12.3714 11.453C12.1809 11.7125 12.043 12.0048 11.9576 12.3299C11.9074 12.5287 11.8726 12.7293 11.8531 12.9317C11.9019 12.8765 11.9532 12.8253 12.0069 12.7782C12.1974 12.6107 12.4092 12.4892 12.6424 12.4137C12.8788 12.3348 13.1284 12.2954 13.3912 12.2954C13.7491 12.2954 14.0579 12.3628 14.3173 12.4974C14.5768 12.6321 14.7902 12.8127 14.9577 13.0393C15.1252 13.2626 15.2484 13.5155 15.3272 13.7979C15.4093 14.0771 15.4503 14.3645 15.4503 14.66C15.4503 14.9983 15.4027 15.3152 15.3075 15.6108C15.2122 15.9064 15.0694 16.1658 14.8789 16.3892C14.6917 16.6125 14.4602 16.7866 14.1843 16.9114C13.9084 17.0362 13.5882 17.0985 13.2237 17.0985C12.8361 17.0985 12.4979 17.0197 12.2089 16.8621C11.9199 16.7012 11.6801 16.4877 11.4896 16.2217C11.2991 15.9557 11.1563 15.6601 11.061 15.3349C10.9658 15.0098 10.9182 14.6798 10.9182 14.3448V13.9162C10.9182 13.4104 10.9691 12.9145 11.0709 12.4284C11.1727 11.9424 11.3484 11.5023 11.598 11.1082C11.8509 10.7141 12.2007 10.4005 12.6473 10.1673C13.0939 9.93411 13.6638 9.81752 14.3567 9.81752ZM11.8345 14.3743V14.0283C11.8739 13.9207 11.9281 13.8177 11.997 13.7191C12.1383 13.5188 12.3172 13.3579 12.534 13.2364C12.754 13.1116 12.9905 13.0492 13.2434 13.0492C13.4667 13.0492 13.6588 13.0951 13.8198 13.1871C13.984 13.2758 14.1203 13.3989 14.2286 13.5566C14.337 13.7109 14.4175 13.8883 14.47 14.0886C14.5226 14.2856 14.5488 14.4909 14.5488 14.7044C14.5488 14.9441 14.5193 15.1642 14.4602 15.3645C14.4011 15.5648 14.314 15.7389 14.1991 15.8867C14.0874 16.0312 13.9495 16.1445 13.7853 16.2266C13.6211 16.3054 13.4339 16.3448 13.2237 16.3448C13.043 16.3448 12.869 16.3021 12.7015 16.2167C12.5373 16.1314 12.3895 16.0049 12.2581 15.8374C12.1268 15.6699 12.0233 15.4647 11.9478 15.2216C11.8722 14.9753 11.8345 14.6929 11.8345 14.3743Z" fill="white"/>
<path d="M21.3396 13.1526V14.0098H19.3395V16.2808H18.4282V14.0098H16.4232V13.1526H18.4282V11.0589H19.3395V13.1526H21.3396Z" fill="white"/>
<path fill-rule="evenodd" clip-rule="evenodd" d="M13.5 27C20.9558 27 27 20.9558 27 13.5C27 6.04416 20.9558 0 13.5 0C6.04416 0 0 6.04416 0 13.5C0 20.9558 6.04416 27 13.5 27ZM13.5 26C20.4036 26 26 20.4036 26 13.5C26 6.59644 20.4036 1 13.5 1C6.59644 1 1 6.59644 1 13.5C1 20.4036 6.59644 26 13.5 26Z" fill="white"/>
</svg>
