<svg width="247" height="23" viewBox="0 0 247 23" fill="none" xmlns="http://www.w3.org/2000/svg">
<g clip-path="url(#clip0_23_319)">
<path d="M175.663 3.97295L175.622 4.4149V19.5564H177.541V2.01178H174.185L168.936 13.5072H167.603L162.354 2.01178H158.997V19.5564H160.917V4.39649L160.876 3.97295H161.214L166.314 15.2105H170.229L175.329 3.97295H175.667H175.663Z" fill="white"/>
<path d="M195.319 4.12029C193.634 2.3801 191.476 1.50079 188.899 1.50079C186.322 1.50079 184.164 2.3801 182.479 4.12029C180.794 5.86048 179.938 8.10247 179.938 10.7818C179.938 13.4612 180.79 15.7078 182.479 17.4433C184.164 19.1835 186.322 20.0628 188.899 20.0628C191.476 20.0628 193.634 19.1835 195.319 17.4433C197.004 15.7032 197.86 13.4658 197.86 10.7818C197.86 8.09787 197.009 5.85588 195.319 4.12029ZM193.968 16.1635C192.657 17.5354 190.954 18.2352 188.899 18.2352C186.845 18.2352 185.142 17.54 183.831 16.1635C182.524 14.7916 181.857 12.9824 181.857 10.7818C181.857 8.58126 182.52 6.77661 183.831 5.40011C185.142 4.02822 186.845 3.32846 188.899 3.32846C190.954 3.32846 192.657 4.02361 193.968 5.40011C195.274 6.77201 195.941 8.58126 195.941 10.7818C195.941 12.9824 195.279 14.787 193.968 16.1635Z" fill="white"/>
<path d="M216.247 23V17.715H214.282L210.408 2.0072H204.037L200.163 17.715H198.198V23H200.118V19.5518H214.323V23H216.242H216.247ZM202.077 17.715L205.537 3.83947H208.916L212.377 17.715H202.077Z" fill="white"/>
<path d="M226.586 2.01181L223.212 10.9522H219.612L216.238 2.01181H214.215L218.337 12.7844H222.468L219.72 19.5518H221.739L228.609 2.0072H226.591L226.586 2.01181Z" fill="white"/>
<path d="M246.995 13.5072H245.085C244.752 14.4141 244.31 15.1922 243.77 15.8229C242.378 17.4203 240.593 18.2306 238.471 18.2306C236.349 18.2306 234.714 17.5354 233.403 16.1589C232.096 14.787 231.43 12.9778 231.43 10.7772C231.43 8.57667 232.092 6.77203 233.403 5.39553C234.714 4.02363 236.417 3.32387 238.471 3.32387C240.526 3.32387 242.296 4.06967 243.644 5.54745C244.166 6.13212 244.608 6.84569 244.959 7.66514H246.878C246.536 6.55565 246.013 5.55666 245.324 4.69577C243.662 2.56426 241.359 1.487 238.476 1.487C235.899 1.487 233.741 2.3663 232.056 4.1065C230.371 5.84669 229.515 8.08868 229.515 10.768C229.515 13.4474 230.366 15.694 232.056 17.4296C233.741 19.1697 235.899 20.049 238.476 20.049C241.323 20.049 243.635 18.9119 245.347 16.6653C246.058 15.7676 246.613 14.6996 247 13.4888L246.995 13.5072Z" fill="white"/>
<path d="M18.0573 8.14852H0V2.10388H1.73005V6.3807H16.3273V2.10388H18.0573V8.15312V8.14852Z" fill="white"/>
<path d="M18.0573 19.4736H16.3273V15.1921H1.73005V19.4736H0V13.4243H18.0573V19.4736Z" fill="white"/>
<path d="M40.8723 8.13469C41.9401 5.25278 44.6658 3.19954 47.8556 3.19954C51.0454 3.19954 53.7711 5.25278 54.8388 8.13469H56.6635C55.5327 4.26299 52.014 1.42712 47.8601 1.42712C43.7062 1.42712 40.1875 4.25839 39.0522 8.13469H40.8768H40.8723Z" fill="white"/>
<path d="M54.8659 13.4427C53.8206 16.3615 51.0724 18.4516 47.8556 18.4516C44.6388 18.4516 41.8905 16.3615 40.8453 13.4427H39.0251C40.138 17.3513 43.6746 20.2194 47.8511 20.2194C52.0275 20.2194 55.5687 17.3513 56.677 13.4427H54.8659Z" fill="white"/>
<path d="M109.925 8.13468C110.989 5.24817 113.719 3.18572 116.913 3.18572C120.107 3.18572 122.838 5.24817 123.901 8.13468H125.753V2.14529H124.023L124.041 5.04101C122.459 2.82663 119.783 1.41791 116.913 1.41791C112.755 1.41791 109.232 4.25378 108.101 8.13468H109.925Z" fill="white"/>
<path d="M125.735 13.4427H123.914C122.865 16.3569 120.121 18.4423 116.909 18.4423C113.696 18.4423 110.953 16.3569 109.903 13.4427H108.083C109.196 17.3513 112.732 20.2102 116.909 20.2102C119.77 20.2102 122.531 18.7508 124.018 16.6101V19.4874H125.748V13.452H125.735V13.4427Z" fill="white"/>
<path d="M91.1067 2.19135H74.5857V3.95916H91.1067V2.19135Z" fill="white"/>
<path d="M83.718 8.12091H81.9879V19.4736H83.718V8.12091Z" fill="white"/>
<path d="M141.859 21.6327V0H142.729V21.6327H141.859Z" fill="white"/>
</g>
<defs>
<clipPath id="clip0_23_319">
<rect width="247" height="23" fill="white"/>
</clipPath>
</defs>
</svg>
