<svg width="210" height="20" viewBox="0 0 210 20" fill="none" xmlns="http://www.w3.org/2000/svg">
<path d="M124.479 19.508V0.722412H125.244V19.508H124.479Z" fill="white"/>
<path d="M15.846 7.79804H0V2.54724H1.51942V6.26327H14.3266V2.54724H15.846V7.79804Z" fill="white"/>
<path d="M15.846 17.6313H14.3266V13.9153H1.51942V17.6313H0V12.3805H15.846V17.6313Z" fill="white"/>
<path d="M35.8634 7.78575C36.7997 5.28206 39.193 3.49913 41.9911 3.49913C44.7892 3.49913 47.1824 5.28364 48.1188 7.78575H49.7195C48.7253 4.42221 45.638 1.96277 41.9927 1.96277C38.3473 1.96277 35.26 4.42221 34.2627 7.78575H35.8634Z" fill="white"/>
<path d="M48.1446 12.3931C47.2254 14.9284 44.815 16.7429 41.9919 16.7429C39.1688 16.7429 36.7583 14.9284 35.8392 12.3931H34.2432C35.2202 15.7882 38.3215 18.2777 41.9887 18.2777C45.656 18.2777 48.7605 15.7882 49.7343 12.3931H48.1414H48.1446Z" fill="white"/>
<path d="M96.4581 7.78559C97.3913 5.27716 99.7877 3.48948 102.589 3.48948C105.39 3.48948 107.787 5.27874 108.72 7.78559H110.345V2.58379H108.826L108.842 5.10013C107.455 3.17652 105.107 1.95312 102.589 1.95312C98.9389 1.95312 95.85 4.41572 94.8574 7.78559H96.4597H96.4581Z" fill="white"/>
<path d="M110.333 12.3931H108.737C107.814 14.9236 105.407 16.7334 102.589 16.7334C99.7703 16.7334 97.3615 14.9236 96.4407 12.3931H94.8447C95.8233 15.7851 98.9231 18.2698 102.589 18.2698C105.099 18.2698 107.524 17.0037 108.827 15.1433V17.6407H110.347V12.3994H110.334C110.334 12.3994 110.334 12.3962 110.334 12.3931H110.333Z" fill="white"/>
<path d="M79.9472 2.62671H65.4502V4.16307H79.9472V2.62671Z" fill="white"/>
<path d="M73.4608 7.77112H71.9414V17.6294H73.4608V7.77112Z" fill="white"/>
<path d="M143.401 2.32166C147.273 2.32166 150.167 5.43505 150.167 9.52637C150.167 13.6177 147.273 16.7311 143.401 16.7311C139.709 16.7311 136.895 13.9171 136.636 10.1051H134.101V16.5116H132.704V2.54119H134.101V8.74802H136.656C136.995 5.05586 139.789 2.32166 143.401 2.32166ZM143.401 15.374C146.495 15.374 148.73 12.9192 148.73 9.52637C148.73 6.13357 146.495 3.67878 143.401 3.67878C140.288 3.67878 138.073 6.13357 138.073 9.52637C138.073 12.9192 140.288 15.374 143.401 15.374Z" fill="white"/>
<path d="M162.529 8.74802V2.54119H163.926V16.5116H162.529V10.1051H154.546V16.5116H153.149V2.54119H154.546V8.74802H162.529Z" fill="white"/>
<path d="M170.72 16.5116H167.766V2.54119H169.163V15.2143H169.862L176.169 2.54119H179.142V16.5116H177.745V3.83844H177.027L170.72 16.5116Z" fill="white"/>
<path d="M189.156 16.7311C185.204 16.7311 182.091 13.6776 182.091 9.52637C182.091 5.37518 185.204 2.32166 189.156 2.32166C193.127 2.32166 196.241 5.37518 196.241 9.52637C196.241 13.6776 193.127 16.7311 189.156 16.7311ZM189.156 15.374C192.369 15.374 194.784 12.9591 194.784 9.52637C194.784 6.09365 192.369 3.67878 189.156 3.67878C185.963 3.67878 183.528 6.09365 183.528 9.52637C183.528 12.9591 185.963 15.374 189.156 15.374Z" fill="white"/>
<path d="M208.603 8.74802V2.54119H210V16.5116H208.603V10.1051H200.62V16.5116H199.223V2.54119H200.62V8.74802H208.603Z" fill="white"/>
</svg>
