<svg width="111" height="22" viewBox="0 0 111 22" fill="none" xmlns="http://www.w3.org/2000/svg">
<path d="M83.4542 6.90151H83.8191V0H83.5801L82.5855 1.37667C81.9521 0.727028 80.4584 0.429911 79.8101 0.429911C76.5226 0.429911 74.2556 4.61438 74.2556 9.52588C74.2556 15.1806 76.5689 18.5846 79.837 18.5846C82.9606 18.5846 84.1052 14.575 84.2376 11.6688H83.8311C83.5366 13.9406 82.5235 17.2805 80.6677 17.2805C79.2619 17.2805 79.0322 15.5552 79.0322 12.8314V5.56114C79.0322 3.03326 79.5231 1.28878 80.8473 1.28878C82.2929 1.28878 83.3042 4.02875 83.4561 6.90247H83.4542V6.90151ZM5.57676 1.72347V8.64504H6.37688C6.95475 8.64504 7.57706 8.26576 7.57706 6.54612V3.74596C7.57706 1.70531 6.89548 1.72442 6.47134 1.72442L5.57676 1.72538V1.72347ZM0 17.2691H1.18814V1.72347H0V0.919055L7.01309 0.920966C9.60329 0.920966 11.5499 2.42279 11.5499 4.73762C11.5499 7.03622 10.4738 8.72242 8.34755 9.02527V9.27176C10.183 9.23545 12.363 10.7315 12.363 13.0664C12.363 16.435 10.1367 18.1155 7.07699 18.1155H0V17.2691ZM5.5638 9.50009L5.57584 17.2691H6.42782C6.86307 17.27 7.96879 17.292 7.96879 15.1711V11.5694C7.96879 10.0466 7.0455 9.50009 6.37503 9.50009H5.5638ZM13.1714 1.71965H14.3623V17.2681H13.1714V18.1079H23.5211V11.6602H23.2007C22.8784 14.7307 21.9338 17.2815 18.7491 17.2748L18.7278 9.49818H19.1547C20.429 9.49818 20.9791 11.2092 21.1504 12.9432H21.5505V5.18951H21.1513C21.0337 6.97125 20.4105 8.64409 19.1557 8.64409H18.75L18.7287 1.72156C18.7287 1.72156 22.4969 0.775752 22.7719 6.92444H23.1581V0.913323H13.1714V1.71965ZM29.5378 1.73875V17.2767H26.9365V16.8449C27.5208 15.3402 27.9394 10.936 27.9394 8.21226V3.46509C27.9394 2.17631 28.3283 1.73875 28.7386 1.73875C28.7395 1.73875 29.5378 1.73875 29.5378 1.73875ZM25.151 0.919055V1.73207H26.3706C26.7605 1.73207 27.142 2.1572 27.142 3.45649V8.46161C27.142 12.4923 26.7392 16.5182 25.5436 17.2767H24.3462V22H24.7454C24.7454 19.5887 25.5955 18.1165 27.5402 18.1165H31.9335C33.9551 18.1165 35.1284 19.2438 35.1284 22H35.5276V17.2777H33.9292V1.73971L35.1275 1.73207V0.919055H25.1501H25.151ZM49.9112 4.32491H49.5056L49.4945 15.5198C49.4945 16.7388 50.1529 17.2748 51.0799 17.2843L51.0929 18.1155H47.1136V17.2929C47.6896 17.2929 48.7082 17.184 48.7082 15.5399L48.711 1.71487H47.5155V0.916189H53.0181L54.297 6.76394L55.5741 0.916189L61.4815 0.914278V1.6929H60.2646L60.285 17.2719H61.4805V18.1088H54.6897V17.2719H55.8964V4.31631H55.5759L53.0996 18.1165L52.7357 18.1088L49.9112 4.32491ZM89.0356 1.71869C87.0121 1.71869 85.8657 4.33064 85.8657 6.9082H85.4434V0.902814L97.0136 0.917144V6.90915H96.5886C96.5886 4.54751 95.6116 1.71773 93.4075 1.71773V17.2863H95.018V18.1088H87.4548V17.2863H89.0337V1.71773L89.0356 1.71869ZM97.8249 1.712H99.0288V17.2691H97.8332V18.1088H104.199V17.2691H103.382V16.4245L105.073 7.35913H105.394L105.419 17.2691H104.605V18.1088H111V17.2834H109.772V1.72633H111V0.917144H104.606V1.72633H105.42V2.611L103.727 11.2236H103.407V1.712H104.221V0.917144H97.8249V1.712ZM40.3033 2.5766C40.3033 1.52571 40.7848 1.18464 41.3155 1.18464C41.847 1.18464 42.323 1.52571 42.323 2.5766V16.3748C42.323 17.4267 41.847 17.8117 41.3155 17.8117C40.7848 17.8117 40.3033 17.4267 40.3033 16.3748V2.5766ZM35.9239 9.53161C35.9239 13.7858 37.6177 18.5655 41.3145 18.5655C45.016 18.5655 46.7116 13.8384 46.7116 9.58702C46.7116 5.33281 45.0169 0.430867 41.3155 0.430867C37.6177 0.430867 35.9239 5.28027 35.9239 9.53161ZM66.66 2.5766C66.66 1.52571 67.1425 1.18464 67.6722 1.18464C68.2038 1.18464 68.6807 1.52571 68.6807 2.5766V16.3748C68.6807 17.4267 68.2038 17.8117 67.6722 17.8117C67.1425 17.8117 66.66 17.4267 66.66 16.3748V2.5766ZM62.2806 9.53161C62.2806 13.7858 63.9744 18.5655 67.6713 18.5655C71.3727 18.5655 73.0675 13.8384 73.0675 9.58702C73.0675 5.33281 71.3737 0.430867 67.6722 0.430867C63.9744 0.430867 62.2816 5.27931 62.2816 9.53161H62.2806Z" fill="white"/>
</svg>
