<svg width="24" height="14" viewBox="0 0 24 14" fill="none" xmlns="http://www.w3.org/2000/svg">
<g clip-path="url(#clip0_272_2548)">
<path d="M23.8736 12.5674C23.8444 12.5081 23.8174 12.4586 23.7922 12.419C23.3755 11.7072 22.5801 10.8332 21.4056 9.79719L21.3804 9.77362L21.3679 9.76148L21.3555 9.75004H21.3431C20.8099 9.26742 20.4725 8.94324 20.3311 8.77682C20.0729 8.46096 20.0145 8.1406 20.1562 7.81642C20.2566 7.5713 20.6313 7.05331 21.281 6.26211C21.6225 5.84328 21.8931 5.50731 22.0932 5.25352C23.5344 3.43466 24.1589 2.27248 23.9675 1.76594L23.8923 1.64736C23.8422 1.57594 23.7129 1.51075 23.5048 1.45147C23.2966 1.39218 23.03 1.38282 22.7053 1.422L19.1066 1.44627C19.0233 1.43829 18.94 1.44037 18.8564 1.45181C18.7731 1.46395 18.7191 1.47574 18.6939 1.48753C18.6687 1.49966 18.6482 1.50937 18.6314 1.517L18.5814 1.55271C18.5398 1.57628 18.4941 1.61789 18.4441 1.67752C18.3941 1.73681 18.3521 1.80581 18.3192 1.8852C17.9277 2.84213 17.4821 3.7318 16.9822 4.55455C16.6739 5.0448 16.3905 5.47022 16.1327 5.82976C15.8745 6.18999 15.6579 6.45488 15.483 6.62442C15.3081 6.79431 15.1496 6.93126 15.0082 7.03354C14.8665 7.13687 14.758 7.17986 14.6835 7.16426C14.6083 7.14865 14.5375 7.1327 14.471 7.11641C14.3545 7.04533 14.2603 6.9486 14.1898 6.82586C14.1189 6.70347 14.0711 6.54919 14.0459 6.36335C14.0211 6.17751 14.0061 6.01733 14.0024 5.8828C13.9981 5.74828 14.0002 5.55863 14.0086 5.3135C14.017 5.06838 14.0211 4.90265 14.0211 4.81528C14.0211 4.51502 14.0273 4.18877 14.0401 3.83651C14.0525 3.48459 14.0631 3.20583 14.0711 3.00023C14.0795 2.79498 14.0835 2.57724 14.0835 2.34772C14.0835 2.11889 14.0689 1.9386 14.0397 1.80789C14.0105 1.67752 13.9666 1.55132 13.9086 1.42824C13.8501 1.30585 13.7647 1.21085 13.6522 1.14393C13.5397 1.07667 13.4002 1.02328 13.2337 0.983751C12.7918 0.888752 12.2297 0.837785 11.5468 0.829464C9.9972 0.814209 9.00164 0.909208 8.56011 1.11446C8.38517 1.20183 8.22667 1.32006 8.08534 1.47054C7.93524 1.64459 7.91442 1.73993 8.02289 1.75484C8.52286 1.82626 8.87674 1.9965 9.08491 2.2652L9.16014 2.40735C9.21821 2.51067 9.27664 2.69235 9.33508 2.95308C9.39351 3.21416 9.43076 3.50262 9.44756 3.81917C9.4892 4.39645 9.4892 4.89051 9.44756 5.30206C9.40593 5.71361 9.36649 6.03363 9.32887 6.26246C9.29125 6.49198 9.23501 6.67747 9.16014 6.81997C9.08491 6.96282 9.03524 7.04984 9.01004 7.08139C8.98484 7.11294 8.96439 7.1327 8.94759 7.14068C8.83913 7.17986 8.72701 7.19997 8.61014 7.19997C8.49327 7.19997 8.35194 7.14449 8.18504 7.03354C8.0185 6.92329 7.8454 6.77074 7.66644 6.57692C7.48713 6.38346 7.28553 6.11233 7.0602 5.76423C6.83523 5.41648 6.60186 5.00527 6.36046 4.53062L6.16069 4.18634C6.03579 3.96514 5.86487 3.64269 5.6483 3.2197C5.43174 2.79671 5.24 2.38759 5.07347 1.99165C5.00663 1.82592 4.90693 1.69937 4.77363 1.612L4.71118 1.57628C4.66955 1.54473 4.60271 1.5111 4.51105 1.47574C4.41901 1.44003 4.3237 1.41437 4.22363 1.39842L0.799805 1.422C0.449936 1.422 0.212551 1.49758 0.0876499 1.64771L0.0376164 1.71878C0.0124171 1.75865 0 1.8221 0 1.90878C0 1.99615 0.0251993 2.10259 0.0752328 2.2288C0.575202 3.34417 1.11863 4.41968 1.70589 5.45531C2.29351 6.49163 2.80334 7.32617 3.23684 7.95857C3.66997 8.59167 4.11151 9.18836 4.56145 9.75004C5.01138 10.3117 5.30903 10.6713 5.45474 10.8294C5.60046 10.9878 5.71477 11.1064 5.79841 11.1854L6.11066 11.4704C6.31043 11.6601 6.60442 11.8875 6.99154 12.1524C7.37902 12.4176 7.80778 12.6784 8.27853 12.9349C8.74892 13.1922 9.2971 13.4013 9.9216 13.5639C10.5465 13.7261 11.1545 13.7913 11.7458 13.7594H13.1829C13.4747 13.7359 13.6953 13.6492 13.845 13.4984L13.8951 13.4391C13.9283 13.3919 13.9597 13.3184 13.9889 13.2199C14.0178 13.1211 14.0327 13.0123 14.0327 12.8937C14.024 12.5536 14.0514 12.2467 14.1138 11.9742C14.1763 11.7013 14.2471 11.4957 14.3264 11.3571C14.4056 11.2191 14.4947 11.1022 14.5952 11.0072C14.6952 10.9122 14.7657 10.8554 14.8077 10.8353C14.8494 10.8158 14.8829 10.802 14.9078 10.7936C15.1076 10.7305 15.3427 10.7919 15.6137 10.9774C15.8843 11.1636 16.1385 11.3924 16.3759 11.6656C16.6133 11.9385 16.8985 12.2446 17.232 12.5851C17.565 12.9252 17.8565 13.178 18.1066 13.3441L18.3568 13.4869C18.5233 13.5816 18.7399 13.6686 19.0065 13.748C19.2731 13.8267 19.5065 13.8468 19.7063 13.8073L22.9051 13.7594C23.2217 13.7594 23.4675 13.7102 23.6425 13.611C23.8174 13.5129 23.9215 13.4034 23.9547 13.2848C23.9879 13.1662 23.9901 13.0324 23.9609 12.8816C23.9317 12.7314 23.9025 12.6267 23.8736 12.5674Z" fill="#767781"/>
</g>
<defs>
<clipPath id="clip0_272_2548">
<rect width="24" height="13" fill="white" transform="translate(0 0.827881)"/>
</clipPath>
</defs>
</svg>
