<svg width="30" height="20" viewBox="0 0 30 20" fill="none" xmlns="http://www.w3.org/2000/svg">
<g clip-path="url(#clip0_272_10640)">
<path d="M25.378 19.7821C25.378 19.7821 17.4583 20 14.8184 20C12.1785 20 4.25874 19.7821 4.25874 19.7821C2.21378 19.7821 0.539492 18.1331 0.539492 16.1168C0.539492 16.1168 0.318359 11.5312 0.318359 9.99948C0.318359 8.4678 0.539492 3.88211 0.539492 3.88211C0.538439 1.86686 2.21168 0.217921 4.25768 0.217921C4.25768 0.217921 12.1774 0 14.8173 0C17.4572 0 25.3769 0.217921 25.3769 0.217921C27.4219 0.217921 29.0962 1.86686 29.0962 3.88315C29.0962 3.88315 29.3173 8.46469 29.3173 10.0005C29.3173 11.5363 29.0962 16.1179 29.0962 16.1179C29.0962 18.1331 27.4229 19.7831 25.3769 19.7831L25.378 19.7821Z" fill="#767781"/>
<path fill-rule="evenodd" clip-rule="evenodd" d="M12.041 14.4689V5.53101L19.3679 9.99943L12.041 14.4689Z" fill="#1A1D2E"/>
</g>
<defs>
<clipPath id="clip0_272_10640">
<rect width="29" height="20" fill="white" transform="translate(0.317383)"/>
</clipPath>
</defs>
</svg>
