<svg width="400" height="382" viewBox="0 0 400 382" fill="none" xmlns="http://www.w3.org/2000/svg">
<path d="M24.276 358.668C28.4013 358.668 31.178 357.637 32.606 355.574C34.034 353.353 34.748 349.862 34.748 345.102V286.792C34.748 282.032 34.034 278.621 32.606 276.558C31.3367 274.337 28.4807 273.226 24.038 273.226H18.088V358.668H24.276ZM18.088 269.418H24.276C28.4013 269.418 31.178 268.387 32.606 266.324C34.034 264.103 34.748 260.612 34.748 255.852V208.014C34.748 203.254 34.034 199.843 32.606 197.78C31.3367 195.559 28.4807 194.448 24.038 194.448H18.088V269.418ZM44.03 252.044C44.03 258.391 43.1573 262.992 41.412 265.848C39.8253 268.704 36.0967 270.529 30.226 271.322C35.7793 271.639 39.4287 273.305 41.174 276.32C43.078 279.176 44.03 283.936 44.03 290.6V343.436C44.03 346.768 43.792 349.624 43.316 352.004C42.84 354.225 41.888 356.129 40.46 357.716C39.1907 359.144 37.366 360.255 34.986 361.048C32.606 361.683 29.4327 362 25.466 362H8.806V191.116H25.466C33.082 191.116 38.08 192.544 40.46 195.4C42.84 198.097 44.03 202.857 44.03 209.68V252.044ZM110.118 191.116H119.4V362H110.118V191.116ZM61.5658 191.116H70.8478V268.942H78.2258C82.0338 268.942 85.1278 269.259 87.5078 269.894C89.8878 270.37 91.7918 271.322 93.2198 272.75C94.6478 274.178 95.5998 276.161 96.0758 278.7C96.5518 281.239 96.7898 284.412 96.7898 288.22V343.436C96.7898 346.768 96.5518 349.624 96.0758 352.004C95.5998 354.225 94.6478 356.129 93.2198 357.716C91.9504 359.144 90.1258 360.255 87.7458 361.048C85.3658 361.683 82.1924 362 78.2258 362H61.5658V191.116ZM70.8478 358.668H77.0358C81.1611 358.668 83.9378 357.637 85.3658 355.574C86.7938 353.353 87.5078 349.862 87.5078 345.102V286.316C87.5078 281.556 86.7938 278.145 85.3658 276.082C84.0964 273.861 81.2404 272.75 76.7978 272.75H70.8478V358.668ZM163.045 307.498H172.327V344.864C172.327 351.369 171.137 356.129 168.757 359.144C166.536 362.159 161.855 363.666 154.715 363.666C147.575 363.666 142.815 362.159 140.435 359.144C138.214 356.129 137.103 351.369 137.103 344.864V208.252C137.103 201.747 138.214 196.987 140.435 193.972C142.815 190.957 147.575 189.45 154.715 189.45C161.855 189.45 166.536 190.957 168.757 193.972C171.137 196.987 172.327 201.747 172.327 208.252V241.81H163.045V206.586C163.045 202.143 162.49 198.732 161.379 196.352C160.427 193.972 158.206 192.782 154.715 192.782C151.224 192.782 148.924 193.972 147.813 196.352C146.861 198.732 146.385 202.143 146.385 206.586V346.53C146.385 351.131 146.861 354.622 147.813 357.002C148.765 359.223 151.066 360.334 154.715 360.334C158.206 360.334 160.427 359.223 161.379 357.002C162.49 354.622 163.045 351.131 163.045 346.53V307.498ZM214.178 206.586C214.178 202.143 213.622 198.732 212.512 196.352C211.56 193.972 209.338 192.782 205.848 192.782C202.357 192.782 200.056 193.972 198.946 196.352C197.994 198.732 197.518 202.143 197.518 206.586V346.53C197.518 351.131 197.994 354.622 198.946 357.002C199.898 359.223 202.198 360.334 205.848 360.334C209.338 360.334 211.56 359.223 212.512 357.002C213.622 354.622 214.178 351.131 214.178 346.53V206.586ZM188.236 208.252C188.236 201.747 189.346 196.987 191.568 193.972C193.948 190.957 198.708 189.45 205.848 189.45C212.988 189.45 217.668 190.957 219.89 193.972C222.27 196.987 223.46 201.747 223.46 208.252V344.864C223.46 351.369 222.27 356.129 219.89 359.144C217.668 362.159 212.988 363.666 205.848 363.666C198.708 363.666 193.948 362.159 191.568 359.144C189.346 356.129 188.236 351.369 188.236 344.864V208.252ZM240.995 191.116H249.801V269.418H251.943L268.841 191.116H274.791L258.845 263.468L278.599 362H269.317L252.657 271.56H249.801V362H240.995V191.116ZM315.514 206.586C315.514 202.143 314.958 198.732 313.848 196.352C312.896 193.972 310.674 192.782 307.184 192.782C303.693 192.782 301.392 193.972 300.282 196.352C299.33 198.732 298.854 202.143 298.854 206.586V346.53C298.854 351.131 299.33 354.622 300.282 357.002C301.234 359.223 303.534 360.334 307.184 360.334C310.674 360.334 312.896 359.223 313.848 357.002C314.958 354.622 315.514 351.131 315.514 346.53V206.586ZM289.572 208.252C289.572 201.747 290.682 196.987 292.904 193.972C295.284 190.957 300.044 189.45 307.184 189.45C314.324 189.45 319.004 190.957 321.226 193.972C323.606 196.987 324.796 201.747 324.796 208.252V344.864C324.796 351.369 323.606 356.129 321.226 359.144C319.004 362.159 314.324 363.666 307.184 363.666C300.044 363.666 295.284 362.159 292.904 359.144C290.682 356.129 289.572 351.369 289.572 344.864V208.252ZM342.331 191.116H349.947L366.369 311.068L382.553 191.116H390.169V362H381.125L382.315 232.29L367.797 338.914H364.941L350.185 232.29L351.375 362H342.331V191.116Z" fill="url(#paint0_linear_546_732)"/>
<path d="M8.68 175.96H15.88V27.4C15.88 21 17.08 16.28 19.48 13.24C21.88 10.2 26.92 8.67999 34.6 8.67999H50.92V175.96H58.12V203.32H50.92V181H15.88V203.32H8.68V175.96ZM41.56 175.96V12.04H35.08C30.6 12.04 27.64 13.16 26.2 15.4C24.92 17.48 24.28 20.92 24.28 25.72V175.96H41.56ZM73.8944 182.68C76.1344 171.64 78.0544 160.76 79.6544 150.04C75.8144 126.52 72.4544 103.08 69.5744 79.72C66.8544 56.2 64.8544 32.52 63.5744 8.67999H73.4144C74.0544 28.52 75.1744 48.2 76.7744 67.72C78.5344 87.08 80.6144 106.6 83.0144 126.28C85.2544 106.6 87.1744 87.08 88.7744 67.72C90.3744 48.2 91.7344 28.52 92.8544 8.67999H100.054C95.8944 67.08 89.4144 125.08 80.6144 182.68H73.8944ZM112.443 8.67999H120.123L136.683 129.64L153.003 8.67999H160.683V181H151.563L152.763 50.2L138.123 157.72H135.242L120.363 50.2L121.563 181H112.443V8.67999ZM204.696 87.64V24.28C204.696 19.8 204.136 16.36 203.016 13.96C202.056 11.56 199.816 10.36 196.296 10.36C192.776 10.36 190.456 11.56 189.336 13.96C188.376 16.36 187.896 19.8 187.896 24.28V87.64H204.696ZM178.536 25.96C178.536 19.4 179.656 14.6 181.896 11.56C184.296 8.51999 189.096 6.99999 196.296 6.99999C203.496 6.99999 208.216 8.51999 210.456 11.56C212.856 14.6 214.056 19.4 214.056 25.96V181H204.696V92.68H187.896V181H178.536V25.96ZM237.019 13.72H223.579V8.67999H259.819V13.72H246.379V181H237.019V13.72ZM269.474 8.67999H278.834V87.16H286.274C290.114 87.16 293.234 87.48 295.634 88.12C298.034 88.6 299.954 89.56 301.394 91C302.834 92.44 303.794 94.44 304.274 97C304.754 99.56 304.994 102.76 304.994 106.6V162.28C304.994 165.64 304.754 168.52 304.274 170.92C303.794 173.16 302.834 175.08 301.394 176.68C300.114 178.12 298.274 179.24 295.874 180.04C293.474 180.68 290.274 181 286.274 181H269.474V8.67999ZM295.634 104.68C295.634 99.88 294.914 96.44 293.474 94.36C292.194 92.12 289.314 91 284.834 91H278.834V177.64H285.074C289.234 177.64 292.034 176.6 293.474 174.52C294.914 172.28 295.634 168.76 295.634 163.96V104.68Z" fill="url(#paint1_linear_546_732)"/>
<path d="M390 138.068C390 150.365 383.943 161.453 371.83 171.333C362.321 179.111 352.415 183 342.113 183C335.094 183 329.321 180.74 324.792 176.221C320.264 171.701 318 165.868 318 158.721C318 152.625 319.868 146.371 323.604 139.959C327.34 133.548 332.321 128.083 338.547 123.563C348.283 116.521 357.679 113 366.736 113C373.642 113 379.245 115.312 383.547 119.937C387.849 124.562 390 130.605 390 138.068ZM376.925 127.82C376.925 119.832 373.075 115.838 365.377 115.838C355.981 115.838 347.83 122.092 340.925 134.599C334.358 146.581 331.075 157.827 331.075 168.338C331.075 176.221 334.868 180.162 342.453 180.162C351.962 180.162 359.887 174.486 366.226 163.135C373.358 150.312 376.925 138.541 376.925 127.82Z" fill="url(#paint2_linear_546_732)"/>
<defs>
<linearGradient id="paint0_linear_546_732" x1="200" y1="262.645" x2="200" y2="376" gradientUnits="userSpaceOnUse">
<stop stop-color="white"/>
<stop offset="1" stop-color="white" stop-opacity="0.12"/>
</linearGradient>
<linearGradient id="paint1_linear_546_732" x1="159.5" y1="80.6453" x2="159.5" y2="194" gradientUnits="userSpaceOnUse">
<stop stop-color="white"/>
<stop offset="1" stop-color="white" stop-opacity="0.12"/>
</linearGradient>
<linearGradient id="paint2_linear_546_732" x1="338.624" y1="118.006" x2="338.624" y2="193.377" gradientUnits="userSpaceOnUse">
<stop stop-color="white"/>
<stop offset="1" stop-color="white" stop-opacity="0.12"/>
</linearGradient>
</defs>
</svg>
