<svg width="400" height="382" viewBox="0 0 400 382" fill="none" xmlns="http://www.w3.org/2000/svg">
<path d="M24.276 358.668C28.4013 358.668 31.178 357.637 32.606 355.574C34.034 353.353 34.748 349.862 34.748 345.102V286.792C34.748 282.032 34.034 278.621 32.606 276.558C31.3367 274.337 28.4807 273.226 24.038 273.226H18.088V358.668H24.276ZM18.088 269.418H24.276C28.4013 269.418 31.178 268.387 32.606 266.324C34.034 264.103 34.748 260.612 34.748 255.852V208.014C34.748 203.254 34.034 199.843 32.606 197.78C31.3367 195.559 28.4807 194.448 24.038 194.448H18.088V269.418ZM44.03 252.044C44.03 258.391 43.1573 262.992 41.412 265.848C39.8253 268.704 36.0967 270.529 30.226 271.322C35.7793 271.639 39.4287 273.305 41.174 276.32C43.078 279.176 44.03 283.936 44.03 290.6V343.436C44.03 346.768 43.792 349.624 43.316 352.004C42.84 354.225 41.888 356.129 40.46 357.716C39.1907 359.144 37.366 360.255 34.986 361.048C32.606 361.683 29.4327 362 25.466 362H8.806V191.116H25.466C33.082 191.116 38.08 192.544 40.46 195.4C42.84 198.097 44.03 202.857 44.03 209.68V252.044ZM110.118 191.116H119.4V362H110.118V191.116ZM61.5658 191.116H70.8478V268.942H78.2258C82.0338 268.942 85.1278 269.259 87.5078 269.894C89.8878 270.37 91.7918 271.322 93.2198 272.75C94.6478 274.178 95.5998 276.161 96.0758 278.7C96.5518 281.239 96.7898 284.412 96.7898 288.22V343.436C96.7898 346.768 96.5518 349.624 96.0758 352.004C95.5998 354.225 94.6478 356.129 93.2198 357.716C91.9504 359.144 90.1258 360.255 87.7458 361.048C85.3658 361.683 82.1924 362 78.2258 362H61.5658V191.116ZM70.8478 358.668H77.0358C81.1611 358.668 83.9378 357.637 85.3658 355.574C86.7938 353.353 87.5078 349.862 87.5078 345.102V286.316C87.5078 281.556 86.7938 278.145 85.3658 276.082C84.0964 273.861 81.2404 272.75 76.7978 272.75H70.8478V358.668ZM163.045 307.498H172.327V344.864C172.327 351.369 171.137 356.129 168.757 359.144C166.536 362.159 161.855 363.666 154.715 363.666C147.575 363.666 142.815 362.159 140.435 359.144C138.214 356.129 137.103 351.369 137.103 344.864V208.252C137.103 201.747 138.214 196.987 140.435 193.972C142.815 190.957 147.575 189.45 154.715 189.45C161.855 189.45 166.536 190.957 168.757 193.972C171.137 196.987 172.327 201.747 172.327 208.252V241.81H163.045V206.586C163.045 202.143 162.49 198.732 161.379 196.352C160.427 193.972 158.206 192.782 154.715 192.782C151.224 192.782 148.924 193.972 147.813 196.352C146.861 198.732 146.385 202.143 146.385 206.586V346.53C146.385 351.131 146.861 354.622 147.813 357.002C148.765 359.223 151.066 360.334 154.715 360.334C158.206 360.334 160.427 359.223 161.379 357.002C162.49 354.622 163.045 351.131 163.045 346.53V307.498ZM214.178 206.586C214.178 202.143 213.622 198.732 212.512 196.352C211.56 193.972 209.338 192.782 205.848 192.782C202.357 192.782 200.056 193.972 198.946 196.352C197.994 198.732 197.518 202.143 197.518 206.586V346.53C197.518 351.131 197.994 354.622 198.946 357.002C199.898 359.223 202.198 360.334 205.848 360.334C209.338 360.334 211.56 359.223 212.512 357.002C213.622 354.622 214.178 351.131 214.178 346.53V206.586ZM188.236 208.252C188.236 201.747 189.346 196.987 191.568 193.972C193.948 190.957 198.708 189.45 205.848 189.45C212.988 189.45 217.668 190.957 219.89 193.972C222.27 196.987 223.46 201.747 223.46 208.252V344.864C223.46 351.369 222.27 356.129 219.89 359.144C217.668 362.159 212.988 363.666 205.848 363.666C198.708 363.666 193.948 362.159 191.568 359.144C189.346 356.129 188.236 351.369 188.236 344.864V208.252ZM240.995 191.116H249.801V269.418H251.943L268.841 191.116H274.791L258.845 263.468L278.599 362H269.317L252.657 271.56H249.801V362H240.995V191.116ZM315.514 206.586C315.514 202.143 314.958 198.732 313.848 196.352C312.896 193.972 310.674 192.782 307.184 192.782C303.693 192.782 301.392 193.972 300.282 196.352C299.33 198.732 298.854 202.143 298.854 206.586V346.53C298.854 351.131 299.33 354.622 300.282 357.002C301.234 359.223 303.534 360.334 307.184 360.334C310.674 360.334 312.896 359.223 313.848 357.002C314.958 354.622 315.514 351.131 315.514 346.53V206.586ZM289.572 208.252C289.572 201.747 290.682 196.987 292.904 193.972C295.284 190.957 300.044 189.45 307.184 189.45C314.324 189.45 319.004 190.957 321.226 193.972C323.606 196.987 324.796 201.747 324.796 208.252V344.864C324.796 351.369 323.606 356.129 321.226 359.144C319.004 362.159 314.324 363.666 307.184 363.666C300.044 363.666 295.284 362.159 292.904 359.144C290.682 356.129 289.572 351.369 289.572 344.864V208.252ZM342.331 191.116H349.947L366.369 311.068L382.553 191.116H390.169V362H381.125L382.315 232.29L367.797 338.914H364.941L350.185 232.29L351.375 362H342.331V191.116Z" fill="url(#paint0_linear_546_732)"/>
<path d="M94.68 175.96H101.88V27.4C101.88 21 103.08 16.28 105.48 13.24C107.88 10.2 112.92 8.67999 120.6 8.67999H136.92V175.96H144.12V203.32H136.92V181H101.88V203.32H94.68V175.96ZM127.56 175.96V12.04H121.08C116.6 12.04 113.64 13.16 112.2 15.4C110.92 17.48 110.28 20.92 110.28 25.72V175.96H127.56ZM159.894 182.68C162.134 171.64 164.054 160.76 165.654 150.04C161.814 126.52 158.454 103.08 155.574 79.72C152.854 56.2 150.854 32.52 149.574 8.67999H159.414C160.054 28.52 161.174 48.2 162.774 67.72C164.534 87.08 166.614 106.6 169.014 126.28C171.254 106.6 173.174 87.08 174.774 67.72C176.374 48.2 177.734 28.52 178.854 8.67999H186.054C181.894 67.08 175.414 125.08 166.614 182.68H159.894ZM198.443 8.67999H206.123L222.683 129.64L239.003 8.67999H246.683V181H237.563L238.763 50.2L224.123 157.72H221.242L206.363 50.2L207.563 181H198.443V8.67999ZM290.696 87.64V24.28C290.696 19.8 290.136 16.36 289.016 13.96C288.056 11.56 285.816 10.36 282.296 10.36C278.776 10.36 276.456 11.56 275.336 13.96C274.376 16.36 273.896 19.8 273.896 24.28V87.64H290.696ZM264.536 25.96C264.536 19.4 265.656 14.6 267.896 11.56C270.296 8.51999 275.096 6.99999 282.296 6.99999C289.496 6.99999 294.216 8.51999 296.456 11.56C298.856 14.6 300.056 19.4 300.056 25.96V181H290.696V92.68H273.896V181H264.536V25.96ZM323.019 13.72H309.579V8.67999H345.819V13.72H332.379V181H323.019V13.72ZM355.474 8.67999H364.834V87.16H372.274C376.114 87.16 379.234 87.48 381.634 88.12C384.034 88.6 385.954 89.56 387.394 91C388.834 92.44 389.794 94.44 390.274 97C390.754 99.56 390.994 102.76 390.994 106.6V162.28C390.994 165.64 390.754 168.52 390.274 170.92C389.794 173.16 388.834 175.08 387.394 176.68C386.114 178.12 384.274 179.24 381.874 180.04C379.474 180.68 376.274 181 372.274 181H355.474V8.67999ZM381.634 104.68C381.634 99.88 380.914 96.44 379.474 94.36C378.194 92.12 375.314 91 370.834 91H364.834V177.64H371.074C375.234 177.64 378.034 176.6 379.474 174.52C380.914 172.28 381.634 168.76 381.634 163.96V104.68Z" fill="url(#paint1_linear_546_732)"/>
<path d="M80 140.068C80 152.365 73.9434 163.453 61.8302 173.333C52.3208 181.111 42.4151 185 32.1132 185C25.0943 185 19.3208 182.74 14.7925 178.221C10.2642 173.701 8 167.868 8 160.721C8 154.625 9.86793 148.371 13.6038 141.959C17.3396 135.548 22.3208 130.083 28.5472 125.563C38.283 118.521 47.6792 115 56.7358 115C63.6415 115 69.2453 117.312 73.5472 121.937C77.8491 126.562 80 132.605 80 140.068ZM66.9245 129.82C66.9245 121.832 63.0755 117.838 55.3774 117.838C45.9811 117.838 37.8302 124.092 30.9245 136.599C24.3585 148.581 21.0755 159.827 21.0755 170.338C21.0755 178.221 24.8679 182.162 32.4528 182.162C41.9623 182.162 49.8868 176.486 56.2264 165.135C63.3585 152.312 66.9245 140.541 66.9245 129.82Z" fill="url(#paint2_linear_546_732)"/>
<defs>
<linearGradient id="paint0_linear_546_732" x1="200" y1="262.645" x2="200" y2="376" gradientUnits="userSpaceOnUse">
<stop stop-color="white"/>
<stop offset="1" stop-color="white" stop-opacity="0.12"/>
</linearGradient>
<linearGradient id="paint1_linear_546_732" x1="245.5" y1="80.6453" x2="245.5" y2="194" gradientUnits="userSpaceOnUse">
<stop stop-color="white"/>
<stop offset="1" stop-color="white" stop-opacity="0.12"/>
</linearGradient>
<linearGradient id="paint2_linear_546_732" x1="28.6241" y1="120.006" x2="28.6241" y2="195.377" gradientUnits="userSpaceOnUse">
<stop stop-color="white"/>
<stop offset="1" stop-color="white" stop-opacity="0.12"/>
</linearGradient>
</defs>
</svg>
