<svg width="24" height="10" viewBox="0 0 24 10" fill="none" xmlns="http://www.w3.org/2000/svg">
<circle cx="4.5" cy="5.49982" r="4.5" fill="#252838"/>
<path d="M22.4653 6.36162C22.7726 6.10246 23.0418 5.87601 23.2347 5.71496C23.3307 5.63382 23.4076 5.56924 23.4606 5.52453L23.5211 5.47319L23.537 5.45995L23.5403 5.45788L23.5412 5.45622H23.5424L23.5432 5.45539C23.8317 5.21238 23.9996 4.85552 24 4.48003C24 4.10289 23.8347 3.74562 23.5462 3.50178L19.4764 0.0611058C19.3687 -0.0303859 19.2047 -0.0179662 19.1116 0.0904991L17.7706 1.65041C17.6779 1.75805 17.6912 1.91992 17.8006 2.01141L19.2076 3.20163L10.8448 3.20246C10.7755 3.20246 10.7087 3.22978 10.6607 3.27781C10.6135 3.32459 10.5859 3.39124 10.5859 3.45872V5.50838C10.5859 5.57669 10.6131 5.64169 10.6611 5.69012C10.7083 5.73773 10.7751 5.76464 10.8444 5.76464H19.185C18.965 5.95135 18.7529 6.13144 18.5655 6.29124C18.3651 6.46097 18.191 6.61042 18.0536 6.73007C17.9847 6.78927 17.925 6.84143 17.8758 6.88531C17.8248 6.93085 17.7848 6.96646 17.7405 7.0091C17.6904 7.0567 17.6629 7.12046 17.6608 7.18918C17.6599 7.25749 17.6858 7.32166 17.7338 7.37175L19.1713 8.84597C19.2681 8.94491 19.4276 8.94988 19.5307 8.85673L19.5979 8.79588L19.5967 8.79712C19.7482 8.66381 20.081 8.37775 20.4814 8.03786C21.0842 7.52534 21.8507 6.87952 22.4649 6.36244L22.4653 6.36162Z" fill="#252838"/>
</svg>
