<svg width="77" height="28" viewBox="0 0 77 28" fill="none" xmlns="http://www.w3.org/2000/svg">
<g clip-path="url(#clip0_627_367)">
<path d="M35.4886 9.71682V10.8477H35.056V10.1186H32.249V6.90442H32.7118V9.72178H34.5278V6.90442H34.9906V9.72178H35.4936L35.4886 9.71682Z" fill="white"/>
<path d="M38.3614 9.71682V10.1186H35.9971V6.90442H38.296V7.30619H36.4599V8.29326H38.0947V8.68511H36.4599V9.72178H38.3614V9.71682Z" fill="white"/>
<path d="M41.7269 6.89954V10.1137H41.259V8.68023H39.3877V10.1137H38.9199V6.89954H39.3877V8.28342H41.259V6.89954H41.7269Z" fill="white"/>
<path d="M44.8854 7.30131H43.7687V10.1187H43.3109V7.30131H42.1992V6.89954H44.8854V7.30131Z" fill="white"/>
<path d="M47.6271 7.19714C47.8686 7.39555 47.9893 7.66836 47.9893 8.02053C47.9893 8.3727 47.8686 8.64551 47.6271 8.84391C47.3856 9.04232 47.0536 9.14152 46.6311 9.14152H45.8262V10.1137H45.3584V6.89954H46.6311C47.0536 6.89954 47.3856 6.99874 47.6271 7.19714ZM47.2901 8.55622C47.446 8.43222 47.5215 8.25365 47.5215 8.02053C47.5215 7.7874 47.446 7.60884 47.2901 7.48483C47.1341 7.36083 46.9078 7.29635 46.616 7.29635H45.8262V8.73975H46.616C46.9128 8.73975 47.1341 8.68023 47.2901 8.55622Z" fill="white"/>
<path d="M52.5122 6.89954V10.1137H52.0544V7.29635H50.163V10.1137H49.7002V6.89954H52.5071H52.5122Z" fill="white"/>
<path d="M53.9761 9.94008C53.7145 9.79623 53.5033 9.60279 53.3523 9.34982C53.2014 9.09685 53.126 8.81909 53.126 8.51156C53.126 8.20403 53.2014 7.9213 53.3523 7.67329C53.5033 7.42033 53.7095 7.22688 53.9761 7.08304C54.2377 6.93919 54.5345 6.86975 54.8665 6.86975C55.1985 6.86975 55.4852 6.93919 55.7518 7.08304C56.0134 7.22688 56.2197 7.42033 56.3706 7.66833C56.5215 7.91634 56.5919 8.19907 56.5919 8.51156C56.5919 8.82405 56.5164 9.10678 56.3706 9.35478C56.2197 9.60279 56.0134 9.80119 55.7518 9.94504C55.4903 10.0889 55.1935 10.1583 54.8665 10.1583C54.5395 10.1583 54.2427 10.0889 53.9761 9.94504V9.94008ZM55.5104 9.58295C55.7015 9.47382 55.8524 9.32998 55.9631 9.1415C56.0738 8.95301 56.1291 8.74468 56.1291 8.51156C56.1291 8.27843 56.0738 8.07011 55.9631 7.88162C55.8524 7.69313 55.7015 7.54433 55.5104 7.44017C55.3192 7.33104 55.1029 7.28144 54.8665 7.28144C54.6301 7.28144 54.4087 7.336 54.2176 7.44017C54.0214 7.54929 53.8705 7.69313 53.7598 7.88162C53.6491 8.07011 53.5938 8.27843 53.5938 8.51156C53.5938 8.74468 53.6491 8.95301 53.7598 9.1415C53.8705 9.32998 54.0214 9.47879 54.2176 9.58295C54.4138 9.69207 54.6301 9.74167 54.8665 9.74167C55.1029 9.74167 55.3192 9.68711 55.5104 9.58295Z" fill="white"/>
<path d="M60.6359 7.19714C60.8773 7.39555 60.9981 7.66836 60.9981 8.02053C60.9981 8.3727 60.8773 8.64551 60.6359 8.84391C60.3944 9.04232 60.0624 9.14152 59.6399 9.14152H58.835V10.1137H58.3672V6.89954H59.6399C60.0624 6.89954 60.3944 6.99874 60.6359 7.19714ZM60.2989 8.55622C60.4548 8.43222 60.5303 8.25365 60.5303 8.02053C60.5303 7.7874 60.4548 7.60884 60.2989 7.48483C60.1429 7.36083 59.9165 7.29635 59.6248 7.29635H58.835V8.73975H59.6248C59.9216 8.73975 60.1429 8.68023 60.2989 8.55622Z" fill="white"/>
<path d="M63.503 9.31017H61.7725L61.4154 10.1137H60.9375L62.4164 6.89954H62.8792L64.3582 10.1137H63.8702L63.5131 9.31017H63.503ZM63.342 8.94311L62.6378 7.36579L61.9335 8.94311H63.342Z" fill="white"/>
<path d="M64.8213 6.89954H67.2811V7.29139H65.2841V8.20901H66.3002C66.6876 8.20901 66.9844 8.28838 67.1856 8.4471C67.3868 8.60583 67.4874 8.83399 67.4874 9.13656C67.4874 9.45401 67.3767 9.6921 67.1604 9.86074C66.9391 10.0294 66.6272 10.1137 66.2197 10.1137H64.8213V6.89954ZM66.1996 9.75162C66.4662 9.75162 66.6725 9.70202 66.8083 9.59785C66.9491 9.49865 67.0196 9.34985 67.0196 9.15144C67.0196 8.76455 66.7479 8.56614 66.1996 8.56614H65.2841V9.74666H66.1996V9.75162Z" fill="white"/>
<path d="M68.7349 9.94008C68.4733 9.79623 68.262 9.60279 68.1111 9.34982C67.9602 9.09685 67.8848 8.81909 67.8848 8.51156C67.8848 8.20403 67.9602 7.9213 68.1111 7.67329C68.262 7.42033 68.4683 7.22688 68.7349 7.08304C68.9965 6.93919 69.2933 6.86975 69.6253 6.86975C69.9573 6.86975 70.244 6.93919 70.5106 7.08304C70.7722 7.22688 70.9784 7.42033 71.1294 7.66833C71.2803 7.91634 71.3507 8.19907 71.3507 8.51156C71.3507 8.82405 71.2752 9.10678 71.1294 9.35478C70.9784 9.60279 70.7722 9.80119 70.5106 9.94504C70.249 10.0889 69.9523 10.1583 69.6253 10.1583C69.2983 10.1583 69.0015 10.0889 68.7349 9.94504V9.94008ZM70.2692 9.58295C70.4603 9.47382 70.6112 9.32998 70.7219 9.1415C70.8326 8.95301 70.8879 8.74468 70.8879 8.51156C70.8879 8.27843 70.8326 8.07011 70.7219 7.88162C70.6112 7.69313 70.4603 7.54433 70.2692 7.44017C70.078 7.33104 69.8617 7.28144 69.6253 7.28144C69.3889 7.28144 69.1675 7.336 68.9764 7.44017C68.7802 7.54929 68.6293 7.69313 68.5186 7.88162C68.4079 8.07011 68.3526 8.27843 68.3526 8.51156C68.3526 8.74468 68.4079 8.95301 68.5186 9.1415C68.6293 9.32998 68.7802 9.47879 68.9764 9.58295C69.1725 9.69207 69.3889 9.74167 69.6253 9.74167C69.8617 9.74167 70.078 9.68711 70.2692 9.58295Z" fill="white"/>
<path d="M74.1579 7.30131H73.0412V10.1187H72.5834V7.30131H71.4717V6.89954H74.1579V7.30131Z" fill="white"/>
<path d="M77 9.71682V10.1186H74.6357V6.90442H76.9346V7.30619H75.0985V8.29326H76.7334V8.68511H75.0985V9.72178H77V9.71682Z" fill="white"/>
<path d="M32.8225 15.4508C32.5609 15.3069 32.3547 15.1135 32.2038 14.8605C32.0528 14.6125 31.9824 14.3298 31.9824 14.0173C31.9824 13.7048 32.0579 13.4221 32.2038 13.1741C32.3547 12.9261 32.5609 12.7277 32.8225 12.5888C33.0841 12.4449 33.3809 12.3755 33.7078 12.3755C33.9644 12.3755 34.1958 12.4201 34.4071 12.5045C34.6183 12.5888 34.7994 12.7128 34.9453 12.8765L34.6435 13.1642C34.397 12.9112 34.0902 12.7822 33.728 12.7822C33.4865 12.7822 33.2652 12.8368 33.069 12.9409C32.8728 13.0501 32.7219 13.1939 32.6112 13.3824C32.5006 13.5709 32.4452 13.7792 32.4452 14.0123C32.4452 14.2455 32.5006 14.4538 32.6112 14.6423C32.7219 14.8308 32.8728 14.9796 33.069 15.0837C33.2652 15.1928 33.4815 15.2424 33.728 15.2424C34.0902 15.2424 34.397 15.1135 34.6435 14.8556L34.9453 15.1432C34.7944 15.3069 34.6133 15.4359 34.402 15.5202C34.1908 15.6045 33.9543 15.6492 33.7028 15.6492C33.3758 15.6492 33.0841 15.5797 32.8225 15.4359V15.4508Z" fill="white"/>
<path d="M39.6792 12.4103V15.6244H39.2214V12.8071H37.33V15.6244H36.8672V12.4103H39.6741H39.6792Z" fill="white"/>
<path d="M42.798 12.7079C43.0395 12.9063 43.1602 13.1791 43.1602 13.5313C43.1602 13.8834 43.0395 14.1562 42.798 14.3547C42.5565 14.5531 42.2245 14.6523 41.802 14.6523H40.9971V15.6244H40.5293V12.4103H41.802C42.2245 12.4103 42.5565 12.5095 42.798 12.7079ZM42.461 14.067C42.6169 13.943 42.6924 13.7644 42.6924 13.5313C42.6924 13.2981 42.6169 13.1196 42.461 12.9956C42.305 12.8716 42.0787 12.812 41.7869 12.812H40.9971V14.2555H41.7869C42.0837 14.2555 42.305 14.1959 42.461 14.067Z" fill="white"/>
<path d="M44.398 15.4508C44.1364 15.307 43.9251 15.1135 43.7742 14.8606C43.6233 14.6076 43.5479 14.3298 43.5479 14.0223C43.5479 13.7148 43.6233 13.432 43.7742 13.184C43.9251 12.9311 44.1314 12.7376 44.398 12.5938C44.6596 12.4499 44.9564 12.3805 45.2884 12.3805C45.6204 12.3805 45.9071 12.4499 46.1737 12.5938C46.4353 12.7376 46.6415 12.9311 46.7924 13.1791C46.9434 13.4271 47.0138 13.7098 47.0138 14.0223C47.0138 14.3348 46.9383 14.6175 46.7924 14.8655C46.6466 15.1135 46.4353 15.3119 46.1737 15.4558C45.9121 15.5996 45.6153 15.6691 45.2884 15.6691C44.9614 15.6691 44.6646 15.5996 44.398 15.4558V15.4508ZM45.9322 15.0937C46.1234 14.9846 46.2743 14.8407 46.385 14.6522C46.4957 14.4638 46.551 14.2554 46.551 14.0223C46.551 13.7892 46.4957 13.5808 46.385 13.3924C46.2743 13.2039 46.1234 13.0551 45.9322 12.9509C45.7411 12.8418 45.5248 12.7922 45.2884 12.7922C45.0519 12.7922 44.8306 12.8467 44.6394 12.9509C44.4433 13.06 44.2923 13.2039 44.1817 13.3924C44.071 13.5808 44.0157 13.7892 44.0157 14.0223C44.0157 14.2554 44.071 14.4638 44.1817 14.6522C44.2923 14.8407 44.4433 14.9895 44.6394 15.0937C44.8356 15.2028 45.0519 15.2524 45.2884 15.2524C45.5248 15.2524 45.7411 15.1979 45.9322 15.0937Z" fill="white"/>
<path d="M47.6328 12.4103H50.0927V12.8021H48.0956V13.7198H49.1117C49.4991 13.7198 49.7959 13.7991 49.9971 13.9578C50.1983 14.1166 50.2989 14.3447 50.2989 14.6473C50.2989 14.9648 50.1882 15.2028 49.9719 15.3715C49.7506 15.5401 49.4387 15.6244 49.0313 15.6244H47.6328V12.4103ZM49.0111 15.2624C49.2777 15.2624 49.484 15.2128 49.6198 15.1086C49.7607 15.0094 49.8311 14.8606 49.8311 14.6622C49.8311 14.2753 49.5594 14.0769 49.0111 14.0769H48.0956V15.2574H49.0111V15.2624Z" fill="white"/>
<path d="M53.6587 12.4103V15.6244H53.201V12.8071H51.7572L51.722 13.7495C51.7069 14.191 51.6717 14.5531 51.6114 14.8308C51.556 15.1086 51.4655 15.312 51.3397 15.4508C51.214 15.5897 51.048 15.6592 50.8367 15.6592C50.7411 15.6592 50.6405 15.6493 50.5449 15.6244L50.5751 15.2177C50.6254 15.2276 50.6757 15.2376 50.726 15.2376C50.8568 15.2376 50.9675 15.183 51.048 15.0788C51.1284 14.9747 51.1888 14.8159 51.229 14.6027C51.2693 14.3894 51.2944 14.1116 51.3095 13.7694L51.3598 12.4152H53.6537L53.6587 12.4103Z" fill="white"/>
<path d="M56.8731 15.2276V15.6293H54.5088V12.4152H56.8077V12.8169H54.9716V13.804H56.6065V14.1959H54.9716V15.2325H56.8731V15.2276Z" fill="white"/>
<path d="M60.4598 15.6244V13.2832L59.2776 15.2326H59.0613L57.8842 13.2931V15.6194H57.4365V12.4053H57.8188L59.177 14.6671L60.5201 12.4053H60.9025V15.6194H60.4598V15.6244Z" fill="white"/>
<path d="M64.5599 12.4103V15.6244H64.0921V14.191H62.2208V15.6244H61.7529V12.4103H62.2208V13.7942H64.0921V12.4103H64.5599Z" fill="white"/>
<path d="M67.7233 13.7891C67.9295 13.9627 68.0352 14.2107 68.0352 14.548C68.0352 14.9002 67.9245 15.168 67.7032 15.3516C67.4818 15.5351 67.1649 15.6293 66.7524 15.6293H65.4043V12.4152H65.8671V13.5362H66.8379C67.2253 13.5362 67.5221 13.6205 67.7283 13.7941L67.7233 13.7891ZM67.3511 15.0837C67.4969 14.9647 67.5674 14.7861 67.5674 14.5579C67.5674 14.1165 67.2857 13.8982 66.7273 13.8982H65.8621V15.2672H66.7273C66.9989 15.2672 67.2052 15.2077 67.3511 15.0837ZM68.5483 12.4152H69.0111V15.6293H68.5483V12.4152Z" fill="white"/>
<path d="M72.8846 15.6244V13.2832L71.7024 15.2326H71.4861L70.309 13.2931V15.6194H69.8613V12.4053H70.2436L71.6018 14.6671L72.9449 12.4053H73.3273V15.6194H72.8846V15.6244Z" fill="white"/>
<path d="M74.1826 12.4103H74.6454V14.8903L76.572 12.4103H76.9996V15.6244H76.5419V13.1493L74.6102 15.6244H74.1826V12.4103Z" fill="white"/>
<path d="M34.3672 20.3315H32.6368L32.2796 21.1351H31.8018L33.2757 17.9209H33.7385L35.2174 21.1351H34.7294L34.3723 20.3315H34.3672ZM34.2063 19.9645L33.502 18.3872L32.7978 19.9645H34.2063Z" fill="white"/>
<path d="M36.8273 19.7214H36.1482V21.1351H35.6904V17.9209H36.1482V19.3147H36.8374L37.8636 17.9209H38.3616L37.1995 19.4784L38.4219 21.1351H37.8887L36.8323 19.7214H36.8273Z" fill="white"/>
<path d="M41.3239 18.3227H40.2072V21.14H39.7494V18.3227H38.6377V17.9209H41.3239V18.3227Z" fill="white"/>
<path d="M41.7969 17.9209H42.2597V20.401L44.1863 17.9209H44.6139V21.1351H44.1561V18.66L42.2245 21.1351H41.7969V17.9209Z" fill="white"/>
<path d="M48 19.7462C48.1157 19.8802 48.171 20.0488 48.171 20.2571C48.171 20.5349 48.0654 20.7531 47.8592 20.9069C47.6529 21.0607 47.3511 21.1351 46.9587 21.1351H45.4697V17.9209H46.8732C47.2304 17.9209 47.507 17.9903 47.7082 18.1342C47.9095 18.278 48.0101 18.4814 48.0101 18.7492C48.0101 18.9228 47.9648 19.0717 47.8793 19.1957C47.7887 19.3197 47.668 19.4089 47.502 19.4734C47.7233 19.528 47.8893 19.6173 48.005 19.7512L48 19.7462ZM45.9275 19.3345H46.838C47.0644 19.3345 47.2354 19.2899 47.3561 19.2006C47.4768 19.1113 47.5372 18.9824 47.5372 18.8088C47.5372 18.6352 47.4768 18.5062 47.3561 18.4169C47.2354 18.3276 47.0644 18.283 46.838 18.283H45.9275V19.3345ZM47.6982 20.2224C47.6982 20.0389 47.6378 19.905 47.5121 19.8157C47.3863 19.7264 47.2002 19.6867 46.9487 19.6867H45.9275V20.773H46.9487C47.4467 20.773 47.6982 20.5895 47.6982 20.2224Z" fill="white"/>
<path d="M50.962 20.3315H49.2315L48.8744 21.1351H48.3965L49.8704 17.9209H50.3332L51.8121 21.1351H51.3242L50.967 20.3315H50.962ZM50.801 19.9645L50.0968 18.3872L49.3925 19.9645H50.801Z" fill="white"/>
<path d="M55.3035 21.1351V18.794L54.1214 20.7433H53.9051L52.728 18.8039V21.1302H52.2803V17.916H52.6626L54.0208 20.1778L55.3639 17.916H55.7462V21.1302H55.3035V21.1351Z" fill="white"/>
<path d="M56.5967 17.9209H57.0595V20.401L58.9861 17.9209H59.4137V21.1351H58.9559V18.66L57.0243 21.1351H56.5967V17.9209Z" fill="white"/>
<path d="M9.77402 27.3056C4.09976 25.4703 0 20.2076 0 14.0025C0 6.26962 6.3584 0 14.2008 0C21.1427 0 26.9226 4.9155 28.155 11.4133L15.232 13.5709L14.9402 12.3805C14.9251 12.326 14.8698 12.2863 14.8145 12.2863H13.5871C13.5317 12.2863 13.4764 12.3309 13.4613 12.3805L12.5961 15.8824H11.424C11.3787 15.8824 11.3435 15.9171 11.3435 15.9617V17.2117C11.3435 17.2563 11.3787 17.2911 11.424 17.2911H12.2439L9.76899 27.3056H9.77402ZM15.4483 14.4687L15.8004 15.8873H16.9725C17.0178 15.8873 17.053 15.9221 17.053 15.9667V17.2167C17.053 17.2613 17.0178 17.296 16.9725 17.296H16.1525L18.6275 27.3105C23.4919 25.7382 27.1993 21.6461 28.155 16.5966L15.4533 14.4737L15.4483 14.4687Z" fill="white"/>
</g>
<defs>
<clipPath id="clip0_627_367">
<rect width="77" height="28" fill="white"/>
</clipPath>
</defs>
</svg>
