<svg width="53" height="53" viewBox="0 0 53 53" fill="none" xmlns="http://www.w3.org/2000/svg">
<path d="M3.96803 39.4651V40.7814H3.46396V39.9328H0.1875V36.1919H0.726738V39.4709H2.84266V36.1919H3.3819V39.4709H3.96803V39.4651Z" fill="white"/>
<path d="M7.309 39.4651V39.9328H4.5542V36.1919H7.23281V36.6595H5.09344V37.8083H6.99835V38.2644H5.09344V39.4709H7.309V39.4651Z" fill="white"/>
<path d="M11.2301 36.1862V39.927H10.685V38.2586H8.50457V39.927H7.95947V36.1862H8.50457V37.7968H10.685V36.1862H11.2301Z" fill="white"/>
<path d="M14.9112 36.6538H13.61V39.9328H13.0766V36.6538H11.7812V36.1862H14.9112V36.6538Z" fill="white"/>
<path d="M18.1054 36.5382C18.3867 36.7691 18.5274 37.0867 18.5274 37.4965C18.5274 37.9006 18.3867 38.2239 18.1054 38.4548C17.824 38.6858 17.4372 38.8012 16.9448 38.8012H16.007V39.9327H15.4619V36.1918H16.9448C17.4372 36.1861 17.824 36.3073 18.1054 36.5382ZM17.7185 38.1142C17.9002 37.9699 17.9881 37.7621 17.9881 37.4908C17.9881 37.2194 17.9002 37.0116 17.7185 36.8673C17.5368 36.723 17.2731 36.6479 16.9331 36.6479H16.007V38.3278H16.9272C17.2731 38.3336 17.5368 38.2586 17.7185 38.1142Z" fill="white"/>
<path d="M23.9024 36.1862V39.927H23.3691V36.648H21.1652V39.927H20.626V36.1862H23.9024Z" fill="white"/>
<path d="M25.6077 39.7249C25.303 39.5575 25.0568 39.3324 24.8809 39.038C24.7051 38.7435 24.6172 38.4202 24.6172 38.0623C24.6172 37.7044 24.7051 37.3754 24.8809 37.0867C25.0568 36.7923 25.2971 36.5671 25.6077 36.3997C25.9125 36.2323 26.2583 36.1515 26.6452 36.1515C27.0262 36.1515 27.3661 36.2323 27.6768 36.3997C27.9816 36.5671 28.2219 36.7923 28.3977 37.0809C28.5736 37.3696 28.6556 37.6986 28.6556 38.0623C28.6556 38.426 28.5677 38.7551 28.3977 39.0437C28.2219 39.3324 27.9816 39.5633 27.6768 39.7307C27.372 39.8981 27.0262 39.9789 26.6452 39.9789C26.2583 39.9732 25.9125 39.8924 25.6077 39.7249ZM27.3954 39.3093C27.6182 39.1823 27.794 39.0149 27.923 38.7955C28.0519 38.5761 28.1164 38.3337 28.1164 38.0623C28.1164 37.791 28.0519 37.5485 27.923 37.3292C27.794 37.1098 27.6182 36.9366 27.3954 36.8154C27.1727 36.6884 26.9207 36.6306 26.6452 36.6306C26.3638 36.6306 26.1118 36.6941 25.8891 36.8154C25.6605 36.9424 25.4847 37.1098 25.3557 37.3292C25.2268 37.5485 25.1623 37.791 25.1623 38.0623C25.1623 38.3337 25.2268 38.5761 25.3557 38.7955C25.4847 39.0149 25.6605 39.1881 25.8891 39.3093C26.1177 39.4363 26.3697 39.494 26.6452 39.494C26.9207 39.4998 27.1727 39.4363 27.3954 39.3093Z" fill="white"/>
<path d="M33.4677 36.5382C33.749 36.7691 33.8897 37.0867 33.8897 37.4965C33.8897 37.9006 33.749 38.2239 33.4677 38.4548C33.1863 38.6858 32.7995 38.8012 32.3071 38.8012H31.3693V39.9327H30.8242V36.1918H32.3071C32.7936 36.1861 33.1863 36.3073 33.4677 36.5382ZM33.075 38.1142C33.2567 37.9699 33.3446 37.7621 33.3446 37.4908C33.3446 37.2194 33.2567 37.0116 33.075 36.8673C32.8933 36.723 32.6295 36.6479 32.2895 36.6479H31.3635V38.3278H32.2837C32.6295 38.3336 32.8933 38.2586 33.075 38.1142Z" fill="white"/>
<path d="M36.8027 38.9918H34.7864L34.3703 39.927H33.8135L35.5308 36.1862H36.0701L37.7933 39.927H37.2247L36.8027 38.9918ZM36.6093 38.5646L35.7887 36.7288L34.9682 38.5646H36.6093Z" fill="white"/>
<path d="M38.3384 36.1862H41.2045V36.6422H38.8776V37.7102H40.0616C40.5129 37.7102 40.8587 37.8026 41.0932 37.9873C41.3276 38.172 41.4449 38.4376 41.4449 38.7898C41.4449 39.1592 41.3159 39.4363 41.0639 39.6326C40.806 39.8289 40.4426 39.927 39.9678 39.927H38.3384V36.1862ZM39.9444 39.5056C40.255 39.5056 40.4953 39.4479 40.6536 39.3266C40.8177 39.2112 40.8998 39.038 40.8998 38.8071C40.8998 38.3568 40.5832 38.1259 39.9444 38.1259H38.8776V39.4998H39.9444V39.5056Z" fill="white"/>
<path d="M42.8988 39.7249C42.594 39.5575 42.3478 39.3324 42.172 39.038C41.9961 38.7435 41.9082 38.4202 41.9082 38.0623C41.9082 37.7044 41.9961 37.3754 42.172 37.0867C42.3478 36.7923 42.5881 36.5671 42.8988 36.3997C43.2035 36.2323 43.5494 36.1515 43.9362 36.1515C44.3172 36.1515 44.6571 36.2323 44.9678 36.3997C45.2726 36.5671 45.5129 36.7923 45.6887 37.0809C45.8646 37.3696 45.9466 37.6986 45.9466 38.0623C45.9466 38.426 45.8587 38.7551 45.6887 39.0437C45.5129 39.3324 45.2726 39.5633 44.9678 39.7307C44.663 39.8981 44.3172 39.9789 43.9362 39.9789C43.5494 39.9732 43.2035 39.8924 42.8988 39.7249ZM44.6865 39.3093C44.9092 39.1823 45.085 39.0149 45.214 38.7955C45.3429 38.5761 45.4074 38.3337 45.4074 38.0623C45.4074 37.791 45.3429 37.5485 45.214 37.3292C45.085 37.1098 44.9092 36.9366 44.6865 36.8154C44.4637 36.6884 44.2117 36.6306 43.9362 36.6306C43.6549 36.6306 43.4028 36.6941 43.1801 36.8154C42.9515 36.9424 42.7757 37.1098 42.6467 37.3292C42.5178 37.5485 42.4533 37.791 42.4533 38.0623C42.4533 38.3337 42.5178 38.5761 42.6467 38.7955C42.7757 39.0149 42.9515 39.1881 43.1801 39.3093C43.4087 39.4363 43.6607 39.494 43.9362 39.494C44.2117 39.4998 44.4637 39.4363 44.6865 39.3093Z" fill="white"/>
<path d="M49.2173 36.6538H47.9161V39.9328H47.3827V36.6538H46.0874V36.1862H49.2173V36.6538Z" fill="white"/>
<path d="M52.5287 39.4651V39.9328H49.7739V36.1919H52.4525V36.6595H50.3132V37.8083H52.2181V38.2644H50.3132V39.4709H52.5287V39.4651Z" fill="white"/>
<path d="M1.17805 46.1387C0.873266 45.9713 0.632954 45.7461 0.457115 45.4517C0.281277 45.163 0.199219 44.834 0.199219 44.4703C0.199219 44.1066 0.287138 43.7775 0.457115 43.4889C0.632954 43.2002 0.873266 42.9693 1.17805 42.8077C1.48284 42.6403 1.82866 42.5594 2.20964 42.5594C2.50856 42.5594 2.77818 42.6114 3.02436 42.7095C3.27053 42.8077 3.48154 42.952 3.65151 43.1425L3.29984 43.4773C3.01263 43.1829 2.6551 43.0328 2.23308 43.0328C1.95174 43.0328 1.69385 43.0963 1.46526 43.2176C1.23667 43.3446 1.06083 43.512 0.931879 43.7314C0.802931 43.9507 0.738457 44.1932 0.738457 44.4645C0.738457 44.7358 0.802931 44.9783 0.931879 45.1977C1.06083 45.417 1.23667 45.5902 1.46526 45.7115C1.69385 45.8385 1.94588 45.8962 2.23308 45.8962C2.6551 45.8962 3.01263 45.7461 3.29984 45.4459L3.65151 45.7807C3.47568 45.9713 3.26467 46.1213 3.0185 46.2195C2.77818 46.3349 2.5027 46.3869 2.20964 46.3869C1.82866 46.3869 1.4887 46.3061 1.17805 46.1387Z" fill="white"/>
<path d="M9.03818 42.5999V46.3407H8.5048V43.0617H6.30096V46.3407H5.76172V42.5999H9.03818Z" fill="white"/>
<path d="M12.6664 42.952C12.9477 43.183 13.0884 43.5005 13.0884 43.9103C13.0884 44.3145 12.9477 44.6377 12.6664 44.8687C12.385 45.0996 11.9982 45.215 11.5059 45.215H10.568V46.3465H10.0229V42.6057H11.5059C11.9982 42.5999 12.385 42.7211 12.6664 42.952ZM12.2737 44.5281C12.4554 44.3837 12.5433 44.1759 12.5433 43.9046C12.5433 43.6332 12.4554 43.4254 12.2737 43.2811C12.092 43.1368 11.8282 43.0675 11.4883 43.0675H10.568V44.7474H11.4883C11.8341 44.7474 12.0978 44.6724 12.2737 44.5281Z" fill="white"/>
<path d="M14.5301 46.1386C14.2253 45.9712 13.9791 45.7461 13.8033 45.4517C13.6275 45.1572 13.5396 44.8339 13.5396 44.476C13.5396 44.1181 13.6275 43.789 13.8033 43.5004C13.9791 43.206 14.2195 42.9808 14.5301 42.8134C14.8349 42.646 15.1807 42.5652 15.5676 42.5652C15.9485 42.5652 16.2885 42.646 16.5991 42.8134C16.9039 42.9808 17.1442 43.206 17.3201 43.4946C17.4959 43.7833 17.578 44.1123 17.578 44.476C17.578 44.8397 17.4901 45.1688 17.3201 45.4574C17.1442 45.7461 16.9039 45.977 16.5991 46.1444C16.2944 46.3118 15.9485 46.3926 15.5676 46.3926C15.1807 46.3869 14.8349 46.306 14.5301 46.1386ZM16.3178 45.723C16.5405 45.596 16.7164 45.4286 16.8453 45.2092C16.9743 44.9898 17.0387 44.7474 17.0387 44.476C17.0387 44.2047 16.9743 43.9622 16.8453 43.7429C16.7164 43.5235 16.5405 43.3503 16.3178 43.2291C16.0951 43.1021 15.843 43.0443 15.5676 43.0443C15.2862 43.0443 15.0342 43.1078 14.8114 43.2291C14.5829 43.3561 14.407 43.5235 14.2781 43.7429C14.1491 43.9622 14.0847 44.2047 14.0847 44.476C14.0847 44.7474 14.1491 44.9898 14.2781 45.2092C14.407 45.4286 14.5829 45.6017 14.8114 45.723C15.04 45.85 15.2921 45.9077 15.5676 45.9077C15.843 45.9135 16.0951 45.85 16.3178 45.723Z" fill="white"/>
<path d="M18.3047 42.5999H21.1709V43.0559H18.8439V44.1239H20.0279C20.4792 44.1239 20.825 44.2163 21.0595 44.401C21.2939 44.5857 21.4112 44.8513 21.4112 45.2034C21.4112 45.5729 21.2822 45.85 21.0302 46.0463C20.7723 46.2426 20.4089 46.3407 19.9341 46.3407H18.3047V42.5999ZM19.9107 45.9193C20.2213 45.9193 20.4616 45.8616 20.6199 45.7403C20.784 45.6249 20.8661 45.4517 20.8661 45.2208C20.8661 44.7705 20.5496 44.5396 19.9107 44.5396H18.8439V45.9135H19.9107V45.9193Z" fill="white"/>
<path d="M25.3205 42.5999V46.3407H24.7871V43.0617H23.105L23.0639 44.1585C23.0463 44.6723 23.0053 45.0938 22.935 45.417C22.8705 45.7403 22.765 45.977 22.6185 46.1387C22.4719 46.3003 22.2785 46.3811 22.0323 46.3811C21.921 46.3811 21.8037 46.3696 21.6924 46.3407L21.7276 45.8673C21.7862 45.8789 21.8448 45.8904 21.9034 45.8904C22.0558 45.8904 22.1847 45.8269 22.2785 45.7057C22.3723 45.5845 22.4426 45.3997 22.4895 45.1515C22.5364 44.9033 22.5657 44.58 22.5833 44.1816L22.6419 42.6056H25.3205V42.5999Z" fill="white"/>
<path d="M29.0717 45.8788V46.3464H26.3169V42.6056H28.9955V43.0732H26.8561V44.222H28.761V44.6781H26.8561V45.8846H29.0717V45.8788Z" fill="white"/>
<path d="M33.2453 46.3465L33.2394 43.6217L31.8679 45.8904H31.6159L30.2443 43.6332V46.3407H29.7227V42.5999H30.1681L31.7507 45.2323L33.3156 42.5999H33.7611L33.7669 46.3407H33.2453V46.3465Z" fill="white"/>
<path d="M38.0221 42.5999V46.3407H37.477V44.6723H35.2966V46.3407H34.7515V42.5999H35.2966V44.2105H37.477V42.5999H38.0221Z" fill="white"/>
<path d="M41.7147 44.2047C41.9551 44.4068 42.0781 44.6954 42.0781 45.088C42.0781 45.4979 41.9492 45.8096 41.6913 46.0232C41.4334 46.2368 41.0641 46.3465 40.5835 46.3465H39.0127V42.6056H39.5519V43.9103H40.6832C41.1286 43.9045 41.4744 44.0084 41.7147 44.2047ZM41.281 45.7115C41.451 45.5729 41.533 45.3651 41.533 45.0995C41.533 44.5857 41.2048 44.3317 40.5542 44.3317H39.5461V45.9251H40.5542C40.8707 45.9193 41.111 45.85 41.281 45.7115ZM42.676 42.5999H43.2152V46.3407H42.676V42.5999Z" fill="white"/>
<path d="M47.7223 46.3465L47.7165 43.6217L46.3449 45.8904H46.0929L44.7214 43.6332V46.3407H44.1997V42.5999H44.6452L46.2277 45.2323L47.7927 42.5999H48.2381L48.244 46.3407H47.7223V46.3465Z" fill="white"/>
<path d="M49.2349 42.5999H49.7741V45.4863L52.019 42.5999H52.5172V46.3407H51.9838V43.46L49.7331 46.3407H49.2349V42.5999Z" fill="white"/>
<path d="M13.2642 51.8251H11.2479L10.8317 52.7603H10.2749L11.9923 49.0194H12.5315L14.2547 52.7603H13.6862L13.2642 51.8251ZM13.0766 51.3921L12.256 49.5621L11.4354 51.3979H13.0766V51.3921Z" fill="white"/>
<path d="M16.1303 51.1091H15.339V52.7544H14.8057V49.0135H15.339V50.6357H16.142L17.3377 49.0135H17.918L16.564 50.8262L17.9883 52.7544H17.367L16.1303 51.1091Z" fill="white"/>
<path d="M21.3702 49.4812H20.069V52.7602H19.5356V49.4812H18.2402V49.0135H21.3702V49.4812Z" fill="white"/>
<path d="M21.9209 49.0135H22.4601V51.9L24.705 49.0135H25.2032V52.7544H24.6698V49.8737L22.4191 52.7544H21.9209V49.0135Z" fill="white"/>
<path d="M29.1479 51.1438C29.2827 51.2997 29.3472 51.496 29.3472 51.7385C29.3472 52.0617 29.2241 52.3158 28.9838 52.4947C28.7435 52.6737 28.3918 52.7603 27.9346 52.7603H26.1997V49.0194H27.835C28.2512 49.0194 28.5735 49.1002 28.808 49.2676C29.0424 49.4351 29.1597 49.6717 29.1597 49.9835C29.1597 50.1855 29.1069 50.3587 29.0073 50.5031C28.9018 50.6474 28.7611 50.7513 28.5677 50.8263C28.8197 50.8783 29.0131 50.988 29.1479 51.1438ZM26.7331 50.6647H27.794C28.0577 50.6647 28.257 50.6127 28.3977 50.5088C28.5384 50.4049 28.6087 50.2548 28.6087 50.0528C28.6087 49.8507 28.5384 49.7006 28.3977 49.5967C28.257 49.4928 28.0577 49.4408 27.794 49.4408H26.7331V50.6647ZM28.7963 51.6923C28.7963 51.4787 28.7259 51.3228 28.5794 51.2189C28.4329 51.115 28.216 51.0688 27.9229 51.0688H26.7331V52.3331H27.9229C28.5032 52.3331 28.7963 52.1195 28.7963 51.6923Z" fill="white"/>
<path d="M32.6006 51.8251H30.5843L30.1682 52.7603H29.6113L31.3287 49.0194H31.8679L33.5911 52.7603H33.0226L32.6006 51.8251ZM32.4072 51.3921L31.5866 49.5563L30.766 51.3921H32.4072Z" fill="white"/>
<path d="M37.6589 52.7602L37.653 50.0354L36.2815 52.3041H36.0294L34.6579 50.0469V52.7544H34.1362V49.0135H34.5817L36.1642 51.646L37.7292 49.0135H38.1747L38.1805 52.7544H37.6589V52.7602Z" fill="white"/>
<path d="M39.165 49.0135H39.7043V51.9L41.9491 49.0135H42.4474V52.7544H41.914V49.8737L39.6632 52.7544H39.165V49.0135Z" fill="white"/>
<path d="M21.2063 32.1682C14.5948 30.0322 9.81787 23.9129 9.81787 16.6852C9.81787 7.68517 17.2265 0.388184 26.3643 0.388184C34.4528 0.388184 41.1875 6.10916 42.6235 13.6717L27.5658 16.1829L27.2259 14.7974C27.2083 14.7339 27.1438 14.6877 27.0794 14.6877H25.6492C25.5847 14.6877 25.5202 14.7397 25.5027 14.7974L24.4945 18.8731H23.1288C23.0761 18.8731 23.0351 18.9135 23.0351 18.9655V20.4203C23.0351 20.4722 23.0761 20.5126 23.1288 20.5126H24.0842L21.2063 32.1682ZM27.8179 17.2278L28.2282 18.8789H29.5938C29.6466 18.8789 29.6876 18.9193 29.6876 18.9712V20.426C29.6876 20.478 29.6466 20.5184 29.5938 20.5184H28.6385L31.5222 32.1739C37.1901 30.3439 41.5098 25.5813 42.6235 19.7044L27.8179 17.2278Z" fill="white"/>
</svg>
