<svg width="122" height="23" viewBox="0 0 122 23" fill="none" xmlns="http://www.w3.org/2000/svg">
<path d="M91.334 7.47573H91.7317V0.574219H91.4713L90.3871 1.95089C89.6966 1.30125 88.0682 1.00413 87.3616 1.00413C83.7779 1.00413 81.3066 5.1886 81.3066 10.1001C81.3066 15.7548 83.8284 19.1588 87.3908 19.1588C90.7959 19.1588 92.0436 15.1492 92.188 12.243H91.7448C91.4238 14.5148 90.3195 17.8547 88.2964 17.8547C86.7639 17.8547 86.5136 16.1294 86.5136 13.4056V6.13536C86.5136 3.60748 87.0487 1.863 88.4922 1.863C90.0681 1.863 91.1704 4.60297 91.336 7.47669H91.334V7.47573ZM6.4405 2.29769V9.21926H7.31271C7.94264 9.21926 8.62102 8.83998 8.62102 7.12034V4.32018C8.62102 2.27953 7.87802 2.29864 7.41568 2.29864L6.4405 2.2996V2.29769ZM0.361328 17.8433H1.65651V2.29769H0.361328V1.49327L8.00623 1.49518C10.8298 1.49518 12.9517 2.99701 12.9517 5.31184C12.9517 7.61044 11.7787 9.29664 9.46091 9.59949V9.84598C11.4617 9.80967 13.8381 11.3057 13.8381 13.6406C13.8381 17.0092 11.4112 18.6897 8.07588 18.6897H0.361328V17.8433ZM6.42637 10.0743L6.4395 17.8433H7.36823C7.84269 17.8442 9.04803 17.8662 9.04803 15.7453V12.1436C9.04803 10.6208 8.04156 10.0743 7.31069 10.0743H6.42637ZM14.7194 2.29387H16.0176V17.8423H14.7194V18.6821H26.0015V12.2344H25.6522C25.3009 15.3049 24.2712 17.8557 20.7996 17.849L20.7763 10.0724H21.2417C22.6308 10.0724 23.2304 11.7834 23.4172 13.5174H23.8533V5.76373H23.4182C23.2899 7.54547 22.6106 9.21831 21.2427 9.21831H20.8006L20.7774 2.29578C20.7774 2.29578 24.8849 1.34997 25.1848 7.49866H25.6058V1.48754H14.7194V2.29387ZM32.5601 2.31297V17.8509H29.7245V17.4191C30.3615 15.9144 30.8178 11.5102 30.8178 8.78648V4.03931C30.8178 2.75053 31.2418 2.31297 31.6889 2.31297C31.69 2.31297 32.5601 2.31297 32.5601 2.31297ZM27.7782 1.49327V2.30629H29.1077C29.5327 2.30629 29.9486 2.73142 29.9486 4.03071V9.03583C29.9486 13.0665 29.5095 17.0924 28.2062 17.8509H26.9009V22.5742H27.3361C27.3361 20.1629 28.2627 18.6907 30.3827 18.6907H35.1717C37.3755 18.6907 38.6545 19.818 38.6545 22.5742H39.0896V17.8519H37.3472V2.31393L38.6535 2.30629V1.49327H27.7772H27.7782ZM54.769 4.89913H54.3269L54.3148 16.094C54.3148 17.313 55.0326 17.849 56.0431 17.8585L56.0572 18.6897H51.7194V17.8671C52.3473 17.8671 53.4577 17.7582 53.4577 16.1141L53.4607 2.28909H52.1575V1.49041H58.156L59.55 7.33816L60.9421 1.49041L67.3816 1.4885V2.26712H66.0552L66.0775 17.8461H67.3807V18.683H59.978V17.8461H61.2934V4.89053H60.9441L58.2448 18.6907L57.848 18.683L54.769 4.89913ZM97.4182 2.29291C95.2125 2.29291 93.9627 4.90486 93.9627 7.48242H93.5024V1.47703L106.115 1.49136V7.48337H105.651C105.651 5.12173 104.587 2.29195 102.184 2.29195V17.8605H103.94V18.683H95.695V17.8605H97.4162V2.29195L97.4182 2.29291ZM106.999 2.28622H108.311V17.8433H107.009V18.683H113.948V17.8433H113.058V16.9987L114.901 7.93335H115.25L115.278 17.8433H114.39V18.683H121.361V17.8576H120.023V2.30055H121.361V1.49136H114.392V2.30055H115.278V3.18522L113.433 11.7978H113.085V2.28622H113.972V1.49136H106.999V2.28622ZM44.2956 3.15082C44.2956 2.09993 44.8205 1.75886 45.399 1.75886C45.9784 1.75886 46.4972 2.09993 46.4972 3.15082V16.949C46.4972 18.0009 45.9784 18.3859 45.399 18.3859C44.8205 18.3859 44.2956 18.0009 44.2956 16.949V3.15082ZM39.5216 10.1058C39.5216 14.36 41.368 19.1397 45.3979 19.1397C49.4329 19.1397 51.2813 14.4126 51.2813 10.1612C51.2813 5.90703 49.4338 1.00509 45.399 1.00509C41.368 1.00509 39.5216 5.85449 39.5216 10.1058ZM73.0268 3.15082C73.0268 2.09993 73.5527 1.75886 74.1302 1.75886C74.7096 1.75886 75.2295 2.09993 75.2295 3.15082V16.949C75.2295 18.0009 74.7096 18.3859 74.1302 18.3859C73.5527 18.3859 73.0268 18.0009 73.0268 16.949V3.15082ZM68.2528 10.1058C68.2528 14.36 70.0993 19.1397 74.1291 19.1397C78.1641 19.1397 80.0115 14.4126 80.0115 10.1612C80.0115 5.90703 78.165 1.00509 74.1302 1.00509C70.0992 1.00509 68.2539 5.85353 68.2539 10.1058H68.2528Z" fill="white"/>
</svg>
