<svg width="25" height="14" viewBox="0 0 25 14" fill="none" xmlns="http://www.w3.org/2000/svg">
<g clip-path="url(#clip0_313_145)">
<path d="M24.566 11.7591C24.5368 11.6998 24.5098 11.6502 24.4846 11.6107C24.0679 10.8989 23.2725 10.0248 22.0979 8.98884L22.0727 8.96527L22.0603 8.95313L22.0479 8.94169H22.0355C21.5023 8.45907 21.1648 8.13489 21.0235 7.96847C20.7653 7.65261 20.7069 7.33225 20.8486 7.00807C20.949 6.76295 21.3237 6.24496 21.9734 5.45376C22.3149 5.03493 22.5855 4.69897 22.7856 4.44517C24.2267 2.62632 24.8512 1.46413 24.6599 0.957586L24.5846 0.83901C24.5346 0.767587 24.4053 0.702405 24.1972 0.643117C23.989 0.583829 23.7224 0.574468 23.3977 0.613647L19.799 0.637917C19.7157 0.629942 19.6324 0.632023 19.5488 0.643464C19.4655 0.655599 19.4115 0.667387 19.3863 0.679175C19.3611 0.69131 19.3406 0.701018 19.3238 0.708646L19.2738 0.744358C19.2322 0.767934 19.1865 0.80954 19.1365 0.869174C19.0864 0.928462 19.0444 0.997458 19.0116 1.07686C18.6201 2.03378 18.1745 2.92345 17.6745 3.7462C17.3663 4.23645 17.0829 4.66187 16.8251 5.02141C16.5669 5.38164 16.3503 5.64653 16.1754 5.81607C16.0004 5.98596 15.8419 6.12291 15.7006 6.22519C15.5589 6.32852 15.4504 6.37151 15.3759 6.35591C15.3007 6.3403 15.2298 6.32436 15.1634 6.30806C15.0469 6.23698 14.9527 6.14025 14.8822 6.01751C14.8113 5.89512 14.7635 5.74084 14.7383 5.555C14.7134 5.36916 14.6985 5.20898 14.6948 5.07446C14.6904 4.93993 14.6926 4.75028 14.701 4.50515C14.7094 4.26003 14.7134 4.0943 14.7134 4.00693C14.7134 3.70667 14.7197 3.38042 14.7324 3.02816C14.7449 2.67624 14.7554 2.39748 14.7635 2.19188C14.7719 1.98663 14.7759 1.76889 14.7759 1.53937C14.7759 1.31054 14.7613 1.13025 14.7321 0.999538C14.7029 0.869174 14.659 0.742971 14.601 0.619888C14.5425 0.497498 14.4571 0.402499 14.3446 0.335583C14.2321 0.268321 14.0926 0.214927 13.9261 0.175402C13.4842 0.0804023 12.9221 0.0294355 12.2392 0.0211144C10.6896 0.00585899 9.69403 0.100858 9.25249 0.306112C9.07755 0.393484 8.91905 0.511713 8.77772 0.662187C8.62762 0.836236 8.6068 0.931583 8.71527 0.946491C9.21524 1.01791 9.56912 1.18815 9.77729 1.45685L9.85253 1.599C9.91059 1.70233 9.96903 1.884 10.0275 2.14473C10.0859 2.40581 10.1231 2.69427 10.1399 3.01082C10.1816 3.5881 10.1816 4.08216 10.1399 4.49371C10.0983 4.90526 10.0589 5.22528 10.0213 5.45411C9.98364 5.68363 9.92739 5.86912 9.85253 6.01162C9.77729 6.15447 9.72762 6.24149 9.70243 6.27304C9.67723 6.30459 9.65677 6.32436 9.63998 6.33233C9.53151 6.37151 9.41939 6.39162 9.30252 6.39162C9.18566 6.39162 9.04432 6.33614 8.87742 6.22519C8.71089 6.11494 8.53778 5.96239 8.35883 5.76857C8.17951 5.57511 7.97791 5.30398 7.75258 4.95588C7.52761 4.60813 7.29425 4.19692 7.05284 3.72227L6.85307 3.37799C6.72817 3.15679 6.55726 2.83434 6.34069 2.41135C6.12412 1.98836 5.93238 1.57924 5.76585 1.1833C5.69902 1.01757 5.59932 0.891017 5.46601 0.803645L5.40356 0.767934C5.36193 0.736383 5.2951 0.702752 5.20343 0.667387C5.1114 0.631676 5.01608 0.606019 4.91601 0.59007L1.49219 0.613647C1.14232 0.613647 0.904934 0.68923 0.780033 0.839357L0.729999 0.910433C0.7048 0.950305 0.692383 1.01375 0.692383 1.10043C0.692383 1.1878 0.717582 1.29424 0.767616 1.42045C1.26759 2.53582 1.81101 3.61133 2.39827 4.64696C2.98589 5.68328 3.49572 6.51782 3.92922 7.15022C4.36236 7.78332 4.80389 8.38002 5.25383 8.94169C5.70376 9.50337 6.00141 9.86291 6.14713 10.021C6.29285 10.1795 6.40716 10.298 6.49079 10.3771L6.80304 10.6621C7.00281 10.8517 7.2968 11.0792 7.68392 11.3441C8.07141 11.6093 8.50016 11.87 8.97091 12.1266C9.4413 12.3839 9.98948 12.5929 10.614 12.7555C11.2389 12.9178 11.8469 12.983 12.4382 12.9511H13.8753C14.1671 12.9275 14.3877 12.8408 14.5374 12.69L14.5874 12.6307C14.6207 12.5836 14.6521 12.5101 14.6813 12.4116C14.7102 12.3128 14.7251 12.2039 14.7251 12.0853C14.7164 11.7452 14.7438 11.4384 14.8062 11.1659C14.8687 10.893 14.9395 10.6874 15.0188 10.5487C15.098 10.4107 15.1871 10.2939 15.2875 10.1989C15.3876 10.1039 15.4581 10.047 15.5001 10.0269C15.5417 10.0075 15.5753 9.99362 15.6002 9.9853C15.7999 9.92219 16.0351 9.98356 16.3061 10.1691C16.5767 10.3552 16.8309 10.5841 17.0683 10.8573C17.3057 11.1301 17.5909 11.4363 17.9243 11.7768C18.2574 12.1169 18.5489 12.3696 18.799 12.5357L19.0492 12.6786C19.2157 12.7732 19.4323 12.8602 19.6989 12.9396C19.9655 13.0183 20.1989 13.0385 20.3986 12.9989L23.5975 12.9511C23.9141 12.9511 24.1599 12.9018 24.3348 12.8027C24.5098 12.7046 24.6139 12.595 24.6471 12.4764C24.6803 12.3579 24.6825 12.224 24.6533 12.0732C24.6241 11.9231 24.5949 11.8184 24.566 11.7591Z" fill="#767781"/>
</g>
<defs>
<clipPath id="clip0_313_145">
<rect width="24" height="13" fill="white" transform="translate(0.692383 0.0195312)"/>
</clipPath>
</defs>
</svg>
