<svg width="32" height="32" viewBox="0 0 32 32" fill="none" xmlns="http://www.w3.org/2000/svg">
<path d="M14.9605 31.9633C6.12504 31.3693 -0.55726 23.7218 0.0367224 14.9605C0.704952 6.12504 8.27823 -0.55726 17.1137 0.0367224C25.875 0.704952 32.5573 8.27823 31.9633 17.1137C31.3693 25.875 23.7218 32.5573 14.9605 31.9633Z" fill="#E30613"/>
<path fill-rule="evenodd" clip-rule="evenodd" d="M9.59961 24.6548H10.922V7.29804H9.59961V6.3999L17.4052 6.40204C20.2881 6.40204 22.4546 8.07884 22.4546 10.6634C22.4546 13.2298 21.257 15.1124 18.8904 15.4506V15.7258C20.9333 15.6852 23.3596 17.3556 23.3596 19.9626C23.3596 23.7236 20.8818 25.5999 17.4763 25.5999H9.59961V24.6548ZM15.8066 7.30067V15.0265H16.6971C17.3403 15.0265 18.0329 14.6031 18.0329 12.6831V9.55667C18.0329 7.29909 17.2881 7.2994 16.8153 7.2996L15.8066 7.30067ZM15.7921 15.9812L15.8055 24.6553H16.7538L16.7669 24.6554C17.2601 24.6566 18.4689 24.6598 18.4689 22.3129V18.2916C18.4689 16.5913 17.4413 15.9812 16.695 15.9812H15.7921Z" fill="white"/>
</svg>
