<svg width="64" height="64" viewBox="0 0 64 64" fill="none" xmlns="http://www.w3.org/2000/svg">
<path d="M32 64C49.6731 64 64 49.6731 64 32C64 14.3269 49.6731 0 32 0C14.3269 0 0 14.3269 0 32C0 49.6731 14.3269 64 32 64Z" fill="#252838"/>
<path fill-rule="evenodd" clip-rule="evenodd" d="M19.0744 50.0811L16 50.0585V52H34.3075C42.2242 52 47.9801 48.0913 47.9801 40.2536C47.9801 34.8246 42.3438 31.3428 37.5952 31.4283V30.8546C43.0979 30.1542 45.8807 26.2301 45.8807 20.881C45.8807 15.498 40.8457 12.004 34.1422 12.004L16 12V14.0028L19.0735 13.9713L19.0744 50.0811ZM30.425 50.0679L30.3926 32.013L32.4936 31.9678C34.2227 31.9678 36.616 33.2258 36.616 36.7698V45.1456C36.616 50.0768 33.7531 50.0705 32.6269 50.068L32.5559 50.0679H30.425ZM30.4341 13.9824V30.02V30.0208H32.5028C33.9984 30.0208 35.6078 29.0283 35.6078 25.0292V18.682C35.6078 13.9373 33.8426 13.964 32.7452 13.9806C32.6828 13.9815 32.6226 13.9824 32.565 13.9824H30.4341Z" fill="white"/>
</svg>
