<svg width="64" height="64" viewBox="0 0 64 64" fill="none" xmlns="http://www.w3.org/2000/svg">
<rect width="64" height="64" rx="32" fill="#19323E"/>
<path d="M30.7235 11.6956V29.7276H32.836C34.3616 29.7276 36.0046 28.7395 36.0046 24.2595V16.9646C36.0046 11.6483 34.2051 11.6981 33.0853 11.6981L30.7235 11.7006V11.6956ZM16 52.1948H19.1369V11.6956H16V9.59998L34.5156 9.60494C41.3542 9.60494 46.4934 13.5175 46.4934 19.548C46.4934 25.5363 43.6525 29.9292 38.0389 30.7182V31.3602C42.8847 31.2656 48.64 35.1632 48.64 41.2462C48.64 50.0219 42.7624 54.4 34.6843 54.4H16V52.1948ZM30.6893 31.9551L30.7211 52.1948H32.9704C34.1196 52.1972 37.0388 52.2545 37.0388 46.7292V37.3462C37.0388 33.3788 34.6012 31.9551 32.8311 31.9551H30.6893Z" fill="white"/>
</svg>
