<svg width="32" height="32" viewBox="0 0 32 32" fill="none" xmlns="http://www.w3.org/2000/svg">
<rect width="32" height="32" rx="16" fill="#19323E"/>
<path d="M15.3617 5.84781V14.8638H16.418C17.1808 14.8638 18.0023 14.3697 18.0023 12.1298V8.48229C18.0023 5.82415 17.1026 5.84905 16.5427 5.84905L15.3617 5.85029V5.84781ZM8 26.0974H9.56844V5.84781H8V4.79999L17.2578 4.80247C20.6771 4.80247 23.2467 6.75873 23.2467 9.77401C23.2467 12.7682 21.8263 14.9646 19.0194 15.3591V15.6801C21.4423 15.6328 24.32 17.5816 24.32 20.6231C24.32 25.0109 21.3812 27.2 17.3422 27.2H8V26.0974ZM15.3446 15.9775L15.3605 26.0974H16.4852C17.0598 26.0986 18.5194 26.1273 18.5194 23.3646V18.6731C18.5194 16.6894 17.3006 15.9775 16.4155 15.9775H15.3446Z" fill="white"/>
</svg>
