<svg width="26" height="30" viewBox="0 0 26 30" fill="none" xmlns="http://www.w3.org/2000/svg">
<path d="M25.7375 7.85043C25.7342 7.85043 25.731 7.84912 25.7287 7.84677C25.7263 7.84443 25.725 7.84125 25.725 7.83793C25.5443 7.53033 25.2856 7.27591 24.975 7.10043L13.975 0.912934C13.677 0.746536 13.3413 0.65918 13 0.65918C12.6587 0.65918 12.323 0.746536 12.025 0.912934L1.025 7.10043C0.714403 7.27591 0.455675 7.53033 0.275001 7.83793C0.275001 7.84125 0.273684 7.84443 0.27134 7.84677C0.268996 7.84912 0.265816 7.85043 0.262501 7.85043V7.87543C0.0896856 8.16667 -0.00102566 8.49928 9.89265e-07 8.83793V21.1629C0.000633 21.5193 0.0958582 21.869 0.275945 22.1765C0.456032 22.484 0.714523 22.7381 1.025 22.9129L12.025 29.1004C12.3019 29.2515 12.6098 29.337 12.925 29.3504H13.1C13.4072 29.3368 13.707 29.2512 13.975 29.1004L24.975 22.9129C25.2855 22.7381 25.544 22.484 25.7241 22.1765C25.9041 21.869 25.9994 21.5193 26 21.1629V8.83793C26.0018 8.49129 25.9112 8.15042 25.7375 7.85043ZM13 2.65043L22.9625 8.25043L19.1375 10.4254L9.05 4.86293L13 2.65043ZM13.1125 13.8504L3.05 8.25043L7 6.02543L17.1 11.5879L13.1125 13.8504ZM14.0125 26.7879L14.1125 15.5879L18.125 13.3004V18.0629C18.125 18.3281 18.2304 18.5825 18.4179 18.77C18.6054 18.9576 18.8598 19.0629 19.125 19.0629C19.3902 19.0629 19.6446 18.9576 19.8321 18.77C20.0196 18.5825 20.125 18.3281 20.125 18.0629V12.1629L24 9.96293V21.1629L14.0125 26.7879Z" fill="white"/>
</svg>
