<svg width="125" height="24" viewBox="0 0 125 24" fill="none" xmlns="http://www.w3.org/2000/svg">
<path d="M94.244 7.52892H94.6513V0H94.3846L93.2743 1.50182C92.5671 0.793122 90.8994 0.468994 90.1757 0.468994C86.5054 0.468994 83.9745 5.03387 83.9745 10.3919C83.9745 16.5607 86.5571 20.2741 90.2056 20.2741C93.6929 20.2741 94.9708 15.9 95.1187 12.7296H94.6648C94.336 15.2079 93.205 18.8515 91.1331 18.8515C89.5636 18.8515 89.3073 16.9693 89.3073 13.9979V6.0667C89.3073 3.30901 89.8552 1.40594 91.3336 1.40594C92.9475 1.40594 94.0765 4.395 94.246 7.52997H94.244V7.52892ZM7.30021 1.88015V9.43095H8.19349C8.83863 9.43095 9.53339 9.01719 9.53339 7.14122V4.0865C9.53339 1.86034 8.77245 1.88119 8.29894 1.88119L7.30021 1.88223V1.88015ZM1.07422 18.839H2.40068V1.88015H1.07422V1.00261L8.90376 1.00469C11.7955 1.00469 13.9687 2.64304 13.9687 5.16831C13.9687 7.67588 12.7674 9.51537 10.3936 9.84575V10.1146C12.4427 10.075 14.8764 11.7071 14.8764 14.2543C14.8764 17.9291 12.391 19.7624 8.97509 19.7624H1.07422V18.839ZM7.28574 10.3637L7.29919 18.839H8.25035C8.73627 18.84 9.97072 18.864 9.97072 16.5503V12.6212C9.97072 10.9599 8.93994 10.3637 8.19142 10.3637H7.28574ZM15.779 1.87598H17.1087V18.8379H15.779V19.7541H27.3337V12.7202H26.9759C26.6161 16.0699 25.5616 18.8525 22.0061 18.8452L21.9822 10.3617H22.4589C23.8815 10.3617 24.4956 12.2282 24.6869 14.1199H25.1335V5.66128H24.688C24.5566 7.605 23.8608 9.42992 22.4599 9.42992H22.0071L21.9833 1.87807C21.9833 1.87807 26.1901 0.846275 26.4972 7.55393H26.9284V0.996352H15.779V1.87598ZM34.0507 1.89682V18.8473H31.1466V18.3763C31.799 16.7348 32.2663 11.9302 32.2663 8.95883V3.7801C32.2663 2.37416 32.7005 1.89682 33.1584 1.89682H34.0507ZM29.1533 1.00261V1.88953H30.5149C30.9501 1.88953 31.3761 2.35331 31.3761 3.77072V9.23085C31.3761 13.628 30.9263 18.0199 29.5916 18.8473H28.2548V24H28.7005C28.7005 21.3695 29.6495 19.7635 31.8206 19.7635H36.7253C38.9824 19.7635 40.2923 20.9932 40.2923 24H40.7379V18.8484H38.9534V1.89787L40.2912 1.88953V1.00261H29.1522H29.1533ZM56.7959 4.71808H56.3431L56.3307 16.9307C56.3307 18.2605 57.0659 18.8452 58.1008 18.8556L58.1152 19.7624H53.6727V18.865C54.3158 18.865 55.4529 18.7462 55.4529 16.9526L55.4561 1.87077H54.1214V0.999479H60.2647L61.6924 7.37884L63.1181 0.999479L69.7132 0.997394V1.8468H68.3547L68.3775 18.8421H69.7122V19.7551H62.1307V18.8421H63.4779V4.7087H63.1202L60.3556 19.7635L59.9493 19.7551L56.7959 4.71808ZM100.475 1.87493C98.2162 1.87493 96.9362 4.72433 96.9362 7.53622H96.4648V0.984888L109.382 1.00052V7.53725H108.907C108.907 4.96092 107.817 1.87389 105.356 1.87389V18.8578H107.154V19.7551H98.7104V18.8578H100.473V1.87389L100.475 1.87493ZM110.288 1.86764H111.631V18.839H110.297V19.7551H117.404V18.839H116.492V17.9176L118.38 8.02814H118.738L118.766 18.839H117.856V19.7551H124.997V18.8546H123.626V1.88327H124.997V1.00052H117.859V1.88327H118.766V2.84836L116.877 12.2439H116.52V1.86764H117.429V1.00052H110.288V1.86764ZM46.0695 2.81084C46.0695 1.66441 46.6071 1.29233 47.1996 1.29233C47.793 1.29233 48.3244 1.66441 48.3244 2.81084V17.8634C48.3244 19.0109 47.793 19.4309 47.1996 19.4309C46.6071 19.4309 46.0695 19.0109 46.0695 17.8634V2.81084ZM41.1803 10.3981C41.1803 15.0391 43.0713 20.2533 47.1985 20.2533C51.331 20.2533 53.224 15.0964 53.224 10.4586C53.224 5.81761 51.3319 0.470037 47.1996 0.470037C43.0713 0.470037 41.1803 5.76029 41.1803 10.3981ZM75.4946 2.81084C75.4946 1.66441 76.0333 1.29233 76.6247 1.29233C77.2181 1.29233 77.7506 1.66441 77.7506 2.81084V17.8634C77.7506 19.0109 77.2181 19.4309 76.6247 19.4309C76.0333 19.4309 75.4946 19.0109 75.4946 17.8634V2.81084ZM70.6054 10.3981C70.6054 15.0391 72.4965 20.2533 76.6236 20.2533C80.7561 20.2533 82.6481 15.0964 82.6481 10.4586C82.6481 5.81761 80.757 0.470037 76.6247 0.470037C72.4964 0.470037 70.6065 5.75925 70.6065 10.3981H70.6054Z" fill="white"/>
</svg>
