<svg width="64" height="64" viewBox="0 0 64 64" fill="none" xmlns="http://www.w3.org/2000/svg">
<path d="M29.9211 63.9265C12.2501 62.7386 -1.11452 47.4435 0.0734447 29.9211C1.4099 12.2501 16.5565 -1.11452 34.2274 0.0734447C51.7499 1.4099 65.1145 16.5565 63.9265 34.2274C62.7386 51.7499 47.4435 65.1145 29.9211 63.9265Z" fill="#E30613"/>
<path fill-rule="evenodd" clip-rule="evenodd" d="M19.2002 49.3099H21.845V14.5963H19.2002V12.8L34.8114 12.8043C40.5772 12.8043 44.9103 16.1579 44.9103 21.327C44.9103 26.4598 42.5149 30.2251 37.7819 30.9014V31.4518C41.8676 31.3707 46.7202 34.7115 46.7202 39.9254C46.7202 47.4475 41.7645 51.2001 34.9536 51.2001H19.2002V49.3099ZM31.6141 14.6016V30.0533H33.3952C34.6815 30.0533 36.0668 29.2064 36.0668 25.3664V19.1136C36.0668 14.5984 34.5772 14.599 33.6315 14.5994L31.6141 14.6016ZM31.5852 31.9626L31.612 49.3109H33.5086L33.5349 49.311C34.5212 49.3135 36.9388 49.3198 36.9388 44.6261V36.5834C36.9388 33.1829 34.8835 31.9626 33.3911 31.9626H31.5852Z" fill="white"/>
</svg>
