<svg width="16" height="16" viewBox="0 0 16 16" fill="none" xmlns="http://www.w3.org/2000/svg">
<path d="M7.48026 15.9816C3.06252 15.6846 -0.27863 11.8609 0.0183612 7.48026C0.352476 3.06252 4.13911 -0.27863 8.55686 0.0183612C12.9375 0.352476 16.2786 4.13911 15.9816 8.55686C15.6846 12.9375 11.8609 16.2786 7.48026 15.9816Z" fill="#E30613"/>
<path fill-rule="evenodd" clip-rule="evenodd" d="M4.7998 12.3274H5.46101V3.64902H4.7998V3.19995L8.70259 3.20102C10.144 3.20102 11.2273 4.03942 11.2273 5.33168C11.2273 6.61488 10.6285 7.55622 9.44522 7.72528V7.86288C10.4667 7.84262 11.6798 8.67782 11.6798 9.98128C11.6798 11.8618 10.4409 12.8 8.73815 12.8H4.7998V12.3274ZM7.90328 3.65033V7.51327H8.34855C8.67013 7.51327 9.01645 7.30153 9.01645 6.34153V4.77833C9.01645 3.64955 8.64405 3.6497 8.40763 3.6498L7.90328 3.65033ZM7.89607 7.9906L7.90277 12.3277H8.3769L8.38347 12.3277C8.63005 12.3283 9.23445 12.3299 9.23445 11.1565V9.1458C9.23445 8.29567 8.72064 7.9906 8.34752 7.9906H7.89607Z" fill="white"/>
</svg>
