<svg width="16" height="16" viewBox="0 0 16 16" fill="none" xmlns="http://www.w3.org/2000/svg">
<path d="M8 16C12.4183 16 16 12.4183 16 8C16 3.58172 12.4183 0 8 0C3.58172 0 0 3.58172 0 8C0 12.4183 3.58172 16 8 16Z" fill="#252838"/>
<path fill-rule="evenodd" clip-rule="evenodd" d="M4.76859 12.5202L4 12.5145V12.9999H8.57687C10.5561 12.9999 11.995 12.0227 11.995 10.0633C11.995 8.70604 10.586 7.83557 9.39881 7.85695V7.71352C10.7745 7.53842 11.4702 6.5574 11.4702 5.22013C11.4702 3.87438 10.2114 3.00089 8.53555 3.00089L4 2.99988V3.50057L4.76838 3.49271L4.76859 12.5202ZM7.60619 12.5168L7.59809 8.00311L8.12335 7.99181C8.55561 7.99181 9.15395 8.30631 9.15395 9.19232V11.2863C9.15395 12.5191 8.43821 12.5175 8.15666 12.5169L8.13893 12.5168H7.60619ZM7.60849 3.49553V7.50493V7.50513H8.12566C8.49957 7.50513 8.90193 7.257 8.90193 6.25723V4.67041C8.90193 3.48425 8.46062 3.49092 8.18626 3.49507C8.17068 3.4953 8.15563 3.49553 8.14123 3.49553H7.60849Z" fill="white"/>
</svg>
