<svg width="16" height="16" viewBox="0 0 16 16" fill="none" xmlns="http://www.w3.org/2000/svg">
<rect width="16" height="16" rx="8" fill="#19323E"/>
<path d="M7.68087 2.9239V7.43189H8.20899C8.5904 7.43189 9.00115 7.18487 9.00115 6.06488V4.24114C9.00115 2.91208 8.55128 2.92453 8.27133 2.92453L7.68087 2.92515V2.9239ZM4 13.0487H4.78422V2.9239H4V2.39999L8.62891 2.40124C10.3385 2.40124 11.6234 3.37937 11.6234 4.88701C11.6234 6.38408 10.9131 7.4823 9.50972 7.67954V7.84005C10.7212 7.81641 12.16 8.79081 12.16 10.3115C12.16 12.5055 10.6906 13.6 8.67108 13.6H4V13.0487ZM7.67232 7.98877L7.68027 13.0487H8.24261C8.52989 13.0493 9.25971 13.0636 9.25971 11.6823V9.33654C9.25971 8.34471 8.6503 7.98877 8.20777 7.98877H7.67232Z" fill="white"/>
</svg>
