<svg width="32" height="32" viewBox="0 0 32 32" fill="none" xmlns="http://www.w3.org/2000/svg">
<path d="M16 32C24.8366 32 32 24.8366 32 16C32 7.16344 24.8366 0 16 0C7.16344 0 0 7.16344 0 16C0 24.8366 7.16344 32 16 32Z" fill="#635BF6"/>
<path fill-rule="evenodd" clip-rule="evenodd" d="M9.53718 25.0406L8 25.0293V26H17.1537C21.1121 26 23.9901 24.0456 23.9901 20.1268C23.9901 17.4123 21.1719 15.6714 18.7976 15.7141V15.4273C21.5489 15.0771 22.9404 13.115 22.9404 10.4405C22.9404 7.74901 20.4228 6.00202 17.0711 6.00202L8 6V7.00139L9.53676 6.98566L9.53718 25.0406ZM15.2125 25.0339L15.1963 16.0065L16.2468 15.9839C17.1113 15.9839 18.308 16.6129 18.308 18.3849V22.5728C18.308 25.0384 16.8765 25.0352 16.3134 25.034L16.278 25.0339H15.2125ZM15.217 6.99121V15.01V15.0104H16.2514C16.9992 15.0104 17.8039 14.5142 17.8039 12.5146V9.34098C17.8039 6.96866 16.9213 6.982 16.3726 6.99029C16.3414 6.99076 16.3113 6.99121 16.2825 6.99121H15.217Z" fill="white"/>
</svg>
