<svg width="16" height="16" viewBox="0 0 16 16" fill="none" xmlns="http://www.w3.org/2000/svg">
<path d="M8 16C12.4183 16 16 12.4183 16 8C16 3.58172 12.4183 0 8 0C3.58172 0 0 3.58172 0 8C0 12.4183 3.58172 16 8 16Z" fill="#635BF6"/>
<path fill-rule="evenodd" clip-rule="evenodd" d="M4.76859 12.5202L4 12.5146V12.9999H8.57687C10.5561 12.9999 11.995 12.0228 11.995 10.0633C11.995 8.7061 10.586 7.83563 9.39881 7.85701V7.71358C10.7745 7.53848 11.4702 6.55746 11.4702 5.22019C11.4702 3.87444 10.2114 3.00095 8.53555 3.00095L4 2.99994V3.50063L4.76838 3.49277L4.76859 12.5202ZM7.60619 12.5169L7.59809 8.00317L8.12335 7.99188C8.55561 7.99188 9.15395 8.30637 9.15395 9.19238V11.2863C9.15395 12.5191 8.43821 12.5176 8.15666 12.5169L8.13893 12.5169H7.60619ZM7.60849 3.49559V7.50499V7.5052H8.12566C8.49957 7.5052 8.90193 7.25707 8.90193 6.25729V4.67047C8.90193 3.48431 8.46062 3.49098 8.18626 3.49513C8.17068 3.49536 8.15563 3.49559 8.14123 3.49559H7.60849Z" fill="white"/>
</svg>
