<svg width="192" height="192" viewBox="0 0 192 192" fill="none" xmlns="http://www.w3.org/2000/svg">
<path d="M28.1177 28.1178C16.2019 40.0336 7.6326 54.8761 3.27111 71.1534C-1.09038 87.4307 -1.09038 104.569 3.27112 120.847C7.63262 137.124 16.2019 151.966 28.1178 163.882C40.0336 175.798 54.8761 184.367 71.1534 188.729L71.4018 187.802C55.2873 183.484 40.5932 175 28.7966 163.203C16.9999 151.407 8.51629 136.713 4.19841 120.598C-0.119473 104.484 -0.119477 87.5164 4.1984 71.4019C8.51628 55.2873 16.9999 40.5933 28.7966 28.7966L28.1177 28.1178Z" fill="#22313B"/>
<path d="M163.882 28.1177C154.968 19.2033 144.385 12.132 132.738 7.30756C121.09 2.48311 108.607 -5.54882e-06 96 -4.19629e-06L96 0.959995C108.481 0.959994 120.839 3.41827 132.37 8.19448C143.901 12.9707 154.378 19.9713 163.203 28.7966L163.882 28.1177Z" fill="#22313B"/>
<path d="M163.882 163.882C169.815 157.95 174.944 151.266 179.138 144L178.307 143.52C174.154 150.713 169.076 157.33 163.203 163.203L163.882 163.882Z" fill="#22313B"/>
</svg>
