<svg width="54" height="43" viewBox="0 0 54 43" fill="none" xmlns="http://www.w3.org/2000/svg">
<path d="M0 43V30.6313C0 27.0341 0.687023 23.3263 2.06107 19.5077C3.43511 15.6892 5.24886 12.092 7.50229 8.71622C9.75572 5.28507 12.229 2.37967 14.9221 0L25.9695 6.4749C23.9908 9.79537 22.287 13.3649 20.858 17.1834C19.429 21.0019 18.7145 25.4846 18.7145 30.6313V43H0ZM28.0305 43V30.6313C28.0305 27.0341 28.7176 23.3263 30.0916 19.5077C31.4656 15.6892 33.2794 12.092 35.5328 8.71622C37.7863 5.28507 40.2595 2.37967 42.9527 0L54 6.4749C52.0214 9.79537 50.3176 13.3649 48.8885 17.1834C47.4595 21.0019 46.745 25.4846 46.745 30.6313V43H28.0305Z" fill="#E30613"/>
</svg>
