<svg width="416" height="416" viewBox="0 0 416 416" fill="none" xmlns="http://www.w3.org/2000/svg">
<g filter="url(#filter0_d_2001_309)">
<circle cx="199" cy="208" r="190" fill="white"/>
</g>
<g filter="url(#filter1_d_2001_309)">
<path d="M405 208C407.761 208 410.006 205.761 409.943 203C409.072 164.469 398.138 126.834 378.228 93.8343C376.801 91.4699 373.706 90.7818 371.375 92.2614L203.531 198.778C199.305 201.46 201.205 208 206.21 208H405Z" fill="#3C92FC"/>
</g>
<path d="M125.287 260.64L131.567 256H136.647V284H131.047V262.72L125.287 266.88V260.64ZM141.419 260.64L147.699 256H152.779V284H147.179V262.72L141.419 266.88V260.64ZM160.632 278.4C161.619 278.4 162.446 278.76 163.112 279.48C163.779 280.2 164.112 281.213 164.112 282.52C164.112 284.387 163.606 285.947 162.592 287.2C161.579 288.453 160.272 289.187 158.672 289.4V287.2C159.286 287.013 159.766 286.653 160.112 286.12C160.486 285.613 160.672 285.027 160.672 284.36H160.432C159.606 284.36 158.899 284.067 158.312 283.48C157.752 282.893 157.472 282.187 157.472 281.36C157.472 280.533 157.766 279.84 158.352 279.28C158.966 278.693 159.726 278.4 160.632 278.4ZM174.333 284H167.773L180.053 262.2V261.4H165.693V256H186.133V262.96L174.333 284ZM203.476 284H198.436V263.44H206.996L211.316 275.36H212.116L216.436 263.44H224.836V284H219.836V268.36H218.876L214.676 279.88H208.596L204.396 268.36H203.436L203.476 284ZM233.317 284H228.077L233.477 263.44H243.797L249.197 284H243.877L239.877 268H237.317L233.317 284ZM266.54 271.36V263.44H271.66V284H266.54V275.96H257.58V284H252.42V263.44H257.58V271.36H266.54ZM84.0645 315H80.9893V302.625H82.6261L82.6013 313.487H83.2213L88.9997 302.625H92.0749V315H90.4629L90.4877 304.113H89.8677L84.0645 315ZM104.789 307.957V302.625H106.426V315H104.789V309.47H97.4238V315H95.787V302.625H97.4238V307.957H104.789ZM118.085 308.552C118.696 308.734 119.234 309.073 119.697 309.569C120.176 310.065 120.416 310.718 120.416 311.528C120.416 312.553 120.052 313.388 119.325 314.033C118.597 314.678 117.572 315 116.249 315H110.149V302.625H116.175C117.332 302.625 118.242 302.922 118.903 303.518C119.581 304.096 119.92 304.84 119.92 305.75C119.92 306.411 119.738 306.973 119.374 307.436C119.027 307.882 118.597 308.213 118.085 308.428V308.552ZM111.785 304.113V307.907H116.051C116.729 307.907 117.258 307.734 117.638 307.386C118.035 307.023 118.233 306.56 118.233 305.998C118.233 305.419 118.043 304.964 117.663 304.634C117.283 304.286 116.745 304.113 116.051 304.113H111.785ZM116.125 313.487C116.952 313.487 117.589 313.297 118.035 312.917C118.498 312.537 118.729 312.041 118.729 311.429C118.729 310.801 118.498 310.296 118.035 309.916C117.589 309.536 116.952 309.346 116.125 309.346H111.785V313.487H116.125ZM128.285 315.248C127.194 315.248 126.202 314.975 125.309 314.43C124.433 313.884 123.738 313.123 123.226 312.148C122.73 311.173 122.482 310.057 122.482 308.8C122.482 307.543 122.73 306.427 123.226 305.452C123.738 304.477 124.433 303.724 125.309 303.195C126.202 302.65 127.194 302.377 128.285 302.377C129.211 302.377 130.079 302.6 130.889 303.046C131.716 303.476 132.36 304.096 132.823 304.906H132.947V302.625H134.51V315H132.947V312.718H132.823C132.36 313.512 131.716 314.132 130.889 314.578C130.079 315.025 129.211 315.248 128.285 315.248ZM128.582 313.735C129.426 313.735 130.17 313.537 130.814 313.14C131.476 312.727 131.988 312.148 132.352 311.404C132.716 310.66 132.898 309.792 132.898 308.8C132.898 307.808 132.716 306.94 132.352 306.196C131.988 305.452 131.476 304.882 130.814 304.485C130.17 304.071 129.426 303.865 128.582 303.865C127.243 303.865 126.169 304.311 125.358 305.204C124.548 306.097 124.143 307.295 124.143 308.8C124.143 310.305 124.548 311.503 125.358 312.396C126.169 313.289 127.243 313.735 128.582 313.735ZM138.689 315H137.002L140.648 302.625H145.137L148.782 315H147.046L143.897 304.113H141.863L138.689 315ZM154.347 315H151.272V302.625H152.909L152.884 313.487H153.504L159.283 302.625H162.358V315H160.746L160.771 304.113H160.151L154.347 315ZM173.559 302.625L176.734 313.487H178.123V317.976H176.56V315H166.144V317.976H164.582V313.487H165.995L169.145 302.625H173.559ZM172.319 304.113H170.36L167.707 313.487H174.998L172.319 304.113ZM185.306 315.248C184.115 315.248 183.049 314.975 182.106 314.43C181.164 313.867 180.42 313.099 179.874 312.123C179.345 311.131 179.081 310.023 179.081 308.8C179.081 307.577 179.345 306.477 179.874 305.502C180.42 304.526 181.164 303.766 182.106 303.22C183.049 302.658 184.115 302.377 185.306 302.377C186.496 302.377 187.562 302.658 188.505 303.22C189.447 303.766 190.183 304.526 190.712 305.502C191.258 306.477 191.53 307.577 191.53 308.8C191.53 310.023 191.258 311.131 190.712 312.123C190.183 313.099 189.447 313.867 188.505 314.43C187.562 314.975 186.496 315.248 185.306 315.248ZM185.306 313.735C186.198 313.735 186.992 313.529 187.686 313.115C188.381 312.702 188.918 312.123 189.298 311.379C189.679 310.635 189.869 309.775 189.869 308.8C189.869 307.825 189.679 306.965 189.298 306.221C188.918 305.477 188.381 304.898 187.686 304.485C186.992 304.071 186.198 303.865 185.306 303.865C184.413 303.865 183.619 304.071 182.925 304.485C182.23 304.898 181.693 305.477 181.313 306.221C180.933 306.965 180.742 307.825 180.742 308.8C180.742 309.775 180.933 310.635 181.313 311.379C181.693 312.123 182.23 312.702 182.925 313.115C183.619 313.529 184.413 313.735 185.306 313.735ZM202.39 308.552C203.002 308.734 203.539 309.073 204.002 309.569C204.482 310.065 204.721 310.718 204.721 311.528C204.721 312.553 204.358 313.388 203.63 314.033C202.903 314.678 201.878 315 200.555 315H194.454V302.625H200.481C201.638 302.625 202.547 302.922 203.209 303.518C203.886 304.096 204.225 304.84 204.225 305.75C204.225 306.411 204.043 306.973 203.68 307.436C203.333 307.882 202.903 308.213 202.39 308.428V308.552ZM196.091 304.113V307.907H200.357C201.034 307.907 201.563 307.734 201.944 307.386C202.341 307.023 202.539 306.56 202.539 305.998C202.539 305.419 202.349 304.964 201.969 304.634C201.588 304.286 201.051 304.113 200.357 304.113H196.091ZM200.431 313.487C201.258 313.487 201.894 313.297 202.341 312.917C202.803 312.537 203.035 312.041 203.035 311.429C203.035 310.801 202.803 310.296 202.341 309.916C201.894 309.536 201.258 309.346 200.431 309.346H196.091V313.487H200.431ZM221.838 308.552C222.45 308.734 222.987 309.073 223.45 309.569C223.929 310.065 224.169 310.718 224.169 311.528C224.169 312.553 223.805 313.388 223.078 314.033C222.35 314.678 221.325 315 220.003 315H213.902V302.625H219.928C221.086 302.625 221.995 302.922 222.656 303.518C223.334 304.096 223.673 304.84 223.673 305.75C223.673 306.411 223.491 306.973 223.127 307.436C222.78 307.882 222.35 308.213 221.838 308.428V308.552ZM215.539 304.113V307.907H219.804C220.482 307.907 221.011 307.734 221.391 307.386C221.788 307.023 221.987 306.56 221.987 305.998C221.987 305.419 221.796 304.964 221.416 304.634C221.036 304.286 220.499 304.113 219.804 304.113H215.539ZM219.879 313.487C220.705 313.487 221.342 313.297 221.788 312.917C222.251 312.537 222.483 312.041 222.483 311.429C222.483 310.801 222.251 310.296 221.788 309.916C221.342 309.536 220.705 309.346 219.879 309.346H215.539V313.487H219.879ZM240.045 297.64C241.285 297.64 242.377 297.88 243.319 298.359C244.261 298.822 244.989 299.475 245.501 300.318C246.014 301.145 246.27 302.104 246.27 303.195C246.27 304.286 246.014 305.254 245.501 306.097C244.989 306.94 244.261 307.601 243.319 308.081C242.377 308.544 241.285 308.775 240.045 308.775H235.606V315H233.87V297.64H240.045ZM240.045 307.089C241.451 307.089 242.542 306.742 243.319 306.047C244.096 305.353 244.485 304.402 244.485 303.195C244.485 301.988 244.096 301.046 243.319 300.368C242.542 299.674 241.451 299.326 240.045 299.326H235.606V307.089H240.045ZM253.748 315.248C252.557 315.248 251.491 314.975 250.549 314.43C249.606 313.867 248.862 313.099 248.317 312.123C247.788 311.131 247.523 310.023 247.523 308.8C247.523 307.577 247.788 306.477 248.317 305.502C248.862 304.526 249.606 303.766 250.549 303.22C251.491 302.658 252.557 302.377 253.748 302.377C254.938 302.377 256.005 302.658 256.947 303.22C257.889 303.766 258.625 304.526 259.154 305.502C259.7 306.477 259.973 307.577 259.973 308.8C259.973 310.023 259.7 311.131 259.154 312.123C258.625 313.099 257.889 313.867 256.947 314.43C256.005 314.975 254.938 315.248 253.748 315.248ZM253.748 313.735C254.641 313.735 255.434 313.529 256.129 313.115C256.823 312.702 257.36 312.123 257.741 311.379C258.121 310.635 258.311 309.775 258.311 308.8C258.311 307.825 258.121 306.965 257.741 306.221C257.36 305.477 256.823 304.898 256.129 304.485C255.434 304.071 254.641 303.865 253.748 303.865C252.855 303.865 252.061 304.071 251.367 304.485C250.673 304.898 250.135 305.477 249.755 306.221C249.375 306.965 249.185 307.825 249.185 308.8C249.185 309.775 249.375 310.635 249.755 311.379C250.135 312.123 250.673 312.702 251.367 313.115C252.061 313.529 252.855 313.735 253.748 313.735ZM268.377 315.248C267.203 315.248 266.137 314.967 265.178 314.405C264.219 313.843 263.467 313.074 262.921 312.098C262.376 311.106 262.103 310.007 262.103 308.8C262.103 307.593 262.376 306.502 262.921 305.526C263.467 304.534 264.219 303.766 265.178 303.22C266.137 302.658 267.203 302.377 268.377 302.377C269.865 302.377 271.122 302.807 272.147 303.666C273.188 304.51 273.874 305.559 274.205 306.816H272.544C272.246 305.94 271.725 305.229 270.981 304.683C270.254 304.138 269.386 303.865 268.377 303.865C267.484 303.865 266.682 304.08 265.972 304.51C265.277 304.923 264.732 305.502 264.335 306.246C263.954 306.99 263.764 307.841 263.764 308.8C263.764 309.759 263.954 310.619 264.335 311.379C264.732 312.123 265.277 312.702 265.972 313.115C266.682 313.529 267.484 313.735 268.377 313.735C269.386 313.735 270.254 313.462 270.981 312.917C271.725 312.371 272.246 311.66 272.544 310.784H274.205C273.874 312.057 273.188 313.123 272.147 313.983C271.122 314.826 269.865 315.248 268.377 315.248ZM282.497 315.248C281.323 315.248 280.256 314.967 279.297 314.405C278.339 313.843 277.586 313.074 277.041 312.098C276.495 311.106 276.222 310.007 276.222 308.8C276.222 307.593 276.495 306.502 277.041 305.526C277.586 304.534 278.339 303.766 279.297 303.22C280.256 302.658 281.323 302.377 282.497 302.377C283.985 302.377 285.241 302.807 286.266 303.666C287.308 304.51 287.994 305.559 288.325 306.816H286.663C286.365 305.94 285.845 305.229 285.101 304.683C284.373 304.138 283.505 303.865 282.497 303.865C281.604 303.865 280.802 304.08 280.091 304.51C279.397 304.923 278.851 305.502 278.454 306.246C278.074 306.99 277.884 307.841 277.884 308.8C277.884 309.759 278.074 310.619 278.454 311.379C278.851 312.123 279.397 312.702 280.091 313.115C280.802 313.529 281.604 313.735 282.497 313.735C283.505 313.735 284.373 313.462 285.101 312.917C285.845 312.371 286.365 311.66 286.663 310.784H288.325C287.994 312.057 287.308 313.123 286.266 313.983C285.241 314.826 283.985 315.248 282.497 315.248ZM294.211 315H291.135V302.625H292.772L292.747 313.487H293.367L299.146 302.625H302.221V315H300.609L300.634 304.113H300.014L294.211 315ZM309.008 315H305.933V302.625H307.57L307.545 313.487H308.165L313.943 302.625H317.019V315H315.407L315.431 304.113H314.811L309.008 315Z" fill="#4A4A4A"/>
<path d="M326.904 154.91C329.297 154.91 331.392 155.372 333.187 156.297C334.982 157.194 336.369 158.432 337.348 160.01C338.328 161.56 338.817 163.301 338.817 165.232C338.817 168.034 337.58 171.012 335.104 174.167L327.434 184H320.661L327.638 175.35H326.822C324.456 175.35 322.375 174.915 320.58 174.045C318.812 173.147 317.452 171.937 316.5 170.414C315.548 168.863 315.072 167.122 315.072 165.191C315.072 163.26 315.548 161.519 316.5 159.969C317.479 158.391 318.866 157.154 320.661 156.256C322.456 155.358 324.537 154.91 326.904 154.91ZM326.944 170.332C328.767 170.332 330.208 169.856 331.269 168.904C332.357 167.925 332.901 166.66 332.901 165.11C332.901 163.586 332.357 162.349 331.269 161.397C330.208 160.418 328.767 159.928 326.944 159.928C325.122 159.928 323.667 160.418 322.579 161.397C321.518 162.349 320.988 163.586 320.988 165.11C320.988 166.66 321.518 167.925 322.579 168.904C323.667 169.856 325.122 170.332 326.944 170.332ZM348.622 168.414C347.317 168.414 346.147 168.115 345.113 167.517C344.107 166.891 343.318 166.062 342.747 165.028C342.203 163.994 341.931 162.866 341.931 161.642C341.931 160.418 342.203 159.289 342.747 158.255C343.318 157.222 344.107 156.406 345.113 155.807C346.147 155.209 347.317 154.91 348.622 154.91C349.901 154.91 351.043 155.209 352.049 155.807C353.083 156.406 353.872 157.222 354.416 158.255C354.987 159.289 355.273 160.418 355.273 161.642C355.273 162.866 354.987 163.994 354.416 165.028C353.872 166.062 353.083 166.891 352.049 167.517C351.043 168.115 349.901 168.414 348.622 168.414ZM350.173 184H345.685L362.821 155.44H367.309L350.173 184ZM348.622 164.865C349.493 164.865 350.2 164.566 350.744 163.967C351.288 163.369 351.56 162.594 351.56 161.642C351.56 160.69 351.288 159.914 350.744 159.316C350.2 158.718 349.493 158.418 348.622 158.418C347.725 158.418 347.004 158.718 346.46 159.316C345.943 159.914 345.685 160.69 345.685 161.642C345.685 162.594 345.943 163.369 346.46 163.967C347.004 164.566 347.725 164.865 348.622 164.865ZM364.412 184.53C363.106 184.53 361.937 184.231 360.903 183.633C359.897 183.034 359.108 182.218 358.537 181.185C357.993 180.151 357.721 179.022 357.721 177.798C357.721 176.574 357.993 175.446 358.537 174.412C359.108 173.378 359.897 172.562 360.903 171.964C361.937 171.338 363.106 171.026 364.412 171.026C365.69 171.026 366.833 171.338 367.839 171.964C368.873 172.562 369.675 173.378 370.246 174.412C370.817 175.446 371.103 176.574 371.103 177.798C371.103 179.022 370.817 180.151 370.246 181.185C369.675 182.191 368.873 183.007 367.839 183.633C366.833 184.231 365.69 184.53 364.412 184.53ZM364.412 181.022C365.309 181.022 366.017 180.722 366.533 180.124C367.077 179.526 367.349 178.75 367.349 177.798C367.349 176.846 367.077 176.071 366.533 175.473C366.017 174.874 365.309 174.575 364.412 174.575C363.514 174.575 362.793 174.874 362.249 175.473C361.733 176.071 361.474 176.846 361.474 177.798C361.474 178.75 361.733 179.526 362.249 180.124C362.793 180.722 363.514 181.022 364.412 181.022Z" fill="white"/>
<defs>
<filter id="filter0_d_2001_309" x="5" y="18" width="388" height="388" filterUnits="userSpaceOnUse" color-interpolation-filters="sRGB">
<feFlood flood-opacity="0" result="BackgroundImageFix"/>
<feColorMatrix in="SourceAlpha" type="matrix" values="0 0 0 0 0 0 0 0 0 0 0 0 0 0 0 0 0 0 127 0" result="hardAlpha"/>
<feOffset dy="4"/>
<feGaussianBlur stdDeviation="2"/>
<feComposite in2="hardAlpha" operator="out"/>
<feColorMatrix type="matrix" values="0 0 0 0 0 0 0 0 0 0 0 0 0 0 0 0 0 0 0.25 0"/>
<feBlend mode="normal" in2="BackgroundImageFix" result="effect1_dropShadow_2001_309"/>
<feBlend mode="normal" in="SourceGraphic" in2="effect1_dropShadow_2001_309" result="shape"/>
</filter>
<filter id="filter1_d_2001_309" x="197.201" y="91.4834" width="216.744" height="124.517" filterUnits="userSpaceOnUse" color-interpolation-filters="sRGB">
<feFlood flood-opacity="0" result="BackgroundImageFix"/>
<feColorMatrix in="SourceAlpha" type="matrix" values="0 0 0 0 0 0 0 0 0 0 0 0 0 0 0 0 0 0 127 0" result="hardAlpha"/>
<feOffset dy="4"/>
<feGaussianBlur stdDeviation="2"/>
<feComposite in2="hardAlpha" operator="out"/>
<feColorMatrix type="matrix" values="0 0 0 0 0 0 0 0 0 0 0 0 0 0 0 0 0 0 0.25 0"/>
<feBlend mode="normal" in2="BackgroundImageFix" result="effect1_dropShadow_2001_309"/>
<feBlend mode="normal" in="SourceGraphic" in2="effect1_dropShadow_2001_309" result="shape"/>
</filter>
</defs>
</svg>
