<svg width="420" height="416" viewBox="0 0 420 416" fill="none" xmlns="http://www.w3.org/2000/svg">
<g filter="url(#filter0_d_836_920)">
<circle cx="208" cy="208" r="190" fill="white"/>
</g>
<g filter="url(#filter1_d_836_920)">
<path d="M408 208C412.418 208 416.016 204.417 415.846 200.002C414.35 161.113 401.968 123.363 380.033 91.0867C358.098 58.8101 327.557 33.4009 291.95 17.6938C287.907 15.9106 283.251 17.9367 281.625 22.0447L212.333 197.055C210.254 202.306 214.124 208 219.772 208H408Z" fill="#095FF0"/>
</g>
<path d="M148.308 273.56H152.148V278.68H148.308V284H142.828V278.68H127.788V272.48L137.188 256H143.388L133.828 272.76V273.56H142.828V265.4H148.308V273.56ZM153.075 260.64L159.355 256H164.435V284H158.835V262.72L153.075 266.88V260.64ZM172.288 278.4C173.275 278.4 174.101 278.76 174.768 279.48C175.435 280.2 175.768 281.213 175.768 282.52C175.768 284.387 175.261 285.947 174.248 287.2C173.235 288.453 171.928 289.187 170.328 289.4V287.2C170.941 287.013 171.421 286.653 171.768 286.12C172.141 285.613 172.328 285.027 172.328 284.36H172.088C171.261 284.36 170.555 284.067 169.968 283.48C169.408 282.893 169.128 282.187 169.128 281.36C169.128 280.533 169.421 279.84 170.008 279.28C170.621 278.693 171.381 278.4 172.288 278.4ZM187.326 255.48C189.673 255.48 191.726 255.933 193.486 256.84C195.246 257.72 196.606 258.933 197.566 260.48C198.526 262 199.006 263.707 199.006 265.6C199.006 268.347 197.793 271.267 195.366 274.36L187.846 284H181.206L188.046 275.52H187.246C184.926 275.52 182.886 275.093 181.126 274.24C179.393 273.36 178.059 272.173 177.126 270.68C176.193 269.16 175.726 267.453 175.726 265.56C175.726 263.667 176.193 261.96 177.126 260.44C178.086 258.893 179.446 257.68 181.206 256.8C182.966 255.92 185.006 255.48 187.326 255.48ZM187.366 270.6C189.153 270.6 190.566 270.133 191.606 269.2C192.673 268.24 193.206 267 193.206 265.48C193.206 263.987 192.673 262.773 191.606 261.84C190.566 260.88 189.153 260.4 187.366 260.4C185.579 260.4 184.153 260.88 183.086 261.84C182.046 262.773 181.526 263.987 181.526 265.48C181.526 267 182.046 268.24 183.086 269.2C184.153 270.133 185.579 270.6 187.366 270.6ZM218.374 284H213.334V263.44H221.894L226.214 275.36H227.014L231.334 263.44H239.734V284H234.734V268.36H233.774L229.574 279.88H223.494L219.294 268.36H218.334L218.374 284ZM248.215 284H242.975L248.375 263.44H258.695L264.095 284H258.775L254.775 268H252.215L248.215 284ZM281.438 271.36V263.44H286.558V284H281.438V275.96H272.478V284H267.318V263.44H272.478V271.36H281.438ZM81.2395 313H79.6698V301.132H89.754V313H88.1843V302.559H81.2395V313ZM104.458 307.506H94.183C94.2782 308.774 94.73 309.805 95.5387 310.598C96.3473 311.391 97.3542 311.787 98.5592 311.787C99.5423 311.787 100.383 311.557 101.08 311.097C101.778 310.622 102.277 309.987 102.579 309.195H104.196C103.831 310.368 103.149 311.335 102.151 312.096C101.152 312.857 99.9545 313.238 98.5592 313.238C97.4493 313.238 96.4345 312.968 95.5149 312.429C94.6111 311.89 93.8897 311.153 93.3506 310.217C92.8273 309.266 92.5657 308.212 92.5657 307.054C92.5657 305.897 92.8273 304.85 93.3506 303.915C93.8897 302.979 94.6111 302.242 95.5149 301.703C96.4345 301.164 97.4493 300.894 98.5592 300.894C99.6533 300.894 100.652 301.164 101.556 301.703C102.46 302.226 103.165 302.963 103.673 303.915C104.196 304.866 104.458 305.944 104.458 307.149V307.506ZM98.5592 302.321C97.4176 302.321 96.4504 302.678 95.6576 303.391C94.8807 304.105 94.405 305.04 94.2306 306.198H102.84C102.698 305.072 102.238 304.145 101.461 303.415C100.684 302.686 99.7167 302.321 98.5592 302.321ZM115.896 306.245V301.132H117.466V313H115.896V307.696H108.832V313H107.263V301.132H108.832V306.245H115.896ZM126.292 313.238C125.166 313.238 124.144 312.968 123.224 312.429C122.304 311.89 121.583 311.153 121.06 310.217C120.536 309.266 120.275 308.212 120.275 307.054C120.275 305.897 120.536 304.85 121.06 303.915C121.583 302.963 122.304 302.226 123.224 301.703C124.144 301.164 125.166 300.894 126.292 300.894C127.719 300.894 128.924 301.306 129.907 302.131C130.906 302.939 131.564 303.946 131.881 305.151H130.288C130.002 304.311 129.503 303.629 128.789 303.106C128.092 302.583 127.259 302.321 126.292 302.321C125.436 302.321 124.667 302.527 123.985 302.939C123.319 303.336 122.796 303.891 122.415 304.604C122.051 305.318 121.868 306.134 121.868 307.054C121.868 307.974 122.051 308.798 122.415 309.528C122.796 310.241 123.319 310.796 123.985 311.192C124.667 311.589 125.436 311.787 126.292 311.787C127.259 311.787 128.092 311.525 128.789 311.002C129.503 310.479 130.002 309.797 130.288 308.957H131.881C131.564 310.178 130.906 311.2 129.907 312.025C128.924 312.834 127.719 313.238 126.292 313.238ZM137.526 313H134.577V301.132H136.146L136.123 311.549H136.717L142.259 301.132H145.208V313H143.662L143.686 302.559H143.091L137.526 313ZM153.977 313.238C152.835 313.238 151.812 312.976 150.908 312.453C150.005 311.914 149.291 311.177 148.768 310.241C148.261 309.29 148.007 308.227 148.007 307.054C148.007 305.881 148.261 304.826 148.768 303.891C149.291 302.955 150.005 302.226 150.908 301.703C151.812 301.164 152.835 300.894 153.977 300.894C155.118 300.894 156.141 301.164 157.045 301.703C157.948 302.226 158.654 302.955 159.161 303.891C159.685 304.826 159.946 305.881 159.946 307.054C159.946 308.227 159.685 309.29 159.161 310.241C158.654 311.177 157.948 311.914 157.045 312.453C156.141 312.976 155.118 313.238 153.977 313.238ZM153.977 311.787C154.833 311.787 155.594 311.589 156.26 311.192C156.926 310.796 157.441 310.241 157.806 309.528C158.17 308.814 158.353 307.99 158.353 307.054C158.353 306.119 158.17 305.294 157.806 304.581C157.441 303.867 156.926 303.312 156.26 302.916C155.594 302.519 154.833 302.321 153.977 302.321C153.12 302.321 152.359 302.519 151.693 302.916C151.027 303.312 150.512 303.867 150.147 304.581C149.783 305.294 149.6 306.119 149.6 307.054C149.6 307.99 149.783 308.814 150.147 309.528C150.512 310.241 151.027 310.796 151.693 311.192C152.359 311.589 153.12 311.787 153.977 311.787ZM171.384 306.245V301.132H172.953V313H171.384V307.696H164.32V313H162.75V301.132H164.32V306.245H171.384ZM187.654 307.506H177.38C177.475 308.774 177.927 309.805 178.735 310.598C179.544 311.391 180.551 311.787 181.756 311.787C182.739 311.787 183.579 311.557 184.277 311.097C184.975 310.622 185.474 309.987 185.775 309.195H187.393C187.028 310.368 186.346 311.335 185.347 312.096C184.348 312.857 183.151 313.238 181.756 313.238C180.646 313.238 179.631 312.968 178.711 312.429C177.808 311.89 177.086 311.153 176.547 310.217C176.024 309.266 175.762 308.212 175.762 307.054C175.762 305.897 176.024 304.85 176.547 303.915C177.086 302.979 177.808 302.242 178.711 301.703C179.631 301.164 180.646 300.894 181.756 300.894C182.85 300.894 183.849 301.164 184.753 301.703C185.656 302.226 186.362 302.963 186.869 303.915C187.393 304.866 187.654 305.944 187.654 307.149V307.506ZM181.756 302.321C180.614 302.321 179.647 302.678 178.854 303.391C178.077 304.105 177.602 305.04 177.427 306.198H186.037C185.894 305.072 185.434 304.145 184.657 303.415C183.88 302.686 182.913 302.321 181.756 302.321ZM190.459 317.519V301.132H191.958V303.32H192.076C192.536 302.543 193.155 301.948 193.932 301.536C194.709 301.108 195.541 300.894 196.429 300.894C197.491 300.894 198.443 301.156 199.283 301.679C200.139 302.186 200.805 302.908 201.281 303.843C201.772 304.779 202.018 305.849 202.018 307.054C202.018 308.259 201.772 309.329 201.281 310.265C200.805 311.2 200.139 311.93 199.283 312.453C198.443 312.976 197.491 313.238 196.429 313.238C195.541 313.238 194.709 313.024 193.932 312.596C193.17 312.168 192.576 311.589 192.148 310.859H192.029V317.519H190.459ZM196.143 311.787C197.444 311.787 198.474 311.359 199.235 310.503C200.012 309.646 200.401 308.497 200.401 307.054C200.401 305.611 200.012 304.462 199.235 303.605C198.474 302.749 197.444 302.321 196.143 302.321C195.335 302.321 194.621 302.519 194.003 302.916C193.385 303.296 192.901 303.843 192.552 304.557C192.203 305.27 192.029 306.103 192.029 307.054C192.029 308.497 192.409 309.646 193.17 310.503C193.932 311.359 194.923 311.787 196.143 311.787ZM210.022 313.238C208.88 313.238 207.857 312.976 206.954 312.453C206.05 311.914 205.336 311.177 204.813 310.241C204.306 309.29 204.052 308.227 204.052 307.054C204.052 305.881 204.306 304.826 204.813 303.891C205.336 302.955 206.05 302.226 206.954 301.703C207.857 301.164 208.88 300.894 210.022 300.894C211.163 300.894 212.186 301.164 213.09 301.703C213.994 302.226 214.699 302.955 215.206 303.891C215.73 304.826 215.991 305.881 215.991 307.054C215.991 308.227 215.73 309.29 215.206 310.241C214.699 311.177 213.994 311.914 213.09 312.453C212.186 312.976 211.163 313.238 210.022 313.238ZM210.022 311.787C210.878 311.787 211.639 311.589 212.305 311.192C212.971 310.796 213.486 310.241 213.851 309.528C214.215 308.814 214.398 307.99 214.398 307.054C214.398 306.119 214.215 305.294 213.851 304.581C213.486 303.867 212.971 303.312 212.305 302.916C211.639 302.519 210.878 302.321 210.022 302.321C209.165 302.321 208.404 302.519 207.738 302.916C207.072 303.312 206.557 303.867 206.192 304.581C205.828 305.294 205.645 306.119 205.645 307.054C205.645 307.99 205.828 308.814 206.192 309.528C206.557 310.241 207.072 310.796 207.738 311.192C208.404 311.589 209.165 311.787 210.022 311.787ZM226.406 306.816C226.993 306.991 227.508 307.316 227.952 307.791C228.412 308.267 228.642 308.893 228.642 309.67C228.642 310.653 228.293 311.454 227.595 312.072C226.898 312.691 225.914 313 224.646 313H218.795V301.132H224.575C225.685 301.132 226.557 301.417 227.191 301.988C227.841 302.543 228.166 303.257 228.166 304.129C228.166 304.763 227.992 305.302 227.643 305.746C227.31 306.174 226.898 306.491 226.406 306.697V306.816ZM220.365 302.559V306.198H224.456C225.106 306.198 225.613 306.031 225.978 305.698C226.358 305.35 226.549 304.906 226.549 304.367C226.549 303.812 226.366 303.376 226.002 303.058C225.637 302.725 225.122 302.559 224.456 302.559H220.365ZM224.527 311.549C225.32 311.549 225.93 311.367 226.358 311.002C226.802 310.637 227.024 310.162 227.024 309.575C227.024 308.973 226.802 308.489 226.358 308.124C225.93 307.76 225.32 307.577 224.527 307.577H220.365V311.549H224.527ZM245.057 306.816C245.643 306.991 246.159 307.316 246.603 307.791C247.062 308.267 247.292 308.893 247.292 309.67C247.292 310.653 246.944 311.454 246.246 312.072C245.548 312.691 244.565 313 243.297 313H237.446V301.132H243.225C244.335 301.132 245.207 301.417 245.842 301.988C246.492 302.543 246.817 303.257 246.817 304.129C246.817 304.763 246.642 305.302 246.293 305.746C245.961 306.174 245.548 306.491 245.057 306.697V306.816ZM239.016 302.559V306.198H243.106C243.757 306.198 244.264 306.031 244.629 305.698C245.009 305.35 245.199 304.906 245.199 304.367C245.199 303.812 245.017 303.376 244.652 303.058C244.288 302.725 243.772 302.559 243.106 302.559H239.016ZM243.178 311.549C243.971 311.549 244.581 311.367 245.009 311.002C245.453 310.637 245.675 310.162 245.675 309.575C245.675 308.973 245.453 308.489 245.009 308.124C244.581 307.76 243.971 307.577 243.178 307.577H239.016V311.549H243.178ZM262.518 296.351C263.707 296.351 264.754 296.581 265.658 297.041C266.561 297.485 267.259 298.111 267.751 298.92C268.242 299.713 268.488 300.632 268.488 301.679C268.488 302.725 268.242 303.653 267.751 304.462C267.259 305.27 266.561 305.905 265.658 306.364C264.754 306.808 263.707 307.03 262.518 307.03H258.261V313H256.596V296.351H262.518ZM262.518 305.413C263.866 305.413 264.912 305.08 265.658 304.414C266.403 303.748 266.776 302.836 266.776 301.679C266.776 300.521 266.403 299.618 265.658 298.968C264.912 298.302 263.866 297.969 262.518 297.969H258.261V305.413H262.518ZM275.659 313.238C274.518 313.238 273.495 312.976 272.591 312.453C271.687 311.914 270.974 311.177 270.45 310.241C269.943 309.29 269.689 308.227 269.689 307.054C269.689 305.881 269.943 304.826 270.45 303.891C270.974 302.955 271.687 302.226 272.591 301.703C273.495 301.164 274.518 300.894 275.659 300.894C276.801 300.894 277.823 301.164 278.727 301.703C279.631 302.226 280.337 302.955 280.844 303.891C281.367 304.826 281.629 305.881 281.629 307.054C281.629 308.227 281.367 309.29 280.844 310.241C280.337 311.177 279.631 311.914 278.727 312.453C277.823 312.976 276.801 313.238 275.659 313.238ZM275.659 311.787C276.515 311.787 277.276 311.589 277.942 311.192C278.608 310.796 279.124 310.241 279.488 309.528C279.853 308.814 280.035 307.99 280.035 307.054C280.035 306.119 279.853 305.294 279.488 304.581C279.124 303.867 278.608 303.312 277.942 302.916C277.276 302.519 276.515 302.321 275.659 302.321C274.803 302.321 274.042 302.519 273.376 302.916C272.71 303.312 272.195 303.867 271.83 304.581C271.465 305.294 271.283 306.119 271.283 307.054C271.283 307.99 271.465 308.814 271.83 309.528C272.195 310.241 272.71 310.796 273.376 311.192C274.042 311.589 274.803 311.787 275.659 311.787ZM289.689 313.238C288.563 313.238 287.54 312.968 286.621 312.429C285.701 311.89 284.98 311.153 284.457 310.217C283.933 309.266 283.672 308.212 283.672 307.054C283.672 305.897 283.933 304.85 284.457 303.915C284.98 302.963 285.701 302.226 286.621 301.703C287.54 301.164 288.563 300.894 289.689 300.894C291.116 300.894 292.321 301.306 293.304 302.131C294.303 302.939 294.961 303.946 295.278 305.151H293.685C293.399 304.311 292.9 303.629 292.186 303.106C291.489 302.583 290.656 302.321 289.689 302.321C288.833 302.321 288.064 302.527 287.382 302.939C286.716 303.336 286.193 303.891 285.812 304.604C285.447 305.318 285.265 306.134 285.265 307.054C285.265 307.974 285.447 308.798 285.812 309.528C286.193 310.241 286.716 310.796 287.382 311.192C288.064 311.589 288.833 311.787 289.689 311.787C290.656 311.787 291.489 311.525 292.186 311.002C292.9 310.479 293.399 309.797 293.685 308.957H295.278C294.961 310.178 294.303 311.2 293.304 312.025C292.321 312.834 291.116 313.238 289.689 313.238ZM303.23 313.238C302.104 313.238 301.081 312.968 300.162 312.429C299.242 311.89 298.521 311.153 297.997 310.217C297.474 309.266 297.213 308.212 297.213 307.054C297.213 305.897 297.474 304.85 297.997 303.915C298.521 302.963 299.242 302.226 300.162 301.703C301.081 301.164 302.104 300.894 303.23 300.894C304.657 300.894 305.862 301.306 306.845 302.131C307.844 302.939 308.502 303.946 308.819 305.151H307.226C306.94 304.311 306.441 303.629 305.727 303.106C305.029 302.583 304.197 302.321 303.23 302.321C302.374 302.321 301.605 302.527 300.923 302.939C300.257 303.336 299.734 303.891 299.353 304.604C298.988 305.318 298.806 306.134 298.806 307.054C298.806 307.974 298.988 308.798 299.353 309.528C299.734 310.241 300.257 310.796 300.923 311.192C301.605 311.589 302.374 311.787 303.23 311.787C304.197 311.787 305.029 311.525 305.727 311.002C306.441 310.479 306.94 309.797 307.226 308.957H308.819C308.502 310.178 307.844 311.2 306.845 312.025C305.862 312.834 304.657 313.238 303.23 313.238ZM314.464 313H311.515V301.132H313.084L313.061 311.549H313.655L319.197 301.132H322.146V313H320.6L320.624 302.559H320.029L314.464 313ZM328.655 313H325.706V301.132H327.276L327.252 311.549H327.846L333.388 301.132H336.337V313H334.791L334.815 302.559H334.22L328.655 313Z" fill="#4A4A4A"/>
<path d="M286.118 131.173L292.524 126.44H297.705V155H291.993V133.294L286.118 137.538V131.173ZM314.161 125.91C316.554 125.91 318.649 126.372 320.444 127.297C322.239 128.194 323.626 129.432 324.606 131.01C325.585 132.56 326.074 134.301 326.074 136.232C326.074 139.034 324.837 142.012 322.362 145.167L314.691 155H307.918L314.895 146.35H314.079C311.713 146.35 309.632 145.915 307.837 145.045C306.069 144.147 304.709 142.937 303.757 141.414C302.805 139.863 302.329 138.122 302.329 136.191C302.329 134.26 302.805 132.519 303.757 130.969C304.736 129.391 306.123 128.154 307.918 127.256C309.714 126.358 311.794 125.91 314.161 125.91ZM314.202 141.332C316.024 141.332 317.466 140.856 318.526 139.904C319.614 138.925 320.158 137.66 320.158 136.11C320.158 134.586 319.614 133.349 318.526 132.397C317.466 131.418 316.024 130.928 314.202 130.928C312.379 130.928 310.924 131.418 309.836 132.397C308.775 133.349 308.245 134.586 308.245 136.11C308.245 137.66 308.775 138.925 309.836 139.904C310.924 140.856 312.379 141.332 314.202 141.332ZM335.879 139.414C334.574 139.414 333.404 139.115 332.371 138.517C331.364 137.891 330.575 137.062 330.004 136.028C329.46 134.994 329.188 133.866 329.188 132.642C329.188 131.418 329.46 130.289 330.004 129.255C330.575 128.222 331.364 127.406 332.371 126.807C333.404 126.209 334.574 125.91 335.879 125.91C337.158 125.91 338.3 126.209 339.307 126.807C340.34 127.406 341.129 128.222 341.673 129.255C342.244 130.289 342.53 131.418 342.53 132.642C342.53 133.866 342.244 134.994 341.673 136.028C341.129 137.062 340.34 137.891 339.307 138.517C338.3 139.115 337.158 139.414 335.879 139.414ZM337.43 155H332.942L350.078 126.44H354.566L337.43 155ZM335.879 135.865C336.75 135.865 337.457 135.566 338.001 134.967C338.545 134.369 338.817 133.594 338.817 132.642C338.817 131.69 338.545 130.914 338.001 130.316C337.457 129.718 336.75 129.418 335.879 129.418C334.982 129.418 334.261 129.718 333.717 130.316C333.2 130.914 332.942 131.69 332.942 132.642C332.942 133.594 333.2 134.369 333.717 134.967C334.261 135.566 334.982 135.865 335.879 135.865ZM351.669 155.53C350.363 155.53 349.194 155.231 348.16 154.633C347.154 154.034 346.365 153.218 345.794 152.185C345.25 151.151 344.978 150.022 344.978 148.798C344.978 147.574 345.25 146.446 345.794 145.412C346.365 144.378 347.154 143.562 348.16 142.964C349.194 142.338 350.363 142.026 351.669 142.026C352.947 142.026 354.09 142.338 355.096 142.964C356.13 143.562 356.932 144.378 357.503 145.412C358.075 146.446 358.36 147.574 358.36 148.798C358.36 150.022 358.075 151.151 357.503 152.185C356.932 153.191 356.13 154.007 355.096 154.633C354.09 155.231 352.947 155.53 351.669 155.53ZM351.669 152.022C352.567 152.022 353.274 151.722 353.791 151.124C354.335 150.526 354.607 149.75 354.607 148.798C354.607 147.846 354.335 147.071 353.791 146.473C353.274 145.874 352.567 145.575 351.669 145.575C350.771 145.575 350.051 145.874 349.507 146.473C348.99 147.071 348.731 147.846 348.731 148.798C348.731 149.75 348.99 150.526 349.507 151.124C350.051 151.722 350.771 152.022 351.669 152.022Z" fill="white"/>
<defs>
<filter id="filter0_d_836_920" x="14" y="18" width="388" height="388" filterUnits="userSpaceOnUse" color-interpolation-filters="sRGB">
<feFlood flood-opacity="0" result="BackgroundImageFix"/>
<feColorMatrix in="SourceAlpha" type="matrix" values="0 0 0 0 0 0 0 0 0 0 0 0 0 0 0 0 0 0 127 0" result="hardAlpha"/>
<feOffset dy="4"/>
<feGaussianBlur stdDeviation="2"/>
<feComposite in2="hardAlpha" operator="out"/>
<feColorMatrix type="matrix" values="0 0 0 0 0 0 0 0 0 0 0 0 0 0 0 0 0 0 0.25 0"/>
<feBlend mode="normal" in2="BackgroundImageFix" result="effect1_dropShadow_836_920"/>
<feBlend mode="normal" in="SourceGraphic" in2="effect1_dropShadow_836_920" result="shape"/>
</filter>
<filter id="filter1_d_836_920" x="207.764" y="17.0439" width="212.088" height="198.956" filterUnits="userSpaceOnUse" color-interpolation-filters="sRGB">
<feFlood flood-opacity="0" result="BackgroundImageFix"/>
<feColorMatrix in="SourceAlpha" type="matrix" values="0 0 0 0 0 0 0 0 0 0 0 0 0 0 0 0 0 0 127 0" result="hardAlpha"/>
<feOffset dy="4"/>
<feGaussianBlur stdDeviation="2"/>
<feComposite in2="hardAlpha" operator="out"/>
<feColorMatrix type="matrix" values="0 0 0 0 0 0 0 0 0 0 0 0 0 0 0 0 0 0 0.25 0"/>
<feBlend mode="normal" in2="BackgroundImageFix" result="effect1_dropShadow_836_920"/>
<feBlend mode="normal" in="SourceGraphic" in2="effect1_dropShadow_836_920" result="shape"/>
</filter>
</defs>
</svg>
