<svg width="47" height="47" viewBox="0 0 47 47" fill="none" xmlns="http://www.w3.org/2000/svg">
<path d="M32.31 0.5C33.1384 0.5 33.81 1.17157 33.81 2V10.69C33.81 12.0707 34.9293 13.19 36.31 13.19H45C45.8284 13.19 46.5 13.8616 46.5 14.69V32.31C46.5 33.1384 45.8284 33.81 45 33.81H36.31C34.9293 33.81 33.81 34.9293 33.81 36.31V45C33.81 45.8284 33.1384 46.5 32.31 46.5H14.69C13.8616 46.5 13.19 45.8284 13.19 45V36.31C13.19 34.9293 12.0707 33.81 10.69 33.81H2C1.17157 33.81 0.5 33.1384 0.5 32.31V14.69C0.5 13.8616 1.17157 13.19 2 13.19H10.69C12.0707 13.19 13.19 12.0707 13.19 10.69V2C13.19 1.17157 13.8616 0.5 14.69 0.5H32.31Z" stroke="#E00C0C"/>
</svg>
