<svg width="47" height="48" viewBox="0 0 47 48" fill="none" xmlns="http://www.w3.org/2000/svg">
<path d="M44.1535 26.442C44.1535 37.8483 34.9068 47.0949 23.5006 47.0949C12.0943 47.0949 2.84766 37.8483 2.84766 26.442C2.84766 15.0357 12.0943 5.78906 23.5006 5.78906C34.9068 5.78906 44.1535 15.0357 44.1535 26.442Z" stroke="#E00C0C"/>
<path d="M28.2874 5.28823C28.2874 7.93269 26.1436 10.0765 23.4992 10.0765C20.8547 10.0765 18.7109 7.93269 18.7109 5.28823C18.7109 2.64376 20.8547 0.5 23.4992 0.5C26.1436 0.5 28.2874 2.64376 28.2874 5.28823Z" fill="#22313B" stroke="#E00C0C"/>
<path d="M10.0725 36.4308C10.0725 39.0753 7.92878 41.219 5.28432 41.219C2.63986 41.219 0.496094 39.0753 0.496094 36.4308C0.496094 33.7863 2.63986 31.6426 5.28432 31.6426C7.92878 31.6426 10.0725 33.7863 10.0725 36.4308Z" fill="#22313B" stroke="#E00C0C"/>
<path d="M46.5022 36.4308C46.5022 39.0753 44.3585 41.219 41.714 41.219C39.0695 41.219 36.9258 39.0753 36.9258 36.4308C36.9258 33.7863 39.0695 31.6426 41.714 31.6426C44.3585 31.6426 46.5022 33.7863 46.5022 36.4308Z" fill="#22313B" stroke="#E00C0C"/>
</svg>
