<svg width="57" height="34" viewBox="0 0 57 34" fill="none" xmlns="http://www.w3.org/2000/svg">
<path d="M15.3696 3.14815C15.3696 1.67799 16.5402 0.5 17.9674 0.5H39.0326C40.4598 0.5 41.6304 1.67799 41.6304 3.14815V12.5926C41.6304 14.0627 40.4598 15.2407 39.0326 15.2407H17.9674C16.5402 15.2407 15.3696 14.0628 15.3696 12.5926V3.14815ZM30.2391 21.4074C30.2391 19.9373 31.4098 18.7593 32.837 18.7593H53.9022C55.3293 18.7593 56.5 19.9373 56.5 21.4074V30.8519C56.5 32.322 55.3293 33.5 53.9022 33.5H32.837C31.4098 33.5 30.2391 32.322 30.2391 30.8519V21.4074ZM0.5 21.4074C0.5 19.9373 1.67065 18.7593 3.09783 18.7593H24.163C25.5902 18.7593 26.7609 19.9373 26.7609 21.4074V30.8519C26.7609 32.322 25.5902 33.5 24.163 33.5H3.09783C1.67065 33.5 0.5 32.322 0.5 30.8519V21.4074Z" stroke="#E00C0C"/>
</svg>
