<svg width="145" height="29" viewBox="0 0 145 29" fill="none" xmlns="http://www.w3.org/2000/svg">
<path d="M27.1565 0.699341H0V27.815H27.1565V0.699341Z" fill="#E30613"/>
<path d="M13.5991 17.502C11.8046 17.502 10.3291 16.0287 10.3291 14.2369C10.3291 12.4451 11.8046 10.9719 13.5991 10.9719C15.3935 10.9719 16.869 12.4451 16.869 14.2369C16.869 16.0287 15.3935 17.502 13.5991 17.502ZM13.5991 10.2552C11.4058 10.2552 9.61133 12.047 9.61133 14.2369C9.61133 16.4269 11.4058 18.2187 13.5991 18.2187C15.7923 18.2187 17.5868 16.4269 17.5868 14.2369C17.5868 12.047 15.7923 10.2552 13.5991 10.2552Z" fill="white"/>
<path fill-rule="evenodd" clip-rule="evenodd" d="M13.5988 18.9355C11.0067 18.9355 8.89324 16.8252 8.89324 14.237C8.89324 11.6489 11.0067 9.53855 13.5988 9.53855C16.1908 9.53855 18.3043 11.6489 18.3043 14.237C18.3043 16.8252 16.1908 18.9355 13.5988 18.9355ZM14.7552 3.92429L15.1939 4.641C15.5926 5.23827 16.3503 5.47717 16.9883 5.11881L17.746 4.72064C18.1847 4.48173 18.6632 4.48173 19.062 4.76046C19.5006 4.99936 19.7399 5.39754 19.7399 5.91516L19.7798 6.75133C19.8196 7.46804 20.3779 8.02549 21.0957 8.06531L21.973 8.10512C22.4515 8.10512 22.8503 8.38385 23.0896 8.78202C23.3288 9.22001 23.3288 9.65801 23.1295 10.096L22.7307 10.8525C22.4117 11.4896 22.6111 12.286 23.2092 12.6443L23.927 13.0823C24.3258 13.361 24.565 13.7592 24.565 14.237C24.565 14.7148 24.3258 15.1528 23.927 15.3917L23.2092 15.8297C22.6111 16.2279 22.3718 16.9844 22.7307 17.6215L23.1295 18.378C23.3687 18.816 23.3288 19.2938 23.0896 19.692C22.8503 20.0902 22.4515 20.3689 21.973 20.3689L21.1356 20.4485C20.4178 20.4884 19.8595 21.0458 19.8196 21.7625L19.7798 22.6385C19.7798 23.1163 19.5006 23.5145 19.1018 23.7534C18.7031 23.9923 18.2245 23.9923 17.7859 23.7932L17.0282 23.395C16.3902 23.0765 15.5926 23.2756 15.2337 23.8728L14.7552 24.5896C14.4761 24.9877 14.0773 25.2266 13.5988 25.2266C13.1202 25.2266 12.6816 24.9877 12.4423 24.5896L11.9638 23.8728C11.565 23.2756 10.8074 23.0367 10.1693 23.395L9.41164 23.7932C8.97299 24.0321 8.49446 23.9923 8.09569 23.7534C7.69692 23.5145 7.41777 23.1163 7.41777 22.6385L7.3779 21.7625C7.33802 21.0458 6.77974 20.4884 6.06194 20.4485L5.18464 20.4087C4.70611 20.4087 4.30734 20.13 4.0282 19.7318C3.78893 19.3337 3.78893 18.8558 3.98832 18.4179L4.38709 17.6613C4.74599 17.0242 4.50673 16.2279 3.90857 15.8695L3.19077 15.4315C2.792 15.1528 2.55273 14.7546 2.55273 14.2768C2.55273 13.799 2.792 13.361 3.19077 13.1221L3.90857 12.6841C4.50673 12.286 4.74599 11.5294 4.38709 10.8923L3.98832 10.1358C3.74906 9.69782 3.74906 9.22001 4.0282 8.82184C4.26746 8.42366 4.66623 8.14494 5.18464 8.14494L6.02207 8.10512C6.73986 8.06531 7.29814 7.50786 7.33802 6.79115L7.3779 5.95498C7.3779 5.47717 7.65704 5.079 8.05581 4.80027C8.45459 4.52155 8.93311 4.56137 9.37176 4.76046L10.1294 5.15863C10.7675 5.51699 11.565 5.27808 11.9239 4.68082L12.3626 3.96411C12.6018 3.56593 13.0405 3.32703 13.519 3.32703C13.9975 3.32703 14.4761 3.4863 14.7552 3.92429Z" fill="white"/>
<path d="M31.9424 20.5685L33.4578 22.2806H32.9393L31.4639 20.6083L32.8596 19.0554H33.3381L31.9424 20.5685ZM30.9854 19.0554H31.3841V22.2806H30.9854V19.0554Z" fill="#F6F6F6"/>
<path d="M35.0529 21.9219C35.7707 21.9219 36.2891 21.3645 36.2891 20.6477C36.2891 19.931 35.7707 19.3736 35.0529 19.3736C34.3351 19.3736 33.8167 19.8912 33.8167 20.6477C33.8167 21.4043 34.375 21.9219 35.0529 21.9219ZM35.0529 18.9754C35.9701 18.9754 36.6879 19.6523 36.6879 20.6477C36.6879 21.6432 35.9701 22.3201 35.0529 22.3201C34.1358 22.3201 33.418 21.6432 33.418 20.6477C33.418 19.6523 34.0959 18.9754 35.0529 18.9754Z" fill="#F6F6F6"/>
<path d="M37.2458 19.0553H37.6445L38.8409 20.6878L39.9973 19.0553H40.3562V22.2805H39.9574V19.6924L38.801 21.2851H38.7212L37.5648 19.6924V22.2805H37.166L37.2458 19.0553Z" fill="#F6F6F6"/>
<path d="M43.3467 19.4137H41.5921V22.2805H41.1934V19.0553H43.7056V22.2805H43.3069C43.3467 22.2407 43.3467 19.4137 43.3467 19.4137Z" fill="#F6F6F6"/>
<path d="M46.5375 19.4134H45.3811L45.3412 20.0107C45.1418 22.0414 44.7031 22.3201 44.2246 22.2405V21.8423C44.4639 21.8821 44.8626 21.7627 44.9823 19.6523L45.0222 19.0153H46.9363V22.2405H46.5375V19.4134Z" fill="#F6F6F6"/>
<path d="M47.7734 19.0553H49.6078V19.4137H48.1722V20.4489H49.4483V20.8073H48.1722V21.8823H49.6477V22.2407H47.7734V19.0553Z" fill="#F6F6F6"/>
<path d="M51.1633 20.5685L52.6786 22.2806H52.1602L50.6847 20.6083L52.0805 19.0554H52.559L51.1633 20.5685ZM50.2461 19.0554H50.6449V22.2806H50.2461V19.0554Z" fill="#F6F6F6"/>
<path d="M55.3105 21.9617C55.1111 22.1608 54.6724 22.3201 54.2736 22.3201C53.3166 22.3201 52.6387 21.683 52.6387 20.6477C52.6387 19.7319 53.2368 18.9754 54.2338 18.9754C54.6325 18.9754 54.9914 19.0949 55.2307 19.2939L55.0712 19.5727C54.8718 19.4134 54.6325 19.3338 54.2736 19.3338C53.5559 19.3338 53.0773 19.8514 53.0773 20.6079C53.0773 21.3645 53.5957 21.8821 54.3135 21.8821C54.6325 21.8821 54.9117 21.7626 55.1509 21.6034L55.3105 21.9617Z" fill="#F6F6F6"/>
<path d="M57.9424 20.8074H56.1878V22.2806H55.7891V19.0554H56.1878V20.449H57.9424V19.0554H58.3412V22.2806H57.9424C57.9424 22.2408 57.9424 20.8074 57.9424 20.8074Z" fill="#F6F6F6"/>
<path d="M59.6973 20.9265H60.8537L60.2954 19.5329L59.6973 20.9265ZM60.1359 19.0153H60.455L61.8507 22.2405H61.412L61.0132 21.245H59.5378L59.139 22.2405H58.7402L60.1359 19.0153Z" fill="#F6F6F6"/>
<path d="M63.7649 20.6876V19.4134C63.6452 19.4134 63.4458 19.4134 63.3262 19.4134C62.8078 19.4134 62.5685 19.6921 62.5685 20.0903C62.5685 20.4088 62.8477 20.6876 63.1268 20.7274L63.7649 20.6876ZM63.7649 21.0459H63.1667L62.3293 22.2404H61.8906L62.7679 20.9663C62.4489 20.8468 62.1299 20.5283 62.1299 20.0505C62.1299 19.4532 62.5287 18.9754 63.3661 18.9754C63.5655 18.9754 63.9244 18.9754 64.1238 18.9754V22.2006H63.725L63.7649 21.0459Z" fill="#F6F6F6"/>
<path d="M66.4766 20.9264H67.633L67.0747 19.5328L66.4766 20.9264ZM66.8754 19.0152H67.1944L68.5901 22.2404H68.1913L67.7925 21.245H66.3171L65.9183 22.2404H65.5195L66.8754 19.0152Z" fill="#F6F6F6"/>
<path d="M69.4271 19.4138V20.449H69.9455C70.3044 20.449 70.5835 20.2499 70.5835 19.9314C70.5835 19.6129 70.3443 19.4138 69.9455 19.4138C69.7062 19.374 69.5068 19.4138 69.4271 19.4138ZM69.0283 19.0554C69.1878 19.0554 69.6265 19.0554 69.9056 19.0554C70.6633 19.0554 70.9424 19.4138 70.9424 19.8518C70.9424 20.2499 70.7032 20.4888 70.3841 20.6083C70.7829 20.6879 71.0621 20.9268 71.0621 21.3648C71.0621 22.0019 70.5437 22.2806 69.9056 22.2806C69.6265 22.2806 69.2277 22.2806 69.0283 22.2806V19.0554ZM69.4271 20.8074V21.9223C69.5467 21.9223 69.7461 21.9223 69.9056 21.9223C70.3841 21.9223 70.6633 21.7232 70.6633 21.325C70.6633 21.0065 70.3841 20.8074 69.9455 20.8074H69.4271Z" fill="#F6F6F6"/>
<path d="M71.2617 19.0553H73.8936V19.4137H72.7771V22.2805H72.3783V19.4137H71.2617V19.0553Z" fill="#F6F6F6"/>
<path d="M75.5285 21.9219C76.2862 21.9219 76.7647 21.3645 76.7647 20.6477C76.7647 19.931 76.2064 19.3736 75.5285 19.3736C74.8506 19.3736 74.2923 19.8912 74.2923 20.6477C74.2923 21.4043 74.8506 21.9219 75.5285 21.9219ZM75.5285 18.9754C76.4457 18.9754 77.1635 19.6523 77.1635 20.6477C77.1635 21.6432 76.4457 22.3201 75.5285 22.3201C74.6113 22.3201 73.8936 21.6432 73.8936 20.6477C73.8936 19.6523 74.5715 18.9754 75.5285 18.9754Z" fill="#F6F6F6"/>
<path d="M77.7215 19.0554H78.1203L79.3166 20.6879L80.4731 19.0554H80.832V22.2806H80.4332V19.6925L79.2767 21.2852H79.2369L78.0804 19.6925V22.2806H77.6816L77.7215 19.0554Z" fill="#F6F6F6"/>
<path d="M82.2276 20.9265H83.384L82.8257 19.5329L82.2276 20.9265ZM82.6662 19.0153H82.9852L84.3809 22.2405H83.9423L83.5435 21.245H82.0681L81.6693 22.2405H81.2705L82.6662 19.0153Z" fill="#F6F6F6"/>
<path d="M84.0225 19.0554H86.6544V19.4138H85.5378V22.2806H85.139V19.4138H84.0225V19.0554Z" fill="#F6F6F6"/>
<path d="M87.0527 22.2405V19.0153H87.4515V21.6034L89.4055 19.0153H89.7644V22.2405H89.3656V19.6922L87.4116 22.2803C87.4116 22.2405 87.0527 22.2405 87.0527 22.2405Z" fill="#F6F6F6"/>
<path d="M90.2832 21.8024L90.4826 21.5237C90.682 21.7626 91.0409 21.9219 91.2801 21.9219C91.7188 21.9219 91.9979 21.7228 91.9979 21.3246C91.9979 21.0061 91.7587 20.807 91.3599 20.807H91.001V20.4486H91.3599C91.639 20.4486 91.8783 20.2496 91.8783 19.8912C91.8783 19.5328 91.639 19.3736 91.2801 19.3736C90.9212 19.3736 90.7219 19.493 90.5623 19.7319L90.3231 19.4532C90.5225 19.1745 90.9212 18.9754 91.32 18.9754C91.8783 18.9754 92.2372 19.2939 92.2372 19.8514C92.2372 20.1301 92.0777 20.4088 91.7587 20.5681C92.1574 20.6477 92.3568 20.9663 92.3568 21.3246C92.3568 21.9219 91.8384 22.2803 91.2403 22.2803C90.8016 22.2803 90.4427 22.0413 90.2832 21.8024Z" fill="#F6F6F6"/>
<path d="M93.6327 20.9265H94.7891L94.2308 19.5329L93.6327 20.9265ZM94.0314 19.0153H94.3505L95.7462 22.2405H95.3075L94.9088 21.245H93.4333L93.0345 22.2405H92.6357L94.0314 19.0153Z" fill="#F6F6F6"/>
<path d="M96.1846 19.0554H96.5833V21.9223H98.2981V19.0554H98.6968V21.9223H99.1355V22.8779H98.7766V22.2806H96.1846V19.0554Z" fill="#F6F6F6"/>
<path d="M99.5742 22.2405V19.0153H99.973V21.6034L101.927 19.0153H102.286V22.2405H101.887V19.6922L99.9331 22.2803C99.9331 22.2405 99.5742 22.2405 99.5742 22.2405Z" fill="#F6F6F6"/>
<path d="M104.599 20.6876V19.4134C104.479 19.4134 104.28 19.4134 104.16 19.4134C103.642 19.4134 103.403 19.6921 103.403 20.0903C103.403 20.4088 103.682 20.6876 103.961 20.7274L104.599 20.6876ZM104.599 21.0459H104.001L103.163 22.2404H102.725L103.602 20.9663C103.283 20.8468 102.964 20.5283 102.964 20.0505C102.964 19.4532 103.363 18.9754 104.2 18.9754C104.399 18.9754 104.758 18.9754 104.958 18.9754V22.2006H104.559C104.599 22.2404 104.599 21.0459 104.599 21.0459Z" fill="#F6F6F6"/>
<path d="M106.792 22.2405V19.0153H107.191V21.6034L109.145 19.0153H109.504V22.2405H109.105V19.6922L107.151 22.2803C107.111 22.2405 106.792 22.2405 106.792 22.2405Z" fill="#F6F6F6"/>
<path d="M111.657 19.4134V20.6477C111.816 20.6477 111.976 20.6875 112.135 20.6875C112.614 20.6875 112.893 20.4486 112.893 20.0505C112.893 19.6523 112.654 19.4134 112.135 19.4134C112.015 19.4134 111.776 19.4134 111.657 19.4134ZM111.258 22.2404V19.0152C111.457 19.0152 111.896 19.0152 112.095 19.0152C113.012 19.0152 113.292 19.493 113.292 20.0106C113.292 20.5283 112.933 21.0061 112.135 21.0061C112.015 21.0061 111.816 21.0061 111.657 21.0061V22.2404H111.258Z" fill="#F6F6F6"/>
<path d="M115.206 21.9219C115.964 21.9219 116.442 21.3645 116.442 20.6477C116.442 19.931 115.884 19.3736 115.206 19.3736C114.528 19.3736 113.97 19.8912 113.97 20.6477C113.97 21.4043 114.488 21.9219 115.206 21.9219ZM115.206 18.9754C116.123 18.9754 116.841 19.6523 116.841 20.6477C116.841 21.6432 116.123 22.3201 115.206 22.3201C114.289 22.3201 113.571 21.6432 113.571 20.6477C113.571 19.6523 114.249 18.9754 115.206 18.9754Z" fill="#F6F6F6"/>
<path d="M117.798 20.6879V21.8825C117.958 21.8825 118.077 21.8825 118.237 21.8825C118.755 21.8825 119.034 21.6436 119.034 21.2454C119.034 20.887 118.795 20.6481 118.277 20.6481C118.117 20.6879 117.958 20.6879 117.798 20.6879ZM117.399 19.0554H119.234V19.4138H117.798V20.3296C117.958 20.3296 118.157 20.2898 118.277 20.2898C118.995 20.2898 119.393 20.6481 119.393 21.2454C119.393 21.9223 118.915 22.2806 118.157 22.2806C117.838 22.2806 117.559 22.2806 117.399 22.2806V19.0554Z" fill="#F6F6F6"/>
<path d="M121.467 21.9219C122.225 21.9219 122.703 21.3645 122.703 20.6477C122.703 19.931 122.145 19.3736 121.467 19.3736C120.789 19.3736 120.231 19.8912 120.231 20.6477C120.231 21.4043 120.749 21.9219 121.467 21.9219ZM121.467 18.9754C122.384 18.9754 123.102 19.6523 123.102 20.6477C123.102 21.6432 122.384 22.3201 121.467 22.3201C120.55 22.3201 119.832 21.6432 119.832 20.6477C119.832 19.6523 120.51 18.9754 121.467 18.9754Z" fill="#F6F6F6"/>
<path d="M123.062 19.0553H125.694V19.4137H124.578V22.2805H124.179V19.4137H123.062V19.0553Z" fill="#F6F6F6"/>
<path d="M126.093 22.2405V19.0153H126.492V21.6034L128.446 19.0153H128.804V22.2405H128.406V19.6922L126.452 22.2803C126.452 22.2405 126.093 22.2405 126.093 22.2405Z" fill="#F6F6F6"/>
<path d="M129.323 21.8024L129.523 21.5237C129.722 21.7626 130.081 21.9219 130.32 21.9219C130.719 21.9219 131.038 21.7228 131.038 21.3246C131.038 21.0061 130.799 20.807 130.4 20.807H130.041V20.4486H130.4C130.679 20.4486 130.918 20.2496 130.918 19.8912C130.918 19.5328 130.679 19.3736 130.32 19.3736C129.961 19.3736 129.762 19.493 129.602 19.7319L129.363 19.4532C129.563 19.1745 129.961 18.9754 130.36 18.9754C130.918 18.9754 131.277 19.2939 131.277 19.8514C131.277 20.1301 131.118 20.4088 130.799 20.5681C131.197 20.6477 131.397 20.9663 131.397 21.3246C131.397 21.9219 130.878 22.2803 130.28 22.2803C129.882 22.2803 129.483 22.0413 129.323 21.8024Z" fill="#F6F6F6"/>
<path d="M132.672 20.9264H133.828L133.23 19.5328L132.672 20.9264ZM133.071 19.0152H133.39L134.785 22.2404H134.387L133.988 21.245H132.512L132.114 22.2404H131.715L133.071 19.0152Z" fill="#F6F6F6"/>
<path d="M135.225 19.0554H135.623V21.9223H137.338V19.0554H137.737V21.9223H138.176V22.8779H137.817V22.2806H135.225V19.0554Z" fill="#F6F6F6"/>
<path d="M138.614 22.2405V19.0153H139.013V21.6034L140.967 19.0153H141.326V22.2405H140.927V19.6922L138.973 22.2803C138.973 22.2405 138.614 22.2405 138.614 22.2405Z" fill="#F6F6F6"/>
<path d="M143.639 20.6876V19.4134C143.519 19.4134 143.32 19.4134 143.2 19.4134C142.682 19.4134 142.443 19.6921 142.443 20.0903C142.443 20.4088 142.722 20.6876 143.001 20.7274L143.639 20.6876ZM143.639 21.0459H143.041L142.203 22.2404H141.765L142.642 20.9663C142.323 20.8468 142.004 20.5283 142.004 20.0505C142.004 19.4532 142.403 18.9754 143.24 18.9754C143.44 18.9754 143.798 18.9754 143.998 18.9754V22.2006H143.599C143.639 22.2404 143.639 21.0459 143.639 21.0459Z" fill="#F6F6F6"/>
<path d="M33.4179 27.4565C33.2185 27.6954 32.7798 27.8148 32.3811 27.8148C31.424 27.8148 30.7461 27.1777 30.7461 26.1425C30.7461 25.2267 31.3443 24.4702 32.3412 24.4702C32.74 24.4702 33.0989 24.5896 33.3381 24.7887L33.1786 25.0674C32.9792 24.9081 32.7001 24.8285 32.3811 24.8285C31.6633 24.8285 31.1847 25.3461 31.1847 26.1027C31.1847 26.8592 31.7032 27.3768 32.4608 27.3768C32.7798 27.3768 33.059 27.2574 33.2982 27.0981L33.4179 27.4565Z" fill="#F6F6F6"/>
<path d="M34.7736 26.0629L36.289 27.7751H35.7706L34.2951 26.1027L35.6908 24.5499H36.1693L34.7736 26.0629ZM33.8564 24.5499H34.2552V27.7751H33.8564V24.5499Z" fill="#F6F6F6"/>
<path d="M38.6819 24.9082H37.4855L37.4457 25.5054C37.2463 27.5361 36.8076 27.8149 36.3291 27.7352V27.337C36.5684 27.3769 36.9671 27.2574 37.0868 25.1471L37.1266 24.51H39.0408V27.7352H38.642L38.6819 24.9082Z" fill="#F6F6F6"/>
<path d="M40.4356 26.4213H41.592L41.0337 25.0277L40.4356 26.4213ZM40.8343 24.5499H41.1534L42.5491 27.7751H42.1104L41.7116 26.8195H40.2761L39.8773 27.7751H39.4785L40.8343 24.5499Z" fill="#F6F6F6"/>
<path d="M43.3073 27.417H44.9423V24.9483H43.8257L43.7858 25.5058C43.6662 26.6207 43.4269 27.2577 43.3073 27.417ZM42.5098 27.417H42.8687C42.9883 27.2577 43.3472 26.541 43.3871 25.227L43.4269 24.59H45.3411V27.4568H45.7797V28.4124H45.4208V27.8152H42.9085V28.4124H42.5496L42.5098 27.417Z" fill="#F6F6F6"/>
<path d="M48.5712 27.4565C48.3718 27.6954 47.9332 27.8148 47.5344 27.8148C46.5773 27.8148 45.8994 27.1777 45.8994 26.1425C45.8994 25.2267 46.4976 24.4702 47.4945 24.4702C47.8933 24.4702 48.2522 24.5896 48.4914 24.7887L48.3319 25.0674C48.1325 24.9081 47.8534 24.8285 47.5344 24.8285C46.8166 24.8285 46.3381 25.3461 46.3381 26.1027C46.3381 26.8592 46.8565 27.3768 47.6141 27.3768C47.9332 27.3768 48.2123 27.2574 48.4516 27.0981L48.5712 27.4565Z" fill="#F6F6F6"/>
<path d="M49.967 26.0629L51.4823 27.7751H50.9639L49.4885 26.1027L50.8842 24.5499H51.3627L49.967 26.0629ZM49.0498 24.5499H49.4486V27.7751H49.0498V24.5499Z" fill="#F6F6F6"/>
<path d="M53.1174 27.4565C53.8751 27.4565 54.3536 26.8991 54.3536 26.1823C54.3536 25.4656 53.7953 24.9082 53.1174 24.9082C52.4395 24.9082 51.8812 25.4258 51.8812 26.1823C51.8812 26.8991 52.3996 27.4565 53.1174 27.4565ZM53.1174 24.51C54.0346 24.51 54.7524 25.1869 54.7524 26.1823C54.7524 27.1778 54.0346 27.8547 53.1174 27.8547C52.2002 27.8547 51.4824 27.1778 51.4824 26.1823C51.4824 25.1869 52.1603 24.51 53.1174 24.51Z" fill="#F6F6F6"/>
<path d="M56.1878 23.8333C56.2676 24.0324 56.4271 24.1519 56.6664 24.1519C56.9056 24.1519 57.105 24.0722 57.1449 23.8333H57.5038C57.4639 24.1917 57.105 24.3908 56.6664 24.3908C56.1879 24.3908 55.8688 24.1519 55.7891 23.8333H56.1878ZM55.3105 27.7752V24.55H55.7093V27.1382L57.6633 24.55H58.0222V27.7752H57.6234V25.1871L55.6694 27.7752H55.3105Z" fill="#F6F6F6"/>
<path d="M60.6143 27.7751V24.5499H61.013V27.138L62.967 24.5499H63.3259V27.7751H62.9271V25.1869L60.9732 27.7751H60.6143Z" fill="#F6F6F6"/>
<path d="M68.0313 24.9082H66.2767V27.7751H65.8779V24.5499H68.4301V27.7751H68.0313V24.9082Z" fill="#F6F6F6"/>
<path d="M69.6273 24.9082V26.1426C69.7868 26.1426 69.9463 26.1824 70.1058 26.1824C70.5843 26.1824 70.8635 25.9435 70.8635 25.5453C70.8635 25.1471 70.6242 24.9082 70.1058 24.9082C69.9862 24.9082 69.7868 24.9082 69.6273 24.9082ZM69.2285 27.7751V24.5499C69.388 24.5499 69.8665 24.5499 70.0659 24.5499C70.9831 24.5499 71.2623 25.0277 71.2623 25.5453C71.2623 26.0629 70.9034 26.5407 70.1058 26.5407C69.9862 26.5407 69.7868 26.5407 69.6273 26.5009V27.7353C69.6273 27.7751 69.2285 27.7751 69.2285 27.7751Z" fill="#F6F6F6"/>
<path d="M73.176 27.4565C73.9337 27.4565 74.4122 26.8991 74.4122 26.1823C74.4122 25.4656 73.8539 24.9082 73.176 24.9082C72.4981 24.9082 71.9398 25.4258 71.9398 26.1823C71.9398 26.8991 72.4981 27.4565 73.176 27.4565ZM73.176 24.51C74.0932 24.51 74.811 25.1869 74.811 26.1823C74.811 27.1778 74.0932 27.8547 73.176 27.8547C72.2588 27.8547 71.541 27.1778 71.541 26.1823C71.541 25.1869 72.2189 24.51 73.176 24.51Z" fill="#F6F6F6"/>
<path d="M75.3691 27.7751V24.5499H75.7679V27.138L77.7219 24.5499H78.0808V27.7751H77.682V25.1869L75.728 27.7751H75.3691Z" fill="#F6F6F6"/>
<path d="M78.5996 27.2969L78.799 27.0182C78.9984 27.2571 79.3573 27.4164 79.5965 27.4164C80.0352 27.4164 80.3143 27.2173 80.3143 26.7793C80.3143 26.4607 80.0751 26.2617 79.6763 26.2617H79.3573V25.9033H79.7162C79.9953 25.9033 80.2346 25.7042 80.2346 25.3459C80.2346 24.9875 79.9953 24.8282 79.6364 24.8282C79.2775 24.8282 79.0781 24.9477 78.9186 25.1866L78.6794 24.9079C78.8787 24.6291 79.2775 24.4301 79.6763 24.4301C80.2346 24.4301 80.5935 24.7486 80.5935 25.306C80.5935 25.5848 80.434 25.8635 80.1149 26.0228C80.5137 26.1024 80.7131 26.4209 80.7131 26.7793C80.7131 27.3765 80.1947 27.7349 79.5965 27.7349C79.1579 27.8145 78.7591 27.5756 78.5996 27.2969Z" fill="#F6F6F6"/>
<path d="M81.7894 24.9082V25.9435H82.3078C82.6667 25.9435 82.9458 25.7444 82.9458 25.4259C82.9458 25.1073 82.7066 24.9082 82.3078 24.9082C82.1084 24.9082 81.909 24.9082 81.7894 24.9082ZM81.3906 24.5499C81.5501 24.5499 81.9888 24.5499 82.2679 24.5499C83.0256 24.5499 83.3047 24.9082 83.3047 25.3462C83.3047 25.7444 83.0655 25.9833 82.7465 26.1027C83.1452 26.1824 83.4244 26.4213 83.4244 26.8593C83.4244 27.4964 82.906 27.7751 82.2679 27.7751C81.9888 27.7751 81.59 27.7751 81.3906 27.7353V24.5499ZM81.7894 26.3018V27.4167C81.909 27.4167 82.1084 27.4565 82.2679 27.4565C82.7465 27.4565 83.0256 27.2575 83.0256 26.8593C83.0256 26.5407 82.7465 26.3417 82.3078 26.3417H81.7894V26.3018Z" fill="#F6F6F6"/>
<path d="M85.4982 27.4565C86.2559 27.4565 86.7345 26.8991 86.7345 26.1823C86.7345 25.4656 86.1762 24.9082 85.4982 24.9082C84.8203 24.9082 84.2621 25.4258 84.2621 26.1823C84.2621 26.8991 84.7805 27.4565 85.4982 27.4565ZM85.4982 24.51C86.4154 24.51 87.1332 25.1869 87.1332 26.1823C87.1332 27.1778 86.4154 27.8547 85.4982 27.8547C84.5811 27.8547 83.8633 27.1778 83.8633 26.1823C83.8633 25.1869 84.5412 24.51 85.4982 24.51Z" fill="#F6F6F6"/>
<path d="M87.8905 27.417H89.5255V24.9483H88.4089L88.369 25.5058C88.2893 26.6207 88.0101 27.2577 87.8905 27.417ZM87.1328 27.417H87.4917C87.6113 27.2577 87.9304 26.541 88.0101 25.227L88.05 24.59H89.9641V27.4568H90.4028V28.4124H90.0439V27.8152H87.5316V28.4124H87.1727L87.1328 27.417Z" fill="#F6F6F6"/>
<path d="M93.1942 27.4565C92.9949 27.6954 92.5562 27.8148 92.1574 27.8148C91.2004 27.8148 90.5225 27.1777 90.5225 26.1425C90.5225 25.2267 91.1206 24.4702 92.1176 24.4702C92.5163 24.4702 92.8752 24.5896 93.1145 24.7887L92.955 25.0674C92.7556 24.9081 92.5163 24.8285 92.1574 24.8285C91.4396 24.8285 90.9611 25.3461 90.9611 26.1027C90.9611 26.8592 91.4795 27.3768 92.1973 27.3768C92.5163 27.3768 92.7955 27.2574 93.0347 27.0981L93.1942 27.4565Z" fill="#F6F6F6"/>
<path d="M93.2344 24.5499H95.8663V24.9082H94.7497V27.7751H94.3509V24.9082H93.2344V24.5499Z" fill="#F6F6F6"/>
<path d="M96.6235 24.9082V25.9435H97.142C97.5009 25.9435 97.78 25.7444 97.78 25.4259C97.78 25.1073 97.5407 24.9082 97.142 24.9082C96.9426 24.9082 96.7432 24.9082 96.6235 24.9082ZM96.2646 24.5499C96.4242 24.5499 96.8628 24.5499 97.142 24.5499C97.8996 24.5499 98.1788 24.9082 98.1788 25.3462C98.1788 25.7444 97.9395 25.9833 97.6205 26.1027C98.0193 26.1824 98.2984 26.4213 98.2984 26.8593C98.2984 27.4964 97.78 27.7751 97.142 27.7751C96.8628 27.7751 96.464 27.7751 96.2646 27.7353V24.5499ZM96.6235 26.3018V27.4167C96.7432 27.4167 96.9426 27.4565 97.1021 27.4565C97.5806 27.4565 97.8597 27.2575 97.8597 26.8593C97.8597 26.5407 97.5806 26.3417 97.142 26.3417H96.6235V26.3018Z" fill="#F6F6F6"/>
<path d="M98.9365 24.5499H100.771V24.9082H99.3353V25.9435H100.611V26.3018H99.3353V27.3769H100.811V27.7353H98.9365V24.5499Z" fill="#F6F6F6"/>
<path d="M103.603 26.3018H101.848V27.7751H101.449V24.5499H101.848V25.9435H103.603V24.5499H104.001V27.7751H103.603V26.3018Z" fill="#F6F6F6"/>
<path d="M106.952 26.3018H105.198V27.7751H104.799V24.5499H105.198V25.9435H106.952V24.5499H107.351V27.7751H106.952V26.3018Z" fill="#F6F6F6"/>
<path d="M109.584 27.4565C110.342 27.4565 110.82 26.8991 110.82 26.1823C110.82 25.4656 110.262 24.9082 109.584 24.9082C108.906 24.9082 108.348 25.4258 108.348 26.1823C108.348 26.8991 108.866 27.4565 109.584 27.4565ZM109.584 24.51C110.501 24.51 111.219 25.1869 111.219 26.1823C111.219 27.1778 110.501 27.8547 109.584 27.8547C108.667 27.8547 107.949 27.1778 107.949 26.1823C107.949 25.1869 108.627 24.51 109.584 24.51Z" fill="#F6F6F6"/>
<path d="M112.655 23.8333C112.734 24.0324 112.894 24.1519 113.133 24.1519C113.372 24.1519 113.572 24.0722 113.612 23.8333H113.971C113.931 24.1917 113.572 24.3908 113.133 24.3908C112.655 24.3908 112.336 24.1519 112.256 23.8333H112.655ZM111.777 27.7752V24.55H112.176V27.1382L114.13 24.55H114.489V27.7752H114.09V25.1871L112.136 27.7752H111.777Z" fill="#F6F6F6"/>
<path d="M119.035 24.9082H117.878L117.838 25.5054C117.639 27.5361 117.2 27.8149 116.722 27.7352V27.337C116.961 27.3769 117.36 27.2574 117.479 25.1471L117.519 24.51H119.433V27.7352H119.035V24.9082Z" fill="#F6F6F6"/>
<path d="M121.627 27.4565C122.385 27.4565 122.863 26.8991 122.863 26.1823C122.863 25.4656 122.305 24.8684 121.627 24.8684C120.949 24.8684 120.391 25.386 120.391 26.1425C120.391 26.8991 120.949 27.4565 121.627 27.4565ZM121.627 24.51C122.544 24.51 123.262 25.1869 123.262 26.1823C123.262 27.1778 122.544 27.8547 121.627 27.8547C120.71 27.8547 119.992 27.1778 119.992 26.1823C119.992 25.1869 120.67 24.51 121.627 24.51Z" fill="#F6F6F6"/>
<path d="M123.82 24.5499H125.615V24.9082H124.219V27.7751H123.82V24.5499Z" fill="#F6F6F6"/>
<path d="M126.014 27.7751V24.5499H126.412V27.138L128.366 24.5499H128.725V27.7751H128.327V25.1869L126.373 27.7751H126.014Z" fill="#F6F6F6"/>
<path d="M131.915 27.4565C131.716 27.6954 131.317 27.8148 130.918 27.8148C129.961 27.8148 129.283 27.1777 129.283 26.1425C129.283 25.2267 129.881 24.4702 130.878 24.4702C131.277 24.4702 131.636 24.5896 131.875 24.7887L131.676 25.0674C131.476 24.9081 131.237 24.8285 130.878 24.8285C130.161 24.8285 129.682 25.3461 129.682 26.1027C129.682 26.8592 130.2 27.3768 130.918 27.3768C131.237 27.3768 131.516 27.2574 131.756 27.0981L131.915 27.4565Z" fill="#F6F6F6"/>
<path d="M131.955 24.5499H134.587V24.9082H133.47V27.7751H133.072V24.9082H131.955V24.5499Z" fill="#F6F6F6"/>
<path d="M134.985 27.7751V24.5499H135.384V27.138L137.338 24.5499H137.697V27.7751H137.298V25.1869L135.344 27.7751H134.985Z" fill="#F6F6F6"/>
<path d="M139.411 26.0629L140.927 27.7751H140.408L138.933 26.1027L140.329 24.5499H140.807L139.411 26.0629ZM138.494 24.5499H138.893V27.7751H138.494V24.5499Z" fill="#F6F6F6"/>
<path d="M141.326 27.7751V24.5499H141.725V27.138L143.679 24.5499H144.038V27.7751H143.639V25.1869L141.685 27.7751H141.326Z" fill="#F6F6F6"/>
<path d="M35.4108 8.66245C35.4108 11.5293 36.2881 12.8433 38.9997 12.8433C40.3556 12.8433 41.3525 12.3655 41.831 11.6488C42.1899 11.0515 42.6684 10.6931 43.3464 10.6931H45.3004C45.7789 10.6931 46.0979 11.0515 46.0979 11.4895C46.0979 14.4758 43.3065 15.949 38.6807 15.949C33.5764 15.949 30.7451 13.4804 30.7451 8.70227C30.7451 3.92417 33.5764 1.37585 38.5212 1.37585C43.147 1.37585 45.9384 2.8491 45.9384 5.83541C45.9384 6.2734 45.5795 6.63176 45.1408 6.63176H43.1869C42.5089 6.63176 42.0703 6.2734 41.6715 5.67614C41.193 4.95943 40.2359 4.48162 38.8402 4.48162C36.3279 4.4418 35.4108 5.71596 35.4108 8.66245Z" fill="white"/>
<path d="M63.2853 8.62264C63.2853 13.4406 60.454 15.9092 55.3497 15.9092C50.2454 15.9092 47.4141 13.4406 47.4141 8.62264C47.4141 3.80472 50.2852 1.37585 55.3497 1.37585C60.4141 1.37585 63.2853 3.80472 63.2853 8.62264ZM58.7392 8.62264C58.7392 5.51687 57.6227 4.28253 55.3497 4.28253C53.0766 4.28253 51.9601 5.55669 51.9601 8.62264C51.9601 11.6886 53.0766 13.0026 55.3497 13.0026C57.6227 13.0026 58.7392 11.7284 58.7392 8.62264Z" fill="white"/>
<path d="M75.3282 7.50759C75.3282 5.31762 74.4908 4.44164 73.0552 4.44164C71.9386 4.44164 71.1012 5.15835 70.2638 6.27324V14.834C70.2638 15.272 69.9049 15.6304 69.4662 15.6304H66.5153C66.0767 15.6304 65.7178 15.272 65.7178 14.834V2.41095C65.7178 1.97296 66.0767 1.6146 66.5153 1.6146H69.4662C69.9049 1.6146 70.2638 1.97296 70.2638 2.41095V3.2073C71.3006 2.21186 72.457 1.33588 74.3313 1.33588C76.4847 1.33588 77.9202 2.17204 78.9571 3.80456C80.4724 2.2915 82.1074 1.33588 83.9417 1.33588C87.2117 1.33588 89.4847 3.12766 89.4847 7.50759V14.834C89.4847 15.272 89.1258 15.6304 88.6871 15.6304H85.7362C85.2976 15.6304 84.9387 15.272 84.9387 14.834V7.50759C84.9387 5.31762 84.1012 4.44164 82.6657 4.44164C81.7884 4.44164 80.7117 5.15835 79.7945 6.3927C79.8344 6.75105 79.8742 7.10941 79.8742 7.50759V14.834C79.8742 15.272 79.5153 15.6304 79.0767 15.6304H76.1258C75.6871 15.6304 75.3282 15.272 75.3282 14.834V7.50759Z" fill="white"/>
<path d="M106.233 15.909C102.485 15.909 100.61 14.3959 100.61 11.1707V1.2163C100.61 0.857946 100.969 0.579224 101.408 0.579224H104.319C104.758 0.579224 105.116 0.857946 105.116 1.2163V4.72024H108.785C109.224 4.72024 109.583 4.99896 109.583 5.35732V6.59166C109.583 6.95002 109.224 7.22874 108.785 7.22874H105.116V11.091C105.116 12.5643 106.074 13.3208 107.429 13.3208C108.147 13.3208 108.626 13.2014 109.224 13.2014H109.702C110.141 13.2014 110.5 13.4801 110.5 13.8384V14.9533C110.5 15.2719 110.141 15.5506 109.702 15.5904C108.905 15.8293 107.429 15.909 106.233 15.909Z" fill="white"/>
<path d="M117.398 5.11854C117.04 5.55653 116.561 5.79543 115.883 5.79543H113.929C113.49 5.79543 113.132 5.43708 113.132 4.99908C113.132 2.2915 115.923 1.33588 120.27 1.33588C124.138 1.33588 127.168 2.88876 127.168 6.91032V14.834C127.168 15.272 126.809 15.6304 126.371 15.6304H123.859C123.42 15.6304 123.061 15.3118 123.061 14.834V14.4358C121.865 15.272 120.389 15.8693 118.316 15.8693C114.806 15.8693 112.095 14.3164 112.095 11.3699C112.095 8.42339 114.767 6.95014 118.276 6.95014H122.622C122.622 4.91945 121.745 4.28237 119.951 4.28237C118.874 4.28237 117.877 4.60091 117.398 5.11854ZM122.662 11.8477V9.85682H118.635C117.359 9.85682 116.641 10.5337 116.641 11.4097C116.641 12.3255 117.359 13.0024 118.754 13.0024C120.349 13.0024 121.705 12.4051 122.662 11.8477Z" fill="white"/>
<path d="M136.819 15.9092C132.433 15.9092 129.601 14.9536 129.601 12.246C129.601 11.808 129.96 11.4497 130.399 11.4497H132.353C133.031 11.4497 133.509 11.7284 133.868 12.1266C134.307 12.684 135.304 13.0026 136.46 13.0026C138.733 13.0026 139.451 12.5247 139.451 11.7682C139.451 9.57826 129.521 10.8126 129.521 5.51687C129.601 2.53056 132.632 1.37585 136.42 1.37585C140.807 1.37585 143.598 2.33147 143.598 5.03906C143.598 5.47705 143.239 5.83541 142.801 5.83541H140.847C140.169 5.83541 139.69 5.55669 139.331 5.15851C138.893 4.60107 137.896 4.28253 136.739 4.28253C134.905 4.28253 134.147 4.76034 134.147 5.51687C134.147 7.70683 144.077 6.43267 144.077 11.7682C144.037 14.7147 141.006 15.9092 136.819 15.9092Z" fill="white"/>
<path d="M93.4724 15.7892C93.0337 15.7892 92.6748 15.5503 92.6748 15.1919V6.35243C92.6748 6.03389 93.0337 5.79498 93.4724 5.79498H96.4233C96.8619 5.79498 97.2208 6.03389 97.2208 6.35243V15.2317C97.2208 15.5503 96.8619 15.829 96.4233 15.829L93.4724 15.7892Z" fill="white"/>
<path d="M93.3522 4.28273C92.9136 4.28273 92.5547 3.80492 92.5547 3.68547V1.2566C92.5547 1.13715 92.9136 0.699158 93.3522 0.699158H96.3032C96.7418 0.699158 97.1007 1.13715 97.1007 1.2566V3.68547C97.1007 3.80492 96.7418 4.28273 96.3032 4.28273H93.3522Z" fill="white"/>
</svg>
