<svg width="110" height="20" viewBox="0 0 110 20" fill="none" xmlns="http://www.w3.org/2000/svg">
<path d="M82.7024 6.2741H83.0639V0H82.8272L81.8416 1.25152C81.2139 0.660935 79.7335 0.390828 79.0911 0.390828C75.8332 0.390828 73.5866 4.19489 73.5866 8.65989C73.5866 13.8005 75.8791 16.8951 79.1177 16.8951C82.2132 16.8951 83.3476 13.25 83.4788 10.608H83.0759C82.7841 12.6733 81.7801 15.7095 79.941 15.7095C78.5478 15.7095 78.3203 14.1411 78.3203 11.6649V5.05558C78.3203 2.75751 78.8067 1.17162 80.119 1.17162C81.5516 1.17162 82.5537 3.6625 82.7042 6.27497L82.7024 6.2741ZM5.52652 1.56679V7.85913H6.31944C6.8921 7.85913 7.50881 7.51433 7.50881 5.95102V3.40542C7.50881 1.55028 6.83336 1.56765 6.41304 1.56765L5.52652 1.56853V1.56679ZM0 15.6992H1.17743V1.56679H0V0.835505L6.94991 0.837242C9.51678 0.837242 11.4458 2.20254 11.4458 4.30693C11.4458 6.39656 10.3795 7.92947 8.27235 8.20479V8.42887C10.0913 8.39586 12.2516 9.75591 12.2516 11.8785C12.2516 14.9409 10.0454 16.4686 7.01323 16.4686H0V15.6992ZM5.51367 8.63645L5.52561 15.6992H6.36991C6.80124 15.7 7.897 15.72 7.897 13.7919V10.5176C7.897 9.13327 6.98203 8.63645 6.3176 8.63645H5.51367ZM13.0528 1.56332H14.233V15.6983H13.0528V16.4617H23.3093V10.6002H22.9917C22.6723 13.3915 21.7362 15.7105 18.5802 15.7044L18.5591 8.63471H18.9821C20.2449 8.63471 20.7901 10.1902 20.9598 11.7665H21.3563V4.71774H20.9608C20.8442 6.3375 20.2266 7.85826 18.9831 7.85826H18.5812L18.56 1.56505C18.56 1.56505 22.2942 0.705229 22.5668 6.29495H22.9495V0.830294H13.0528V1.56332ZM29.2716 1.58068V15.7061H26.6938V15.3135C27.2729 13.9456 27.6877 9.94182 27.6877 7.46569V3.15008C27.6877 1.97846 28.0731 1.58068 28.4796 1.58068C28.4806 1.58068 29.2716 1.58068 29.2716 1.58068ZM24.9244 0.835505V1.57461H26.1331C26.5194 1.57461 26.8975 1.96109 26.8975 3.14226V7.69237C26.8975 11.3566 26.4983 15.0165 25.3135 15.7061H24.1269V20H24.5225C24.5225 17.8079 25.3649 16.4695 27.2921 16.4695H31.6458C33.6493 16.4695 34.812 17.4944 34.812 20H35.2075V15.707H33.6235V1.58155L34.811 1.57461V0.835505H24.9244ZM49.4615 3.93174H49.0596L49.0486 14.1089C49.0486 15.2171 49.7011 15.7044 50.6198 15.713L50.6326 16.4686H46.6891V15.7208C47.26 15.7208 48.2694 15.6218 48.2694 14.1272L48.2722 1.55897H47.0874V0.832899H52.5406L53.8079 6.14904L55.0734 0.832899L60.9275 0.831162V1.539H59.7217L59.7419 15.7017H60.9267V16.4625H54.197V15.7017H55.3928V3.92392H55.0753L52.6213 16.4695L52.2606 16.4625L49.4615 3.93174ZM88.2335 1.56245C86.2283 1.56245 85.0922 3.93695 85.0922 6.28018H84.6737V0.82074L96.14 0.833767V6.28105H95.7182C95.7182 4.1341 94.7502 1.56157 92.566 1.56157V15.7148H94.162V16.4625H86.667V15.7148H88.2317V1.56157L88.2335 1.56245ZM96.9435 1.55636H98.1363V15.6992H96.9521V16.4625H103.26V15.6992H102.451V14.9314L104.127 6.69012H104.445L104.469 15.6992H103.662V16.4625H110V15.7122H108.783V1.56939H110V0.833767H103.664V1.56939H104.469V2.37364L102.793 10.2033H102.476V1.55636H103.282V0.833767H96.9435V1.55636ZM39.9402 2.34236C39.9402 1.38701 40.4174 1.07695 40.9433 1.07695C41.4701 1.07695 41.9417 1.38701 41.9417 2.34236V14.8862C41.9417 15.8425 41.4701 16.1925 40.9433 16.1925C40.4174 16.1925 39.9402 15.8425 39.9402 14.8862V2.34236ZM35.6003 8.6651C35.6003 12.5325 37.2788 16.8777 40.9424 16.8777C44.6105 16.8777 46.2908 12.5804 46.2908 8.71547C46.2908 4.84801 44.6114 0.391697 40.9433 0.391697C37.2788 0.391697 35.6003 4.80025 35.6003 8.6651ZM66.0595 2.34236C66.0595 1.38701 66.5376 1.07695 67.0626 1.07695C67.5893 1.07695 68.062 1.38701 68.062 2.34236V14.8862C68.062 15.8425 67.5893 16.1925 67.0626 16.1925C66.5376 16.1925 66.0595 15.8425 66.0595 14.8862V2.34236ZM61.7195 8.6651C61.7195 12.5325 63.3982 16.8777 67.0616 16.8777C70.7298 16.8777 72.4093 12.5804 72.4093 8.71547C72.4093 4.84801 70.7307 0.391697 67.0626 0.391697C63.3981 0.391697 61.7195 4.79937 61.7195 8.6651Z" fill="white"/>
</svg>
