<svg width="94" height="19" viewBox="0 0 94 19" fill="none" xmlns="http://www.w3.org/2000/svg">
<path d="M70.4263 5.77796H70.7322V0H70.5319L69.6979 1.15255C69.1668 0.60867 67.9144 0.359923 67.3708 0.359923C64.6144 0.359923 62.7136 3.86317 62.7136 7.97509C62.7136 12.7093 64.6532 15.5591 67.3934 15.5591C70.0124 15.5591 70.9721 12.2022 71.0831 9.76911H70.7423C70.4954 11.6711 69.6459 14.4673 68.0899 14.4673C66.9112 14.4673 66.7186 13.0228 66.7186 10.7425V4.6558C66.7186 2.53946 67.1301 1.07897 68.2405 1.07897C69.4526 1.07897 70.3005 3.37288 70.4278 5.77876H70.4263V5.77796ZM5.12903 1.44289V7.23765H5.7999C6.28441 7.23765 6.8062 6.92012 6.8062 5.48043V3.13613C6.8062 1.42769 6.23472 1.44369 5.8791 1.44369L5.12903 1.44449V1.44289ZM0.453125 14.4577H1.44934V1.44289H0.453125V0.769435L6.33333 0.771034C8.50512 0.771034 10.1373 2.02836 10.1373 3.96635C10.1373 5.89074 9.235 7.30243 7.45222 7.55598V7.76234C8.99119 7.73194 10.819 8.98447 10.819 10.9393C10.819 13.7594 8.95236 15.1663 6.38691 15.1663H0.453125V14.4577ZM5.11816 7.9535L5.12825 14.4577H5.8426C6.20754 14.4585 7.13465 14.4769 7.13465 12.7013V9.68592C7.13465 8.411 6.36051 7.9535 5.79834 7.9535H5.11816ZM11.4969 1.43969H12.4954V14.4569H11.4969V15.16H20.1747V9.76191H19.906C19.6358 12.3326 18.8438 14.4681 16.1735 14.4625L16.1557 7.95189H16.5136C17.5821 7.95189 18.0433 9.38439 18.1869 10.8361H18.5224V4.34467H18.1877C18.0891 5.83635 17.5665 7.23685 16.5144 7.23685H16.1743L16.1565 1.44129C16.1565 1.44129 19.3159 0.649461 19.5465 5.79716H19.8703V0.764636H11.4969V1.43969ZM25.2194 1.45569V14.4641H23.0383V14.1026C23.5283 12.8428 23.8792 9.15564 23.8792 6.87533V2.90098C23.8792 1.82201 24.2053 1.45569 24.5493 1.45569C24.5501 1.45569 25.2194 1.45569 25.2194 1.45569ZM21.5413 0.769435V1.45009H22.5639C22.8908 1.45009 23.2107 1.80601 23.2107 2.89378V7.08408C23.2107 10.4586 22.8729 13.829 21.8705 14.4641H20.8665V18.4185H21.2012C21.2012 16.3997 21.914 15.1671 23.5446 15.1671H27.2281C28.9232 15.1671 29.907 16.1109 29.907 18.4185H30.2416V14.4649H28.9014V1.45649L29.9062 1.45009V0.769435H21.5405H21.5413ZM42.3017 3.62082H41.9617L41.9523 12.9932C41.9523 14.0138 42.5044 14.4625 43.2816 14.4705L43.2925 15.1663H39.956V14.4777C40.439 14.4777 41.2931 14.3865 41.2931 13.01L41.2954 1.43569H40.293V0.767036H44.9068L45.9791 5.66279L47.0499 0.767036L52.003 0.765436V1.4173H50.9827L50.9998 14.4601H52.0022V15.1607H46.3083V14.4601H47.3201V3.61363H47.0514L44.9751 15.1671L44.67 15.1607L42.3017 3.62082ZM75.106 1.43889C73.4095 1.43889 72.4482 3.62562 72.4482 5.78356H72.0941V0.755838L81.7953 0.767835V5.78436H81.4389C81.4389 3.80718 80.6198 1.43809 78.7718 1.43809V14.4721H80.122V15.1607H73.7806V14.4721H75.1045V1.43809L75.106 1.43889ZM82.4755 1.43329H83.4849V14.4577H82.4825V15.1607H87.82V14.4577H87.1351V13.7507L88.5529 6.16108H88.8216L88.8426 14.4577H88.16V15.1607H93.5224V14.4697H92.4928V1.44529H93.5224V0.767835H88.1616V1.44529H88.8433V2.18593L87.424 9.39639H87.1561V1.43329H87.8386V0.767835H82.4755V1.43329ZM34.2459 2.15714C34.2459 1.27733 34.6496 0.991787 35.0945 0.991787C35.5402 0.991787 35.9394 1.27733 35.9394 2.15714V13.7091C35.9394 14.5897 35.5402 14.912 35.0945 14.912C34.6496 14.912 34.2459 14.5897 34.2459 13.7091V2.15714ZM30.5739 7.97989C30.5739 11.5415 31.9941 15.5431 35.0938 15.5431C38.1973 15.5431 39.619 11.5855 39.619 8.02628C39.619 4.46464 38.1981 0.360722 35.0945 0.360722C31.9941 0.360722 30.5739 4.42065 30.5739 7.97989ZM56.345 2.15714C56.345 1.27733 56.7495 0.991787 57.1937 0.991787C57.6393 0.991787 58.0392 1.27733 58.0392 2.15714V13.7091C58.0392 14.5897 57.6393 14.912 57.1937 14.912C56.7495 14.912 56.345 14.5897 56.345 13.7091V2.15714ZM52.673 7.97989C52.673 11.5415 54.0932 15.5431 57.1929 15.5431C60.2964 15.5431 61.7174 11.5855 61.7174 8.02628C61.7174 4.46464 60.2972 0.360722 57.1937 0.360722C54.0932 0.360722 52.6738 4.41985 52.6738 7.97989H52.673Z" fill="white"/>
</svg>
