<svg width="413" height="409" viewBox="0 0 413 409" fill="none" xmlns="http://www.w3.org/2000/svg">
<g filter="url(#filter0_d_2003_308)">
<ellipse cx="204" cy="204.5" rx="187" ry="186.5" fill="white"/>
</g>
<g filter="url(#filter1_d_2003_308)">
<path d="M402 204.5C405.866 204.5 409.013 201.364 408.88 197.5C407.373 153.59 391.721 111.259 364.149 76.8385C336.572 42.4119 298.627 17.8424 256.017 6.69271C252.279 5.71478 248.53 8.08984 247.676 11.8573L205.938 195.952C204.945 200.332 208.274 204.5 212.765 204.5H402Z" fill="#095FF0"/>
</g>
<path d="M131.001 295.793H126.733L143.597 264.199V263.002H122.726V259.359H147.397V264.98L131.001 295.793ZM164.46 296.366C160.262 296.366 156.913 295.446 154.415 293.607C151.917 291.733 150.667 289.165 150.667 285.904C150.667 283.683 151.309 281.774 152.593 280.178C153.877 278.582 155.664 277.454 157.954 276.795V276.535C155.872 275.806 154.311 274.748 153.27 273.36C152.264 271.972 151.76 270.358 151.76 268.519C151.76 265.604 152.871 263.262 155.092 261.493C157.347 259.688 160.47 258.786 164.46 258.786C167.098 258.786 169.37 259.202 171.279 260.035C173.222 260.833 174.697 261.978 175.703 263.47C176.709 264.928 177.213 266.611 177.213 268.519C177.213 270.358 176.692 271.972 175.651 273.36C174.645 274.748 173.083 275.806 170.967 276.535V276.795C173.257 277.454 175.044 278.582 176.328 280.178C177.612 281.774 178.254 283.683 178.254 285.904C178.254 289.165 177.004 291.733 174.506 293.607C172.008 295.446 168.659 296.366 164.46 296.366ZM164.46 275.025C167.375 275.025 169.596 274.47 171.123 273.36C172.65 272.215 173.413 270.653 173.413 268.675C173.413 266.663 172.667 265.101 171.175 263.991C169.683 262.881 167.445 262.325 164.46 262.325C161.476 262.325 159.238 262.881 157.746 263.991C156.254 265.101 155.508 266.663 155.508 268.675C155.508 270.653 156.271 272.215 157.798 273.36C159.325 274.47 161.546 275.025 164.46 275.025ZM164.46 292.826C167.653 292.826 170.116 292.219 171.851 291.004C173.621 289.79 174.506 288.003 174.506 285.643C174.506 283.319 173.621 281.549 171.851 280.334C170.116 279.12 167.653 278.513 164.46 278.513C161.303 278.513 158.839 279.12 157.069 280.334C155.335 281.549 154.467 283.319 154.467 285.643C154.467 288.003 155.335 289.79 157.069 291.004C158.839 292.219 161.303 292.826 164.46 292.826ZM185.651 291.369C186.553 291.369 187.299 291.716 187.889 292.41C188.479 293.104 188.774 294.11 188.774 295.429C188.774 297.129 188.305 298.586 187.368 299.801C186.431 301.05 185.182 301.831 183.621 302.143V300.217C184.453 299.974 185.095 299.454 185.547 298.656C185.998 297.858 186.154 297.06 186.015 296.261C185.911 296.296 185.72 296.313 185.442 296.313C184.748 296.313 184.159 296.088 183.673 295.637C183.187 295.151 182.944 294.561 182.944 293.867C182.944 293.138 183.187 292.549 183.673 292.097C184.193 291.612 184.853 291.369 185.651 291.369ZM206.703 296.366C203.962 296.366 201.568 295.897 199.521 294.96C197.473 294.023 195.877 292.739 194.732 291.109C193.587 289.478 192.928 287.656 192.754 285.643H196.658C196.97 287.829 197.994 289.582 199.729 290.9C201.498 292.184 203.823 292.826 206.703 292.826C208.716 292.826 210.468 292.427 211.96 291.629C213.452 290.831 214.597 289.755 215.396 288.402C216.194 287.014 216.593 285.453 216.593 283.718C216.593 282.121 216.211 280.664 215.448 279.345C214.684 278.027 213.574 276.986 212.116 276.222C210.694 275.424 209.028 275.025 207.12 275.025C205.107 275.025 203.355 275.372 201.863 276.066C200.405 276.76 199.278 277.645 198.48 278.721H194.94L197.751 259.359H217.946V262.898H200.561L198.844 274.453H199.104C201.29 272.579 204.118 271.642 207.588 271.642C210.121 271.642 212.359 272.18 214.302 273.256C216.246 274.331 217.738 275.789 218.779 277.628C219.854 279.467 220.392 281.497 220.392 283.718C220.392 286.147 219.837 288.333 218.727 290.276C217.651 292.184 216.072 293.676 213.99 294.752C211.943 295.828 209.514 296.366 206.703 296.366ZM248.92 284.134H254.125V287.673H248.92V295.793H245.277V287.673H224.717V282.468L237.573 259.359H241.685L228.569 282.989V284.134H245.277V271.902H248.92V284.134ZM264.608 275.702C263.046 275.702 261.641 275.32 260.392 274.557C259.177 273.793 258.223 272.77 257.529 271.486C256.835 270.202 256.488 268.779 256.488 267.218C256.488 265.656 256.835 264.234 257.529 262.95C258.223 261.666 259.177 260.66 260.392 259.931C261.641 259.168 263.046 258.786 264.608 258.786C266.169 258.786 267.557 259.168 268.772 259.931C269.986 260.66 270.94 261.666 271.634 262.95C272.328 264.234 272.675 265.656 272.675 267.218C272.675 268.779 272.328 270.202 271.634 271.486C270.94 272.77 269.986 273.793 268.772 274.557C267.557 275.32 266.169 275.702 264.608 275.702ZM264.139 295.793H260.756L282.773 259.359H286.104L264.139 295.793ZM264.608 272.891C266.169 272.891 267.418 272.371 268.355 271.33C269.292 270.254 269.761 268.884 269.761 267.218C269.761 265.552 269.292 264.199 268.355 263.158C267.418 262.117 266.169 261.597 264.608 261.597C263.046 261.597 261.78 262.117 260.808 263.158C259.871 264.199 259.403 265.552 259.403 267.218C259.403 268.884 259.871 270.254 260.808 271.33C261.78 272.371 263.046 272.891 264.608 272.891ZM282.304 296.366C280.743 296.366 279.338 296.001 278.088 295.272C276.874 294.509 275.92 293.485 275.226 292.202C274.532 290.918 274.185 289.495 274.185 287.934C274.185 286.372 274.532 284.949 275.226 283.665C275.92 282.382 276.874 281.358 278.088 280.595C279.338 279.831 280.743 279.45 282.304 279.45C283.866 279.45 285.254 279.831 286.468 280.595C287.683 281.358 288.637 282.382 289.331 283.665C290.025 284.949 290.372 286.372 290.372 287.934C290.372 289.495 290.025 290.918 289.331 292.202C288.637 293.485 287.683 294.509 286.468 295.272C285.254 296.001 283.866 296.366 282.304 296.366ZM282.304 293.555C283.866 293.555 285.115 293.034 286.052 291.993C287.024 290.952 287.509 289.599 287.509 287.934C287.509 286.268 287.024 284.915 286.052 283.874C285.115 282.798 283.866 282.26 282.304 282.26C280.743 282.26 279.476 282.798 278.505 283.874C277.568 284.915 277.099 286.268 277.099 287.934C277.099 289.599 277.568 290.952 278.505 291.993C279.476 293.034 280.743 293.555 282.304 293.555Z" fill="#095FF0"/>
<path d="M252.219 148V143.619L263.586 135.726C265.375 134.436 266.651 133.226 267.414 132.095C268.203 130.963 268.598 129.7 268.598 128.306C268.598 126.595 268.045 125.227 266.94 124.201C265.861 123.149 264.375 122.622 262.48 122.622C260.375 122.622 258.744 123.201 257.586 124.359C256.429 125.49 255.771 126.938 255.613 128.7H252.732C252.785 127.148 253.166 125.714 253.877 124.398C254.613 123.057 255.692 121.978 257.113 121.162C258.56 120.346 260.349 119.939 262.48 119.939C264.296 119.939 265.875 120.294 267.217 121.004C268.585 121.688 269.624 122.662 270.334 123.925C271.071 125.161 271.44 126.595 271.44 128.227C271.44 130.095 270.966 131.766 270.019 133.239C269.071 134.686 267.466 136.199 265.204 137.778L255.81 144.448V145.316H272.15V148H252.219ZM275.53 125.227L281.647 120.373H284.213V148H281.45V123.767L275.53 128.424V125.227ZM291.922 144.645C292.606 144.645 293.171 144.908 293.619 145.435C294.066 145.961 294.29 146.724 294.29 147.724C294.29 149.013 293.934 150.118 293.224 151.039C292.514 151.986 291.566 152.578 290.382 152.815V151.355C291.014 151.171 291.501 150.776 291.843 150.171C292.185 149.566 292.303 148.96 292.198 148.355C292.119 148.382 291.974 148.395 291.764 148.395C291.238 148.395 290.79 148.224 290.422 147.882C290.053 147.513 289.869 147.066 289.869 146.54C289.869 145.987 290.053 145.54 290.422 145.198C290.817 144.829 291.316 144.645 291.922 144.645ZM314.613 139.159H318.56V141.843H314.613V148H311.851V141.843H296.261V137.896L306.009 120.373H309.127L299.181 138.291V139.159H311.851V129.884H314.613V139.159ZM331.591 129.213C333.722 129.213 335.59 129.634 337.195 130.476C338.826 131.318 340.076 132.476 340.945 133.95C341.813 135.397 342.247 137.015 342.247 138.804C342.247 140.593 341.813 142.225 340.945 143.698C340.076 145.171 338.826 146.329 337.195 147.171C335.59 148.013 333.722 148.434 331.591 148.434C329.46 148.434 327.578 148.013 325.947 147.171C324.342 146.303 323.105 145.145 322.237 143.698C321.369 142.225 320.935 140.593 320.935 138.804C320.935 136.41 321.934 133.897 323.934 131.266L332.301 120.373H335.695L328.512 129.569C329.381 129.332 330.407 129.213 331.591 129.213ZM331.591 145.869C333.196 145.869 334.59 145.566 335.774 144.961C336.958 144.356 337.853 143.514 338.458 142.435C339.09 141.356 339.405 140.146 339.405 138.804C339.405 137.462 339.09 136.265 338.458 135.213C337.853 134.134 336.958 133.292 335.774 132.687C334.59 132.081 333.196 131.779 331.591 131.779C329.986 131.779 328.591 132.081 327.407 132.687C326.249 133.292 325.355 134.134 324.723 135.213C324.118 136.265 323.816 137.462 323.816 138.804C323.816 140.146 324.118 141.356 324.723 142.435C325.355 143.514 326.249 144.356 327.407 144.961C328.591 145.566 329.986 145.869 331.591 145.869ZM351.561 132.766C350.377 132.766 349.312 132.476 348.364 131.897C347.444 131.318 346.72 130.542 346.194 129.569C345.667 128.595 345.404 127.516 345.404 126.332C345.404 125.148 345.667 124.07 346.194 123.096C346.72 122.122 347.444 121.359 348.364 120.807C349.312 120.228 350.377 119.939 351.561 119.939C352.745 119.939 353.798 120.228 354.719 120.807C355.64 121.359 356.363 122.122 356.889 123.096C357.416 124.07 357.679 125.148 357.679 126.332C357.679 127.516 357.416 128.595 356.889 129.569C356.363 130.542 355.64 131.318 354.719 131.897C353.798 132.476 352.745 132.766 351.561 132.766ZM351.206 148H348.641L365.335 120.373H367.861L351.206 148ZM351.561 130.634C352.745 130.634 353.693 130.24 354.403 129.45C355.113 128.635 355.469 127.595 355.469 126.332C355.469 125.069 355.113 124.043 354.403 123.254C353.693 122.465 352.745 122.07 351.561 122.07C350.377 122.07 349.417 122.465 348.68 123.254C347.97 124.043 347.615 125.069 347.615 126.332C347.615 127.595 347.97 128.635 348.68 129.45C349.417 130.24 350.377 130.634 351.561 130.634ZM364.98 148.434C363.796 148.434 362.731 148.158 361.783 147.605C360.862 147.026 360.139 146.25 359.613 145.277C359.086 144.303 358.823 143.224 358.823 142.04C358.823 140.856 359.086 139.778 359.613 138.804C360.139 137.831 360.862 137.054 361.783 136.475C362.731 135.897 363.796 135.607 364.98 135.607C366.164 135.607 367.217 135.897 368.138 136.475C369.059 137.054 369.782 137.831 370.308 138.804C370.835 139.778 371.098 140.856 371.098 142.04C371.098 143.224 370.835 144.303 370.308 145.277C369.782 146.25 369.059 147.026 368.138 147.605C367.217 148.158 366.164 148.434 364.98 148.434ZM364.98 146.303C366.164 146.303 367.111 145.908 367.822 145.119C368.559 144.33 368.927 143.303 368.927 142.04C368.927 140.777 368.559 139.751 367.822 138.962C367.111 138.146 366.164 137.738 364.98 137.738C363.796 137.738 362.836 138.146 362.099 138.962C361.389 139.751 361.033 140.777 361.033 142.04C361.033 143.303 361.389 144.33 362.099 145.119C362.836 145.908 363.796 146.303 364.98 146.303Z" fill="white"/>
<defs>
<filter id="filter0_d_2003_308" x="13" y="18" width="382" height="381" filterUnits="userSpaceOnUse" color-interpolation-filters="sRGB">
<feFlood flood-opacity="0" result="BackgroundImageFix"/>
<feColorMatrix in="SourceAlpha" type="matrix" values="0 0 0 0 0 0 0 0 0 0 0 0 0 0 0 0 0 0 127 0" result="hardAlpha"/>
<feOffset dy="4"/>
<feGaussianBlur stdDeviation="2"/>
<feComposite in2="hardAlpha" operator="out"/>
<feColorMatrix type="matrix" values="0 0 0 0 0 0 0 0 0 0 0 0 0 0 0 0 0 0 0.25 0"/>
<feBlend mode="normal" in2="BackgroundImageFix" result="effect1_dropShadow_2003_308"/>
<feBlend mode="normal" in="SourceGraphic" in2="effect1_dropShadow_2003_308" result="shape"/>
</filter>
<filter id="filter1_d_2003_308" x="201.762" y="6.47266" width="211.123" height="206.027" filterUnits="userSpaceOnUse" color-interpolation-filters="sRGB">
<feFlood flood-opacity="0" result="BackgroundImageFix"/>
<feColorMatrix in="SourceAlpha" type="matrix" values="0 0 0 0 0 0 0 0 0 0 0 0 0 0 0 0 0 0 127 0" result="hardAlpha"/>
<feOffset dy="4"/>
<feGaussianBlur stdDeviation="2"/>
<feComposite in2="hardAlpha" operator="out"/>
<feColorMatrix type="matrix" values="0 0 0 0 0 0 0 0 0 0 0 0 0 0 0 0 0 0 0.25 0"/>
<feBlend mode="normal" in2="BackgroundImageFix" result="effect1_dropShadow_2003_308"/>
<feBlend mode="normal" in="SourceGraphic" in2="effect1_dropShadow_2003_308" result="shape"/>
</filter>
</defs>
</svg>
