<svg width="111" height="21" viewBox="0 0 111 21" fill="none" xmlns="http://www.w3.org/2000/svg" class="vedomosti_icon__d_87J"><path d="M83.6879 6.5878H84.0496V0H83.8128L82.8268 1.31409C82.1988 0.693981 80.7179 0.41037 80.0752 0.41037C76.816 0.41037 74.5686 4.40464 74.5686 9.09289C74.5686 14.4906 76.862 17.7398 80.1018 17.7398C83.1985 17.7398 84.3333 13.9125 84.4646 11.1384H84.0616C83.7696 13.3069 82.7652 16.495 80.9254 16.495C79.5317 16.495 79.3041 14.8481 79.3041 12.2482V5.30836C79.3041 2.89538 79.7906 1.2302 81.1035 1.2302C82.5366 1.2302 83.5392 3.84563 83.6897 6.58872H83.6879V6.5878ZM6.48181 1.64513V8.25208H7.27504C7.84792 8.25208 8.46487 7.89004 8.46487 6.24857V3.57569C8.46487 1.6278 7.78916 1.64604 7.36868 1.64604L6.48181 1.64695V1.64513ZM0.953125 16.4841H2.13102V1.64513H0.953125V0.87728L7.90576 0.879104C10.4736 0.879104 12.4034 2.31266 12.4034 4.52227C12.4034 6.71639 11.3367 8.32595 9.22871 8.61503V8.85032C11.0483 8.81566 13.2095 10.2437 13.2095 12.4725C13.2095 15.688 11.0024 17.2921 7.9691 17.2921H0.953125V16.4841ZM6.46896 9.06827L6.4809 16.4841H7.32553C7.75703 16.485 8.85322 16.506 8.85322 14.4815V11.0435C8.85322 9.58994 7.93789 9.06827 7.2732 9.06827H6.46896ZM14.011 1.64148H15.1917V16.4832H14.011V17.2848H24.2715V11.1302H23.9538C23.6343 14.0611 22.6979 16.496 19.5406 16.4896L19.5195 9.06644H19.9427C21.206 9.06644 21.7513 10.6997 21.9212 12.3549H22.3178V4.95362H21.9221C21.8055 6.65437 21.1876 8.25118 19.9436 8.25118H19.5416L19.5204 1.64331C19.5204 1.64331 23.256 0.740491 23.5288 6.60969H23.9116V0.871808H14.011V1.64148ZM30.2362 1.65972V16.4914H27.6574V16.0792C28.2367 14.6429 28.6517 10.4389 28.6517 7.83898V3.30759C28.6517 2.07739 29.0372 1.65972 29.4439 1.65972C29.4449 1.65972 30.2362 1.65972 30.2362 1.65972ZM25.8873 0.87728V1.65334H27.0965C27.4829 1.65334 27.8612 2.05915 27.8612 3.29938V8.07699C27.8612 11.9245 27.4618 15.7674 26.2766 16.4914H25.0895V21H25.4852C25.4852 18.6983 26.328 17.293 28.2559 17.293H32.6113C34.6156 17.293 35.7788 18.3691 35.7788 21H36.1744V16.4923H34.5898V1.66063L35.7778 1.65334V0.87728H25.8864H25.8873ZM50.434 4.12832H50.0319L50.0209 14.8144C50.0209 15.9779 50.6737 16.4896 51.5927 16.4986L51.6055 17.2921H47.6605V16.5069C48.2316 16.5069 49.2414 16.4029 49.2414 14.8335L49.2442 1.63692H48.059V0.874544H53.5143L54.7821 6.45649L56.0481 0.874544L61.9045 0.87272V1.61595H60.6982L60.7184 16.4868H61.9037V17.2857H55.1713V16.4868H56.3676V4.12011H56.0499L53.595 17.293L53.2342 17.2857L50.434 4.12832ZM89.2211 1.64057C87.2152 1.64057 86.0786 4.13379 86.0786 6.59419H85.66V0.861777L97.1308 0.875456V6.5951H96.7088C96.7088 4.34081 95.7404 1.63965 93.5554 1.63965V16.5006H95.152V17.2857H87.654V16.5006H89.2193V1.63965L89.2211 1.64057ZM97.9345 1.63418H99.1278V16.4841H97.9432V17.2857H104.254V16.4841H103.444V15.6779L105.121 7.02462H105.439L105.463 16.4841H104.656V17.2857H110.996V16.4978H109.779V1.64786H110.996V0.875456H104.658V1.64786H105.463V2.49232L103.786 10.7134H103.469V1.63418H104.276V0.875456H97.9345V1.63418ZM40.909 2.45948C40.909 1.45636 41.3864 1.13079 41.9125 1.13079C42.4394 1.13079 42.9113 1.45636 42.9113 2.45948V15.6305C42.9113 16.6346 42.4394 17.0021 41.9125 17.0021C41.3864 17.0021 40.909 16.6346 40.909 15.6305V2.45948ZM36.5673 9.09835C36.5673 13.1592 38.2465 17.7216 41.9115 17.7216C45.5811 17.7216 47.2621 13.2094 47.2621 9.15125C47.2621 5.09041 45.582 0.411282 41.9125 0.411282C38.2465 0.411282 36.5673 5.04026 36.5673 9.09835ZM67.0385 2.45948C67.0385 1.45636 67.5168 1.13079 68.042 1.13079C68.5689 1.13079 69.0417 1.45636 69.0417 2.45948V15.6305C69.0417 16.6346 68.5689 17.0021 68.042 17.0021C67.5168 17.0021 67.0385 16.6346 67.0385 15.6305V2.45948ZM62.6968 9.09835C62.6968 13.1592 64.3761 17.7216 68.041 17.7216C71.7106 17.7216 73.3907 13.2094 73.3907 9.15125C73.3907 5.09041 71.7115 0.411282 68.042 0.411282C64.376 0.411282 62.6978 5.03934 62.6978 9.09835H62.6968Z" fill="#fff"></path></svg>