<svg width="111" height="38" viewBox="0 0 111 38" fill="none" xmlns="http://www.w3.org/2000/svg">
<g clip-path="url(#clip0_529_1424)">
<path d="M11.9379 35.811C7.99272 35.811 5.38604 32.3504 5.38604 27.0601C5.38604 20.7868 7.93033 17.2384 11.6956 17.2384C14.3567 17.2384 16.7523 19.2393 16.8379 21.8402L16.8691 22.7391H18.2468L17.9182 16.4114H16.5404L16.5716 17.2471C15.2563 16.5594 13.4883 15.9971 11.0057 15.9971C4.43057 15.9819 0 20.5213 0 27.0064C0 32.4984 3.41343 37.7255 10.8025 37.7255C13.0501 37.7255 17.472 37.1002 19.4526 30.6789L18.0205 30.2566C17.5344 31.8106 15.9767 35.811 11.9379 35.811Z" fill="white"/>
<path d="M34.7415 35.4517V27.1535C34.7415 24.052 32.6202 22.9428 30.6403 22.9428C29.5049 22.9428 28.2447 23.4194 26.3033 24.4656V14.0127C24.6913 14.7861 22.5932 15.4738 20.9492 15.7778V16.7942H21.4266C21.9352 16.7942 22.6236 16.6767 22.6236 18.0515V35.4589C22.6236 36.3266 22.1782 36.2954 21.724 36.2954H20.9492V37.3104H27.9785V36.2961H27.2037C26.7575 36.2961 26.3033 36.3273 26.3033 35.4596V25.482C26.8438 25.2404 27.9785 24.763 28.6989 24.763C29.6225 24.763 31.0626 25.1852 31.0626 27.5141V35.4596C31.0626 36.3266 30.6164 36.2954 30.1629 36.2954H29.3881V37.3111H36.4174V36.2954H35.6426C35.1877 36.2874 34.7415 36.3193 34.7415 35.4517Z" fill="white"/>
<path d="M51.3124 34.9126L46.498 28.4042L48.6201 26.045C50.029 24.4902 50.835 24.2791 51.5554 24.2791H52.0328V23.2634H45.7225V24.2791H46.4117C46.8267 24.2791 47.1865 24.5214 47.1865 24.9981C47.1865 25.2636 46.9747 25.8026 45.7537 27.3574L43.0926 30.67V14.0127C41.4725 14.7861 39.3744 15.4738 37.7305 15.7778V16.7942H38.2078C38.7164 16.7942 39.4056 16.6767 39.4056 18.0515V35.4589C39.4056 36.3266 38.9594 36.2954 38.5053 36.2954H37.7305V37.3104H44.7597V36.2961H43.9849C43.5387 36.2961 43.0846 36.3273 43.0846 35.4596V32.2958L44.1881 30.8898L47.2721 35.218C47.3896 35.398 47.5144 35.6635 47.5144 35.8427C47.5144 36.2649 46.9739 36.2881 46.6765 36.2881H46.4966V37.3038H53.3154V36.2881C52.3934 36.3193 51.916 35.7252 51.3124 34.9126Z" fill="white"/>
<path d="M67.0865 35.6322C66.6947 35.6322 66.6091 35.2411 66.6091 34.7964V27.4828C66.6091 23.8967 63.6498 22.9434 60.7776 22.9434C56.4406 22.9434 55.6034 24.9123 55.6034 26.0768C55.6034 27.2092 56.4406 27.9906 57.5209 27.9906C58.5387 27.9906 59.4942 27.3659 59.4942 26.1384C59.4942 25.8417 59.3767 25.545 59.3767 25.2163C59.3767 24.0838 60.2451 23.959 60.5745 23.959C61.8339 23.959 62.9381 24.53 62.9381 26.6789V28.7952C59.1416 29.5141 54.7734 30.3499 54.7734 33.9911C54.7734 35.9913 56.1199 37.6324 58.3356 37.6324C59.9796 37.6324 61.7483 36.9758 63.0629 35.7185C63.3074 36.8822 64.1678 37.6324 65.7574 37.6324C66.5322 37.6324 68.0891 37.3356 68.8102 35.1243L67.9404 34.7964C67.7126 35.2411 67.4151 35.6322 67.0865 35.6322ZM62.9287 34.5302C62.4832 35.0075 61.7635 35.6322 60.7769 35.6322C59.6966 35.6322 59.0393 34.9444 59.0393 33.7488C59.0393 30.9129 61.7926 30.0459 62.9287 29.8029V34.5302Z" fill="white"/>
<path d="M76.4493 35.4519V14.0122C74.8358 14.7856 72.7384 15.4733 71.0938 15.7781V16.7937H71.5733C72.0819 16.7937 72.7704 16.6762 72.7704 18.0525V35.4599C72.7704 36.3268 72.3242 36.2956 71.87 36.2956H71.0952V37.3113H78.1245V36.2956H77.3489C76.9035 36.2877 76.4493 36.3196 76.4493 35.4519Z" fill="white"/>
<path d="M87.1648 22.9434C82.6784 22.9434 79.8613 26.1079 79.8613 30.2875C79.8613 34.5302 82.6719 37.6331 87.1648 37.6331C91.6505 37.6331 94.4676 34.5548 94.4676 30.2875C94.4596 26.0136 91.6505 22.9434 87.1648 22.9434ZM87.1648 36.6159C84.2919 36.6159 84.1432 32.5539 84.1432 30.2875C84.1432 28.0218 84.2919 23.959 87.1648 23.959C90.2177 23.959 90.1865 28.5289 90.1865 30.2875C90.1865 32.0446 90.2177 36.6159 87.1648 36.6159Z" fill="white"/>
<path d="M105.591 23.2707V24.2872H106.248C106.546 24.2872 107.266 24.3184 107.266 25.1853C107.266 26.1074 106.068 29.3961 105.559 30.4981L104.424 33.0068L100.98 25.3028C100.917 25.2172 100.502 24.2872 101.489 24.2872H102.389V23.2707H95.3594V24.2872C96.1103 24.2248 96.7378 24.7319 97.0345 25.3884L102.389 37.6318H103.587L107.383 29.4824C109.325 25.3021 109.811 24.2864 110.734 24.2864H110.999V23.27L105.591 23.2707Z" fill="white"/>
<path d="M55.2437 20.7086H67.0562V17.6927C67.0482 17.6927 67.0482 17.6927 67.0409 17.7007V17.396C61.4046 18.9043 55.2285 19.0059 55.2285 19.0059V20.4119H55.2437V20.7086Z" fill="white"/>
<path d="M9.53685 11.0339H9.01595C8.53568 9.63447 7.75505 8.9351 6.67334 8.9351H3.69013C2.56852 8.9351 1.76758 9.63447 1.2873 11.0339H0.847656L1.2873 8.37502H1.54703C2.3886 8.37502 2.80866 7.76923 2.80866 6.55694V2.15902C2.80866 1.22604 2.3886 0.759548 1.54703 0.759548V0.200195H9.09503V0.759548C8.65538 0.759548 8.37026 0.839352 8.24475 0.99896C8.11779 1.15857 8.05395 1.45239 8.05395 1.87825V7.25559C8.05395 7.85557 8.20122 8.20235 8.49432 8.29594C8.6416 8.3489 8.87448 8.37574 9.19442 8.37574L9.53685 11.0339ZM6.23297 7.3158V1.81876C6.23297 1.11286 5.92319 0.759548 5.30652 0.759548H4.2357C3.94042 0.759548 3.70899 0.903195 3.5414 1.18904C3.37309 1.47633 3.28966 1.77233 3.28966 2.07849V6.59612C3.28966 7.51604 3.15544 8.10876 2.88846 8.37502H5.30652C5.92319 8.37574 6.23297 8.02243 6.23297 7.3158Z" fill="white"/>
<path d="M17.699 4.54737C17.699 5.76329 17.3645 6.81743 16.6971 7.71341C15.9759 8.68775 15.0212 9.17527 13.8336 9.17527C12.6329 9.17527 11.6643 8.70806 10.9309 7.7729C10.2634 6.919 9.92969 5.86849 9.92969 4.62718C9.92969 3.41198 10.2765 2.35712 10.9708 1.46259C11.7318 0.487529 12.7054 0 13.8938 0C15.056 0 15.9962 0.481 16.7174 1.44227C17.3703 2.31069 17.699 3.34596 17.699 4.54737ZM15.6357 4.96888C15.6357 3.9532 15.5428 3.07826 15.3549 2.34261C15.048 1.15498 14.5344 0.559353 13.814 0.559353C12.6525 0.559353 12.0721 1.72231 12.0721 4.04678C12.0721 5.06175 12.178 5.97006 12.392 6.77173C12.7257 8.00143 13.259 8.61592 13.9939 8.61592C14.4335 8.61592 14.818 8.31412 15.1452 7.71486C15.4717 7.11343 15.6357 6.19786 15.6357 4.96888Z" fill="white"/>
<path d="M28.2744 8.93486H24.4895V8.37551C25.091 8.37551 25.3906 8.02219 25.3906 7.31557V2.1791L22.9486 8.93486H22.5873L20.0038 2.2988V6.71704C20.0038 7.27639 20.1308 7.69355 20.384 7.96561C20.6379 8.23911 20.865 8.37551 21.0652 8.37551V8.93486H18.4629V8.37551C18.5304 8.37551 18.6305 8.34213 18.764 8.27539C19.2573 8.02147 19.504 7.50347 19.504 6.71704V1.42023C19.3313 0.980586 18.9845 0.760762 18.4629 0.760762V0.200684H20.9709L23.4115 6.41813L25.5321 0.200684H28.273V0.760037C27.8457 0.760037 27.5685 0.83984 27.4423 1.00017C27.316 1.15978 27.2522 1.45361 27.2522 1.87947V7.2568C27.2522 7.68339 27.316 7.97649 27.4423 8.13682C27.5685 8.29715 27.8457 8.37696 28.273 8.37696V8.93631H28.2744V8.93486Z" fill="white"/>
</g>
<defs>
<clipPath id="clip0_529_1424">
<rect width="111" height="37.7255" fill="white"/>
</clipPath>
</defs>
</svg>
