<svg width="65" height="65" viewBox="0 0 65 65" fill="none" xmlns="http://www.w3.org/2000/svg">
<circle cx="32.5" cy="32.5" r="31.5" stroke="#22313B" stroke-width="2"/>
<circle cx="32.5" cy="32.5" r="23.5" stroke="#E30613" stroke-width="2"/>
<circle cx="32.5854" cy="24.7143" r="6.71428" stroke="#22313B" stroke-width="2"/>
<path d="M25.4867 33.5311C25.7502 33.3317 26.2625 33.3055 26.8053 33.6991C28.4295 34.8768 30.4282 35.5714 32.5862 35.5714C34.8599 35.5714 36.9564 34.8003 38.6244 33.506C39.1551 33.0942 39.6681 33.105 39.9367 33.2959C43.2731 35.6671 45.6353 39.6866 46.0814 44.3823C46.1092 44.6746 45.8661 45 45.4435 45H20.3006C19.878 45 19.635 44.6746 19.6627 44.3823C20.0943 39.8391 22.3199 35.928 25.4867 33.5311Z" stroke="#22313B" stroke-width="2"/>
</svg>
