<svg width="65" height="65" viewBox="0 0 65 65" fill="none" xmlns="http://www.w3.org/2000/svg">
<circle cx="32.5" cy="32.5" r="31.5" stroke="#D9D9D9" stroke-width="2"/>
<circle cx="32.5" cy="32.5" r="23.5" stroke="#E30613" stroke-width="2"/>
<path d="M32.9644 39.4682H30.7327C30.7451 38.4144 30.8505 37.5217 31.0489 36.7902C31.2473 36.0587 31.5696 35.383 32.0159 34.7631C32.4623 34.1432 33.0636 33.4613 33.8198 32.7175C34.4769 32.0604 35.0596 31.4529 35.568 30.8949C36.0763 30.3246 36.473 29.6985 36.7582 29.0166C37.0557 28.3347 37.2045 27.4979 37.2045 26.506C37.2045 25.5266 37.0309 24.6649 36.6838 23.921C36.3366 23.1772 35.8159 22.5944 35.1216 22.1729C34.4273 21.7514 33.5595 21.5406 32.518 21.5406C31.5634 21.5406 30.7079 21.7266 29.9517 22.0985C29.2078 22.4705 28.6189 23.0098 28.1849 23.7165C27.7634 24.4108 27.5402 25.2538 27.5154 26.2457H25.3024C25.3272 24.8323 25.6619 23.6297 26.3066 22.6378C26.9637 21.6336 27.8316 20.8711 28.9102 20.3504C30.0012 19.8173 31.2039 19.5507 32.518 19.5507C34.0058 19.5507 35.258 19.8421 36.2747 20.4248C37.3037 21.0075 38.0848 21.8196 38.6179 22.861C39.1634 23.9024 39.4362 25.1113 39.4362 26.4874C39.4362 27.5909 39.2502 28.5889 38.8782 29.4816C38.5063 30.3618 37.9918 31.1925 37.3347 31.9736C36.6776 32.7546 35.9151 33.5419 35.0473 34.3354C34.2538 35.0173 33.7083 35.7984 33.4107 36.6786C33.1132 37.5465 32.9644 38.4763 32.9644 39.4682ZM30.4352 45.6796C30.4352 45.2581 30.5716 44.9047 30.8443 44.6196C31.1171 44.322 31.489 44.1732 31.9601 44.1732C32.4313 44.1732 32.8032 44.322 33.076 44.6196C33.3611 44.9047 33.5037 45.2581 33.5037 45.6796C33.5037 46.0887 33.3611 46.4421 33.076 46.7396C32.8032 47.0248 32.4313 47.1674 31.9601 47.1674C31.489 47.1674 31.1171 47.0248 30.8443 46.7396C30.5716 46.4421 30.4352 46.0887 30.4352 45.6796Z" fill="#D9D9D9"/>
</svg>
