<svg width="19" height="24" viewBox="0 0 19 24" fill="none" xmlns="http://www.w3.org/2000/svg">
<path d="M10.2251 1.51419C10.2251 0.677518 9.54087 -0.000183105 8.69753 -0.000183105H8.58857C7.51728 -0.000183105 6.64848 0.860502 6.64848 1.92197L6.56665 4.51396L6.38629 10.2274C6.34496 10.4034 6.31991 14.3752 6.31991 14.3752C5.98258 14.0337 5.606 13.6429 5.26616 13.2674C4.47543 12.3926 3.02339 11.8031 2.05773 11.6946C1.54922 11.6358 1.1597 11.7054 0.902941 11.8987C0.818607 11.9612 0.738866 12.0308 0.660795 12.1061C0.163978 12.593 -0.212601 13.3796 0.135171 13.9554C0.286303 14.2071 0.545149 14.3735 0.818607 14.5495C1.18308 14.7838 1.79679 15.0372 2.25562 15.6197C3.02965 16.5983 4.8161 18.7871 5.91411 19.9558C6.14122 20.0965 6.6251 20.5751 6.85347 20.696C7.54651 21.1344 8.11346 21.548 8.30968 21.7724C8.46332 21.9467 9.37012 22.407 9.37012 22.407C10.1032 22.8682 11.4396 23.2979 12.9806 23.2979C14.5216 23.2979 15.9177 23.3894 16.9514 22.4882H17.009L17.034 22.4194C18.087 21.4648 18.7391 20.1421 18.7391 18.679V11.6851C18.7391 11.3411 18.6635 10.1927 17.6891 9.84739C17.2215 9.68263 16.7785 9.74514 16.402 9.90618L16.3126 9.91073L16.2851 9.91239C16.1164 9.28147 15.6939 8.87328 15.0676 8.76564C14.3107 8.63606 13.7876 8.86003 13.4728 9.08607C13.1589 8.4183 12.5301 8.07055 11.6809 8.14093C11.0426 8.19475 10.5696 8.50524 10.2251 8.91467V1.51419Z" fill="#8E7DE6"/>
</svg>
