<svg width="28" height="27" viewBox="0 0 28 27" fill="none" xmlns="http://www.w3.org/2000/svg">
<g clip-path="url(#clip0_381_6136)">
<circle cx="8.5" cy="5.5" r="4.5" fill="#252838"/>
<path d="M10.2261 5.21256C10.2261 4.37588 9.54185 3.69818 8.69851 3.69818H8.58955C7.51826 3.69818 6.64946 4.55887 6.64946 5.62034L6.56763 8.21233L6.38727 13.9258C6.34594 14.1017 6.32089 18.0736 6.32089 18.0736C5.98355 17.732 5.60698 17.3412 5.26714 16.9657C4.4764 16.091 3.02436 15.5014 2.0587 15.393C1.5502 15.3342 1.16068 15.4037 0.903917 15.5971C0.819583 15.6596 0.739842 15.7291 0.661771 15.8045C0.164955 16.2913 -0.211624 17.0779 0.136148 17.6538C0.28728 17.9055 0.546126 18.0719 0.819584 18.2479C1.18405 18.4822 1.79777 18.7355 2.25659 19.318C3.03063 20.2967 4.81708 22.4855 5.91509 23.6541C6.1422 23.7949 6.62608 24.2735 6.85444 24.3944C7.54748 24.8328 8.11444 25.2464 8.31066 25.4707C8.4643 25.645 9.37109 26.1054 9.37109 26.1054C10.1042 26.5666 11.4406 26.9963 12.9816 26.9963C14.5225 26.9963 15.9186 27.0878 16.9523 26.1865H17.01L17.035 26.1178C18.0879 25.1631 18.7401 23.8404 18.7401 22.3774V15.3835C18.7401 15.0394 18.6645 13.891 17.6901 13.5458C17.2225 13.381 16.7795 13.4435 16.4029 13.6045L16.3136 13.6091L16.286 13.6108C16.1174 12.9798 15.6949 12.5716 15.0686 12.464C14.3117 12.3344 13.7886 12.5584 13.4738 12.7844C13.1598 12.1167 12.5311 11.7689 11.6819 11.8393C11.0436 11.8931 10.5705 12.2036 10.2261 12.613V5.21256Z" fill="#8E7DE6"/>
<path d="M26.4653 6.3618C26.7726 6.10264 27.0418 5.87619 27.2347 5.71515C27.3307 5.63401 27.4076 5.56942 27.4606 5.52471L27.5211 5.47338L27.537 5.46013L27.5403 5.45806L27.5412 5.4564H27.5424L27.5432 5.45558C27.8317 5.21256 27.9996 4.8557 28 4.48022C28 4.10307 27.8347 3.7458 27.5462 3.50196L23.4764 0.0612889C23.3687 -0.0302028 23.2047 -0.0177831 23.1116 0.0906822L21.7706 1.6506C21.6779 1.75823 21.6912 1.9201 21.8006 2.01159L23.2076 3.20182L14.8448 3.20264C14.7755 3.20264 14.7087 3.22997 14.6607 3.27799C14.6135 3.32477 14.5859 3.39142 14.5859 3.4589V5.50857C14.5859 5.57687 14.6131 5.64187 14.6611 5.69031C14.7083 5.73792 14.7751 5.76483 14.8444 5.76483H23.185C22.965 5.95154 22.7529 6.13162 22.5655 6.29142C22.3651 6.46116 22.191 6.61061 22.0536 6.73025C21.9847 6.78945 21.925 6.84161 21.8758 6.8855C21.8248 6.93104 21.7848 6.96664 21.7405 7.00928C21.6904 7.05689 21.6629 7.12064 21.6608 7.18937C21.6599 7.25767 21.6858 7.32184 21.7338 7.37193L23.1713 8.84615C23.2681 8.9451 23.4276 8.95006 23.5307 8.85692L23.5979 8.79606L23.5967 8.7973C23.7482 8.664 24.081 8.37793 24.4814 8.03804C25.0842 7.52553 25.8507 6.8797 26.4649 6.36263L26.4653 6.3618Z" fill="#252838"/>
</g>
<defs>
<clipPath id="clip0_381_6136">
<rect width="28" height="27" fill="white"/>
</clipPath>
</defs>
</svg>
