<svg width="137" height="136" viewBox="0 0 137 136" fill="none" xmlns="http://www.w3.org/2000/svg">
<g filter="url(#filter0_d_2001_307)">
<ellipse cx="68.5" cy="64" rx="64.5" ry="64" fill="white"/>
</g>
<path d="M35.0385 49.9553L40.9604 45.256H43.4438V72H40.7694V48.5417L35.0385 53.05V49.9553ZM61.1456 72.4203C58.9551 72.4203 56.9429 71.8599 55.109 70.7392C53.2752 69.6185 51.8106 68.0139 50.7154 65.9253C49.6456 63.8367 49.1107 61.4043 49.1107 58.628C49.1107 55.8517 49.6456 53.4193 50.7154 51.3307C51.8106 49.2421 53.2752 47.6375 55.109 46.5168C56.9429 45.3961 58.9551 44.8357 61.1456 44.8357C63.336 44.8357 65.3355 45.3961 67.1439 46.5168C68.9777 47.6375 70.4296 49.2421 71.4993 51.3307C72.5945 53.4193 73.1422 55.8517 73.1422 58.628C73.1422 61.4043 72.5945 63.8367 71.4993 65.9253C70.4296 68.0139 68.9777 69.6185 67.1439 70.7392C65.3355 71.8599 63.336 72.4203 61.1456 72.4203ZM61.1456 69.8223C62.8266 69.8223 64.3676 69.402 65.7684 68.5615C67.1693 67.6955 68.29 66.422 69.1306 64.7409C69.9711 63.0599 70.3913 61.0222 70.3913 58.628C70.3913 56.2338 69.9711 54.1961 69.1306 52.5151C68.29 50.834 67.1693 49.5732 65.7684 48.7327C64.3676 47.8667 62.8266 47.4337 61.1456 47.4337C59.439 47.4337 57.8853 47.8667 56.4845 48.7327C55.0836 49.5732 53.9629 50.834 53.1223 52.5151C52.3073 54.1961 51.8998 56.2338 51.8998 58.628C51.8998 61.0222 52.3073 63.0599 53.1223 64.7409C53.9629 66.422 55.0836 67.6955 56.4845 68.5615C57.8853 69.402 59.439 69.8223 61.1456 69.8223ZM82.5223 57.2526C81.3761 57.2526 80.3445 56.9724 79.4276 56.4121C78.5361 55.8517 77.8357 55.1003 77.3263 54.1579C76.8169 53.2155 76.5622 52.1712 76.5622 51.025C76.5622 49.8789 76.8169 48.8346 77.3263 47.8922C77.8357 46.9498 78.5361 46.2111 79.4276 45.6762C80.3445 45.1159 81.3761 44.8357 82.5223 44.8357C83.6684 44.8357 84.6873 45.1159 85.5787 45.6762C86.4702 46.2111 87.1706 46.9498 87.68 47.8922C88.1895 48.8346 88.4442 49.8789 88.4442 51.025C88.4442 52.1712 88.1895 53.2155 87.68 54.1579C87.1706 55.1003 86.4702 55.8517 85.5787 56.4121C84.6873 56.9724 83.6684 57.2526 82.5223 57.2526ZM82.1784 72H79.695L95.8561 45.256H98.3012L82.1784 72ZM82.5223 55.1895C83.6684 55.1895 84.5854 54.8074 85.2731 54.0433C85.9608 53.2537 86.3046 52.2476 86.3046 51.025C86.3046 49.8025 85.9608 48.8091 85.2731 48.045C84.5854 47.2809 83.6684 46.8988 82.5223 46.8988C81.3761 46.8988 80.4464 47.2809 79.7332 48.045C79.0455 48.8091 78.7017 49.8025 78.7017 51.025C78.7017 52.2476 79.0455 53.2537 79.7332 54.0433C80.4464 54.8074 81.3761 55.1895 82.5223 55.1895ZM95.5122 72.4203C94.366 72.4203 93.3345 72.1528 92.4176 71.6179C91.5261 71.0576 90.8256 70.3062 90.3162 69.3638C89.8068 68.4214 89.5521 67.3771 89.5521 66.2309C89.5521 65.0848 89.8068 64.0405 90.3162 63.0981C90.8256 62.1557 91.5261 61.4043 92.4176 60.8439C93.3345 60.2836 94.366 60.0034 95.5122 60.0034C96.6584 60.0034 97.6772 60.2836 98.5687 60.8439C99.4601 61.4043 100.161 62.1557 100.67 63.0981C101.179 64.0405 101.434 65.0848 101.434 66.2309C101.434 67.3771 101.179 68.4214 100.67 69.3638C100.161 70.3062 99.4601 71.0576 98.5687 71.6179C97.6772 72.1528 96.6584 72.4203 95.5122 72.4203ZM95.5122 70.3572C96.6584 70.3572 97.5753 69.9751 98.263 69.211C98.9762 68.4469 99.3328 67.4535 99.3328 66.2309C99.3328 65.0083 98.9762 64.015 98.263 63.2509C97.5753 62.4613 96.6584 62.0665 95.5122 62.0665C94.366 62.0665 93.4364 62.4613 92.7232 63.2509C92.0355 64.015 91.6916 65.0083 91.6916 66.2309C91.6916 67.4535 92.0355 68.4469 92.7232 69.211C93.4364 69.9751 94.366 70.3572 95.5122 70.3572Z" fill="#095FF0"/>
<path d="M37.4151 89.292H34.9849L32.6526 85.9322H31.3315V89.292H29.2276V80.9088H31.3315V84.0565H32.6526L34.9034 80.9088H37.2194L34.3325 84.921L37.4151 89.292ZM41.9988 89.4714C41.1507 89.4714 40.3896 89.2866 39.7154 88.9169C39.0413 88.5363 38.5085 88.0144 38.1171 87.3511C37.7365 86.6879 37.5462 85.9376 37.5462 85.1004C37.5462 84.2631 37.7365 83.5129 38.1171 82.8496C38.4976 82.1864 39.025 81.6699 39.6991 81.3002C40.3841 80.9196 41.1507 80.7293 41.9988 80.7293C42.8469 80.7293 43.608 80.9196 44.2822 81.3002C44.9563 81.6699 45.4837 82.1864 45.8642 82.8496C46.2448 83.5129 46.4351 84.2631 46.4351 85.1004C46.4351 85.9376 46.2448 86.6879 45.8642 87.3511C45.4837 88.0144 44.9563 88.5363 44.2822 88.9169C43.608 89.2866 42.8469 89.4714 41.9988 89.4714ZM41.9988 87.5795C42.6947 87.5795 43.2438 87.3566 43.6461 86.9108C44.0593 86.465 44.2659 85.8615 44.2659 85.1004C44.2659 84.3392 44.0593 83.7358 43.6461 83.29C43.2438 82.8442 42.6947 82.6213 41.9988 82.6213C41.3029 82.6213 40.7484 82.8442 40.3352 83.29C39.922 83.7358 39.7154 84.3392 39.7154 85.1004C39.7154 85.8615 39.9166 86.465 40.3189 86.9108C40.7321 87.3566 41.292 87.5795 41.9988 87.5795ZM50.1249 89.292H48.0699V80.9088H51.5602L53.3216 85.7691H53.6478L55.4093 80.9088H58.8343V89.292H56.7956V82.9149H56.4042L54.6916 87.6121H52.2126L50.5 82.9149H50.1086L50.1249 89.292ZM63.0751 89.292H60.9712V80.9088H68.7509V89.292H66.6633V82.8007H63.0751V89.292ZM74.2379 89.4714C73.542 89.4714 72.9005 89.292 72.3134 88.9332C71.7262 88.5744 71.2587 88.0633 70.9107 87.4001C70.5628 86.7368 70.3888 85.9702 70.3888 85.1004C70.3888 84.2414 70.5628 83.4803 70.9107 82.817C71.2587 82.1537 71.7262 81.6427 72.3134 81.2839C72.9005 80.9142 73.542 80.7293 74.2379 80.7293C74.8468 80.7293 75.3959 80.8598 75.8852 81.1208C76.3745 81.3817 76.7442 81.7134 76.9943 82.1157H77.0758V80.9088H79.0493V89.292H77.0758V88.1014H76.9943C76.7442 88.5037 76.3745 88.8353 75.8852 89.0963C75.4068 89.3464 74.8577 89.4714 74.2379 89.4714ZM74.7924 87.6284C75.4448 87.6284 75.9668 87.4055 76.3582 86.9597C76.7605 86.5139 76.9617 85.8941 76.9617 85.1004C76.9617 84.3175 76.7605 83.7032 76.3582 83.2574C75.9668 82.8116 75.4448 82.5887 74.7924 82.5887C74.1074 82.5887 73.5638 82.8116 73.1615 83.2574C72.7592 83.6923 72.558 84.3066 72.558 85.1004C72.558 85.8941 72.7592 86.5139 73.1615 86.9597C73.5638 87.4055 74.1074 87.6284 74.7924 87.6284ZM86.9246 84.1381V80.9088H89.0123V89.292H86.9246V86.0137H83.2713V89.292H81.1673V80.9088H83.2713V84.1381H86.9246ZM94.3836 89.292H91.1379V80.9088H93.2093L93.193 87.1065H93.5681L96.0472 80.9088H99.3254V89.292H97.2215L97.2378 83.0943H96.8464L94.3836 89.292ZM104.689 89.292H101.443V80.9088H103.514L103.498 87.1065H103.873L106.352 80.9088H109.631V89.292H107.527L107.543 83.0943H107.151L104.689 89.292ZM105.52 79.9465C104.955 79.9465 104.471 79.8323 104.069 79.604C103.667 79.3648 103.362 79.0494 103.156 78.658C102.949 78.2666 102.846 77.8425 102.846 77.3858H104.477C104.477 77.7555 104.564 78.0491 104.738 78.2666C104.912 78.4732 105.173 78.5765 105.52 78.5765C105.858 78.5765 106.113 78.4677 106.287 78.2503C106.472 78.0328 106.564 77.7447 106.564 77.3858H108.195C108.195 77.8425 108.092 78.2666 107.885 78.658C107.679 79.0494 107.374 79.3648 106.972 79.604C106.57 79.8323 106.086 79.9465 105.52 79.9465Z" fill="#095FF0"/>
<defs>
<filter id="filter0_d_2001_307" x="0" y="0" width="137" height="136" filterUnits="userSpaceOnUse" color-interpolation-filters="sRGB">
<feFlood flood-opacity="0" result="BackgroundImageFix"/>
<feColorMatrix in="SourceAlpha" type="matrix" values="0 0 0 0 0 0 0 0 0 0 0 0 0 0 0 0 0 0 127 0" result="hardAlpha"/>
<feOffset dy="4"/>
<feGaussianBlur stdDeviation="2"/>
<feComposite in2="hardAlpha" operator="out"/>
<feColorMatrix type="matrix" values="0 0 0 0 0 0 0 0 0 0 0 0 0 0 0 0 0 0 0.25 0"/>
<feBlend mode="normal" in2="BackgroundImageFix" result="effect1_dropShadow_2001_307"/>
<feBlend mode="normal" in="SourceGraphic" in2="effect1_dropShadow_2001_307" result="shape"/>
</filter>
</defs>
</svg>
