<svg width="382" height="381" viewBox="0 0 382 381" fill="none" xmlns="http://www.w3.org/2000/svg">
<g filter="url(#filter0_d_2001_309)">
<ellipse cx="191" cy="186.5" rx="187" ry="186.5" fill="white"/>
</g>
<path d="M81.2348 211.139V198.314L114.51 175.206C119.747 171.432 123.483 167.889 125.717 164.577C128.028 161.265 129.183 157.568 129.183 153.485C129.183 148.479 127.566 144.473 124.33 141.469C121.172 138.388 116.82 136.848 111.275 136.848C105.113 136.848 100.337 138.542 96.948 141.932C93.5589 145.244 91.6332 149.48 91.1711 154.641H82.7368C82.8909 150.096 84.0077 145.898 86.0874 142.047C88.2441 138.119 91.4022 134.961 95.5615 132.573C99.7979 130.185 105.036 128.991 111.275 128.991C116.589 128.991 121.211 130.031 125.139 132.111C129.145 134.113 132.187 136.963 134.267 140.661C136.423 144.281 137.502 148.479 137.502 153.254C137.502 158.723 136.115 163.614 133.342 167.928C130.569 172.164 125.871 176.593 119.247 181.214L91.7488 200.74V203.282H139.581V211.139H81.2348ZM180.324 128.991C186.563 128.991 192.032 130.224 196.73 132.688C201.506 135.153 205.165 138.542 207.706 142.856C210.248 147.169 211.519 151.945 211.519 157.182C211.519 164.269 208.631 171.625 202.854 179.25L178.36 211.139H168.423L189.451 184.218C186.833 184.912 183.79 185.258 180.324 185.258C174.085 185.258 168.578 184.026 163.802 181.561C159.103 179.096 155.483 175.746 152.941 171.509C150.4 167.196 149.129 162.42 149.129 157.182C149.129 151.945 150.4 147.208 152.941 142.971C155.483 138.658 159.103 135.269 163.802 132.804C168.578 130.262 174.085 128.991 180.324 128.991ZM180.324 177.748C185.022 177.748 189.105 176.862 192.571 175.091C196.037 173.319 198.656 170.893 200.427 167.812C202.276 164.654 203.2 161.111 203.2 157.182C203.2 153.254 202.276 149.711 200.427 146.553C198.656 143.395 196.037 140.93 192.571 139.159C189.105 137.387 185.022 136.501 180.324 136.501C175.625 136.501 171.543 137.387 168.077 139.159C164.688 140.93 162.069 143.395 160.22 146.553C158.449 149.711 157.563 153.254 157.563 157.182C157.563 161.111 158.449 164.654 160.22 167.812C162.069 170.893 164.688 173.319 168.077 175.091C171.543 176.862 175.625 177.748 180.324 177.748ZM239.364 166.541C235.898 166.541 232.778 165.694 230.005 163.999C227.309 162.305 225.191 160.032 223.651 157.182C222.11 154.333 221.34 151.175 221.34 147.708C221.34 144.242 222.11 141.084 223.651 138.234C225.191 135.384 227.309 133.151 230.005 131.533C232.778 129.839 235.898 128.991 239.364 128.991C242.83 128.991 245.911 129.839 248.607 131.533C251.303 133.151 253.421 135.384 254.961 138.234C256.502 141.084 257.272 144.242 257.272 147.708C257.272 151.175 256.502 154.333 254.961 157.182C253.421 160.032 251.303 162.305 248.607 163.999C245.911 165.694 242.83 166.541 239.364 166.541ZM238.324 211.139H230.814L279.686 130.262H287.081L238.324 211.139ZM239.364 160.302C242.83 160.302 245.603 159.147 247.682 156.836C249.762 154.448 250.802 151.406 250.802 147.708C250.802 144.011 249.762 141.007 247.682 138.696C245.603 136.386 242.83 135.23 239.364 135.23C235.898 135.23 233.086 136.386 230.929 138.696C228.85 141.007 227.81 144.011 227.81 147.708C227.81 151.406 228.85 154.448 230.929 156.836C233.086 159.147 235.898 160.302 239.364 160.302ZM278.647 212.41C275.18 212.41 272.061 211.601 269.288 209.983C266.592 208.289 264.474 206.016 262.933 203.167C261.393 200.317 260.623 197.159 260.623 193.692C260.623 190.226 261.393 187.068 262.933 184.218C264.474 181.368 266.592 179.096 269.288 177.402C272.061 175.707 275.18 174.86 278.647 174.86C282.113 174.86 285.194 175.707 287.89 177.402C290.585 179.096 292.704 181.368 294.244 184.218C295.785 187.068 296.555 190.226 296.555 193.692C296.555 197.159 295.785 200.317 294.244 203.167C292.704 206.016 290.585 208.289 287.89 209.983C285.194 211.601 282.113 212.41 278.647 212.41ZM278.647 206.171C282.113 206.171 284.886 205.015 286.965 202.704C289.122 200.394 290.2 197.39 290.2 193.692C290.2 189.995 289.122 186.991 286.965 184.681C284.886 182.293 282.113 181.099 278.647 181.099C275.18 181.099 272.369 182.293 270.212 184.681C268.133 186.991 267.093 189.995 267.093 193.692C267.093 197.39 268.133 200.394 270.212 202.704C272.369 205.015 275.18 206.171 278.647 206.171Z" fill="#095FF0"/>
<path d="M94.1907 262.938H86.8417L79.7886 252.777H75.7935V262.938H69.4309V237.586H75.7935V247.105H79.7886L86.5951 237.586H93.5988L84.8688 249.719L94.1907 262.938ZM108.052 263.48C105.487 263.48 103.186 262.921 101.147 261.803C99.1084 260.652 97.4972 259.074 96.3135 257.068C95.1626 255.062 94.5872 252.794 94.5872 250.262C94.5872 247.73 95.1626 245.461 96.3135 243.455C97.4644 241.449 99.0591 239.887 101.098 238.77C103.169 237.619 105.487 237.043 108.052 237.043C110.617 237.043 112.919 237.619 114.957 238.77C116.996 239.887 118.591 241.449 119.742 243.455C120.893 245.461 121.468 247.73 121.468 250.262C121.468 252.794 120.893 255.062 119.742 257.068C118.591 259.074 116.996 260.652 114.957 261.803C112.919 262.921 110.617 263.48 108.052 263.48ZM108.052 257.759C110.157 257.759 111.817 257.085 113.034 255.736C114.283 254.388 114.908 252.563 114.908 250.262C114.908 247.96 114.283 246.135 113.034 244.787C111.817 243.439 110.157 242.765 108.052 242.765C105.948 242.765 104.271 243.439 103.021 244.787C101.772 246.135 101.147 247.96 101.147 250.262C101.147 252.563 101.755 254.388 102.972 255.736C104.222 257.085 105.915 257.759 108.052 257.759ZM132.626 262.938H126.412V237.586H136.967L142.294 252.284H143.28L148.607 237.586H158.965V262.938H152.799V243.652H151.615L146.437 257.857H138.94L133.761 243.652H132.577L132.626 262.938ZM171.789 262.938H165.427V237.586H188.953V262.938H182.64V243.307H171.789V262.938ZM205.546 263.48C203.442 263.48 201.502 262.938 199.726 261.852C197.951 260.767 196.537 259.222 195.485 257.216C194.432 255.21 193.906 252.892 193.906 250.262C193.906 247.664 194.432 245.362 195.485 243.357C196.537 241.351 197.951 239.805 199.726 238.72C201.502 237.602 203.442 237.043 205.546 237.043C207.388 237.043 209.048 237.438 210.528 238.227C212.008 239.016 213.126 240.019 213.882 241.236H214.129V237.586H220.097V262.938H214.129V259.337H213.882C213.126 260.554 212.008 261.556 210.528 262.346C209.081 263.102 207.421 263.48 205.546 263.48ZM207.223 257.907C209.196 257.907 210.775 257.233 211.958 255.884C213.175 254.536 213.783 252.662 213.783 250.262C213.783 247.894 213.175 246.036 211.958 244.688C210.775 243.34 209.196 242.666 207.223 242.666C205.152 242.666 203.508 243.34 202.291 244.688C201.075 246.003 200.466 247.861 200.466 250.262C200.466 252.662 201.075 254.536 202.291 255.884C203.508 257.233 205.152 257.907 207.223 257.907ZM243.912 247.352V237.586H250.226V262.938H243.912V253.024H232.864V262.938H226.502V237.586H232.864V247.352H243.912ZM266.469 262.938H256.654V237.586H262.918L262.868 256.328H264.003L271.5 237.586H281.414V262.938H275.051L275.1 244.195H273.917L266.469 262.938ZM297.633 262.938H287.817V237.586H294.081L294.032 256.328H295.166L302.663 237.586H312.577V262.938H306.215L306.264 244.195H305.08L297.633 262.938ZM300.148 234.676C298.438 234.676 296.975 234.331 295.758 233.64C294.542 232.917 293.621 231.963 292.996 230.779C292.371 229.596 292.059 228.313 292.059 226.932H296.991C296.991 228.05 297.254 228.938 297.781 229.596C298.307 230.22 299.096 230.533 300.148 230.533C301.167 230.533 301.94 230.204 302.466 229.546C303.025 228.889 303.305 228.017 303.305 226.932H308.237C308.237 228.313 307.924 229.596 307.3 230.779C306.675 231.963 305.754 232.917 304.538 233.64C303.321 234.331 301.858 234.676 300.148 234.676Z" fill="#095FF0"/>
<defs>
<filter id="filter0_d_2001_309" x="0" y="0" width="382" height="381" filterUnits="userSpaceOnUse" color-interpolation-filters="sRGB">
<feFlood flood-opacity="0" result="BackgroundImageFix"/>
<feColorMatrix in="SourceAlpha" type="matrix" values="0 0 0 0 0 0 0 0 0 0 0 0 0 0 0 0 0 0 127 0" result="hardAlpha"/>
<feOffset dy="4"/>
<feGaussianBlur stdDeviation="2"/>
<feComposite in2="hardAlpha" operator="out"/>
<feColorMatrix type="matrix" values="0 0 0 0 0 0 0 0 0 0 0 0 0 0 0 0 0 0 0.25 0"/>
<feBlend mode="normal" in2="BackgroundImageFix" result="effect1_dropShadow_2001_309"/>
<feBlend mode="normal" in="SourceGraphic" in2="effect1_dropShadow_2001_309" result="shape"/>
</filter>
</defs>
</svg>
