<svg width="278" height="278" viewBox="0 0 278 278" fill="none" xmlns="http://www.w3.org/2000/svg">
<g filter="url(#filter0_d_2001_308)">
<circle cx="139" cy="135" r="135" fill="white"/>
</g>
<path d="M75.8148 151.801V143.166L98.2191 127.607C101.746 125.066 104.261 122.68 105.765 120.45C107.321 118.22 108.099 115.731 108.099 112.982C108.099 109.611 107.01 106.915 104.831 104.892C102.705 102.817 99.7749 101.78 96.0409 101.78C91.8919 101.78 88.6765 102.921 86.3946 105.203C84.1127 107.433 82.8162 110.286 82.505 113.76H76.8261C76.9299 110.7 77.6819 107.874 79.0821 105.281C80.5343 102.636 82.6606 100.51 85.4611 98.9019C88.3135 97.2942 91.8401 96.4904 96.0409 96.4904C99.6193 96.4904 102.731 97.1905 105.376 98.5908C108.073 99.9392 110.121 101.858 111.522 104.347C112.974 106.785 113.7 109.611 113.7 112.827C113.7 116.509 112.766 119.802 110.899 122.706C109.032 125.559 105.869 128.541 101.409 131.653L82.894 144.799V146.511H115.1V151.801H75.8148ZM121.762 106.915L133.819 97.3461H138.876V151.801H133.43V104.036L121.762 113.216V106.915ZM161.772 121.773C159.439 121.773 157.338 121.202 155.471 120.061C153.656 118.921 152.23 117.391 151.193 115.472C150.155 113.553 149.637 111.427 149.637 109.093C149.637 106.759 150.155 104.633 151.193 102.714C152.23 100.795 153.656 99.2909 155.471 98.2018C157.338 97.0609 159.439 96.4904 161.772 96.4904C164.106 96.4904 166.181 97.0609 167.996 98.2018C169.811 99.2909 171.237 100.795 172.274 102.714C173.312 104.633 173.83 106.759 173.83 109.093C173.83 111.427 173.312 113.553 172.274 115.472C171.237 117.391 169.811 118.921 167.996 120.061C166.181 121.202 164.106 121.773 161.772 121.773ZM161.072 151.801H156.016L188.922 97.3461H193.901L161.072 151.801ZM161.772 117.572C164.106 117.572 165.973 116.794 167.373 115.238C168.774 113.631 169.474 111.582 169.474 109.093C169.474 106.603 168.774 104.581 167.373 103.025C165.973 101.469 164.106 100.691 161.772 100.691C159.439 100.691 157.546 101.469 156.094 103.025C154.693 104.581 153.993 106.603 153.993 109.093C153.993 111.582 154.693 113.631 156.094 115.238C157.546 116.794 159.439 117.572 161.772 117.572ZM188.222 152.656C185.888 152.656 183.788 152.112 181.921 151.023C180.106 149.882 178.679 148.352 177.642 146.433C176.605 144.514 176.086 142.388 176.086 140.054C176.086 137.72 176.605 135.594 177.642 133.675C178.679 131.756 180.106 130.226 181.921 129.085C183.788 127.944 185.888 127.374 188.222 127.374C190.556 127.374 192.63 127.944 194.445 129.085C196.26 130.226 197.687 131.756 198.724 133.675C199.761 135.594 200.28 137.72 200.28 140.054C200.28 142.388 199.761 144.514 198.724 146.433C197.687 148.352 196.26 149.882 194.445 151.023C192.63 152.112 190.556 152.656 188.222 152.656ZM188.222 148.456C190.556 148.456 192.423 147.678 193.823 146.122C195.275 144.566 196.001 142.543 196.001 140.054C196.001 137.565 195.275 135.542 193.823 133.986C192.423 132.379 190.556 131.575 188.222 131.575C185.888 131.575 183.995 132.379 182.543 133.986C181.143 135.542 180.443 137.565 180.443 140.054C180.443 142.543 181.143 144.566 182.543 146.122C183.995 147.678 185.888 148.456 188.222 148.456Z" fill="#095FF0"/>
<path d="M74.3176 185.769H69.3695L64.6206 178.927H61.9307V185.769H57.6467V168.699H61.9307V175.108H64.6206L69.2034 168.699H73.9191L68.0411 176.869L74.3176 185.769ZM83.6507 186.134C81.9238 186.134 80.3741 185.757 79.0014 185.005C77.6288 184.23 76.544 183.167 75.7469 181.817C74.9721 180.466 74.5846 178.939 74.5846 177.234C74.5846 175.529 74.9721 174.001 75.7469 172.651C76.5218 171.3 77.5956 170.249 78.9682 169.496C80.363 168.721 81.9238 168.334 83.6507 168.334C85.3776 168.334 86.9273 168.721 88.3 169.496C89.6726 170.249 90.7464 171.3 91.5213 172.651C92.2961 174.001 92.6836 175.529 92.6836 177.234C92.6836 178.939 92.2961 180.466 91.5213 181.817C90.7464 183.167 89.6726 184.23 88.3 185.005C86.9273 185.757 85.3776 186.134 83.6507 186.134ZM83.6507 182.282C85.0676 182.282 86.1857 181.828 87.0048 180.92C87.8461 180.012 88.2668 178.784 88.2668 177.234C88.2668 175.684 87.8461 174.455 87.0048 173.548C86.1857 172.64 85.0676 172.186 83.6507 172.186C82.2338 172.186 81.1047 172.64 80.2634 173.548C79.4221 174.455 79.0014 175.684 79.0014 177.234C79.0014 178.784 79.411 180.012 80.2302 180.92C81.0715 181.828 82.2116 182.282 83.6507 182.282ZM100.197 185.769H96.0123V168.699H103.119L106.706 178.595H107.37L110.956 168.699H117.93V185.769H113.779V172.784H112.982L109.495 182.348H104.447L100.96 172.784H100.163L100.197 185.769ZM126.565 185.769H122.281V168.699H138.122V185.769H133.871V172.551H126.565V185.769ZM149.294 186.134C147.877 186.134 146.571 185.769 145.376 185.038C144.18 184.307 143.228 183.267 142.52 181.916C141.811 180.566 141.457 179.005 141.457 177.234C141.457 175.485 141.811 173.935 142.52 172.585C143.228 171.234 144.18 170.193 145.376 169.463C146.571 168.71 147.877 168.334 149.294 168.334C150.534 168.334 151.652 168.599 152.648 169.131C153.645 169.662 154.397 170.337 154.907 171.157H155.073V168.699H159.091V185.769H155.073V183.344H154.907C154.397 184.163 153.645 184.839 152.648 185.37C151.674 185.879 150.556 186.134 149.294 186.134ZM150.423 182.381C151.752 182.381 152.814 181.927 153.611 181.02C154.431 180.112 154.84 178.85 154.84 177.234C154.84 175.64 154.431 174.389 153.611 173.481C152.814 172.573 151.752 172.12 150.423 172.12C149.029 172.12 147.922 172.573 147.102 173.481C146.283 174.367 145.874 175.618 145.874 177.234C145.874 178.85 146.283 180.112 147.102 181.02C147.922 181.927 149.029 182.381 150.423 182.381ZM175.126 175.274V168.699H179.377V185.769H175.126V179.094H167.687V185.769H163.403V168.699H167.687V175.274H175.126ZM190.314 185.769H183.705V168.699H187.923L187.889 181.319H188.653L193.701 168.699H200.376V185.769H196.092L196.125 173.149H195.328L190.314 185.769ZM211.296 185.769H204.688V168.699H208.905L208.872 181.319H209.636L214.684 168.699H221.359V185.769H217.075L217.108 173.149H216.311L211.296 185.769ZM212.99 166.74C211.839 166.74 210.854 166.507 210.034 166.042C209.215 165.555 208.595 164.913 208.175 164.116C207.754 163.319 207.544 162.456 207.544 161.526H210.865C210.865 162.279 211.042 162.876 211.396 163.319C211.75 163.74 212.282 163.95 212.99 163.95C213.676 163.95 214.197 163.729 214.551 163.286C214.927 162.843 215.115 162.257 215.115 161.526H218.436C218.436 162.456 218.226 163.319 217.805 164.116C217.385 164.913 216.765 165.555 215.946 166.042C215.127 166.507 214.141 166.74 212.99 166.74Z" fill="#095FF0"/>
<defs>
<filter id="filter0_d_2001_308" x="0" y="0" width="278" height="278" filterUnits="userSpaceOnUse" color-interpolation-filters="sRGB">
<feFlood flood-opacity="0" result="BackgroundImageFix"/>
<feColorMatrix in="SourceAlpha" type="matrix" values="0 0 0 0 0 0 0 0 0 0 0 0 0 0 0 0 0 0 127 0" result="hardAlpha"/>
<feOffset dy="4"/>
<feGaussianBlur stdDeviation="2"/>
<feComposite in2="hardAlpha" operator="out"/>
<feColorMatrix type="matrix" values="0 0 0 0 0 0 0 0 0 0 0 0 0 0 0 0 0 0 0.25 0"/>
<feBlend mode="normal" in2="BackgroundImageFix" result="effect1_dropShadow_2001_308"/>
<feBlend mode="normal" in="SourceGraphic" in2="effect1_dropShadow_2001_308" result="shape"/>
</filter>
</defs>
</svg>
