<svg width="65" height="65" viewBox="0 0 65 65" fill="none" xmlns="http://www.w3.org/2000/svg">
<circle cx="32.5" cy="32.5" r="31.5" stroke="#22313B" stroke-width="2"/>
<circle cx="32.5" cy="32.5" r="23.5" stroke="#E30613" stroke-width="2"/>
<path d="M23.7422 26.8H40.1755" stroke="#22313B" stroke-width="2" stroke-linecap="round"/>
<path d="M23.7422 31.6333H40.1755" stroke="#22313B" stroke-width="2" stroke-linecap="round"/>
<path d="M23.7422 36.4667H40.1755" stroke="#22313B" stroke-width="2" stroke-linecap="round"/>
<path d="M25.146 21C21.7012 21 18.9082 23.7416 18.9082 27.1235V35.5578C18.9082 38.9397 21.7012 41.6813 25.146 41.6813H28.3889C28.9129 41.6813 29.416 41.8869 29.79 42.254L35.98 48.3306C36.6126 48.9516 37.6805 48.5035 37.6805 47.617V43.0348C37.6805 42.2873 38.2865 41.6813 39.034 41.6813V41.6813C42.4789 41.6813 45.2718 38.9397 45.2718 35.5578V27.1235C45.2718 23.7416 42.4789 21 39.034 21H25.146Z" stroke="#22313B" stroke-width="2"/>
</svg>
